<svg width="54" height="73" viewBox="0 0 54 73" fill="none" xmlns="http://www.w3.org/2000/svg">
<path d="M36.8747 44.4558V52.6031C36.6689 52.5585 36.4609 52.5368 36.2547 52.5368C35.2051 52.5368 34.1934 53.0977 33.6586 54.076C33.1113 55.0782 32.0928 55.6152 31.0599 55.6152C30.3406 55.6152 29.6141 55.3544 29.0356 54.8084C28.4661 54.271 27.7364 54.002 27.0067 54.002C26.2766 54.002 25.5469 54.271 24.9775 54.8084C24.399 55.3544 23.6724 55.6152 22.9531 55.6152C21.9202 55.6152 20.9018 55.0782 20.3544 54.076C19.8197 53.0977 18.808 52.5368 17.7583 52.5368C17.3942 52.5368 17.0251 52.6045 16.6699 52.7462V44.4558H36.8747Z" fill="#D11C29"/>
<path d="M36.8747 52.6029V72.9629L26.7238 63.677L16.6699 72.494V52.7459C17.0251 52.6042 17.3942 52.5365 17.7583 52.5365C18.808 52.5365 19.8197 53.0975 20.3544 54.0758C20.9018 55.078 21.9202 55.615 22.9531 55.615C23.6724 55.615 24.399 55.3542 24.9775 54.8081C25.5469 54.2707 26.2766 54.0018 27.0067 54.0018C27.7364 54.0018 28.4661 54.2707 29.0356 54.8081C29.6141 55.3542 30.3406 55.615 31.0599 55.615C32.0928 55.615 33.1113 55.078 33.6586 54.0758C34.1934 53.0975 35.2051 52.5365 36.2547 52.5365C36.4609 52.5365 36.6689 52.5582 36.8747 52.6029Z" fill="#E83136"/>
<path d="M28.9171 0.799309C30.2479 -0.456974 32.4071 -0.114922 33.2848 1.49108C33.9942 2.78978 35.5938 3.30962 36.9309 2.67606C38.5852 1.89224 40.5332 2.88499 40.8712 4.68369C41.1447 6.13807 42.5052 7.12676 43.9731 6.93723C45.7881 6.70303 47.334 8.24902 47.0998 10.0639C46.9108 11.5319 47.899 12.8924 49.3534 13.1659C51.1521 13.5038 52.1448 15.4519 51.361 17.1062C50.7275 18.4432 51.2473 20.0429 52.546 20.7523C54.152 21.63 54.494 23.7892 53.2378 25.1199C52.2215 26.1962 52.2215 27.878 53.2378 28.9542C54.494 30.285 54.152 32.4442 52.546 33.3219C51.2473 34.0313 50.7275 35.6309 51.361 36.968C52.1448 38.6223 51.1521 40.5703 49.3534 40.9083C47.899 41.1818 46.9108 42.5423 47.0998 44.0102C47.334 45.8252 45.7881 47.3711 43.9731 47.137C42.5052 46.9479 41.1447 47.9361 40.8712 49.3905C40.5332 51.1892 38.5852 52.1819 36.9309 51.3981C35.5938 50.7646 33.9942 51.2844 33.2848 52.5831C32.4071 54.1891 30.2479 54.5312 28.9171 53.2749C27.8409 52.2587 26.1591 52.2587 25.083 53.2749C23.7522 54.5312 21.5927 54.1891 20.7154 52.5831H20.7153C20.0058 51.2844 18.4064 50.7646 17.0689 51.3981C15.415 52.1819 13.467 51.1892 13.1288 49.3905C12.8554 47.9361 11.4948 46.9479 10.027 47.137C8.21186 47.3711 6.66588 45.8252 6.90008 44.0102C7.08951 42.5423 6.10096 41.1818 4.64653 40.9083H4.64648C2.84784 40.5703 1.85522 38.6223 2.63891 36.968C3.2726 35.6309 2.7529 34.0313 1.45415 33.3219H1.4541C-0.152034 32.4442 -0.494084 30.285 0.762335 28.9542H0.762381C1.77828 27.878 1.77828 26.1962 0.762381 25.1199H0.762335C-0.494084 23.7892 -0.152034 21.63 1.4541 20.7523H1.45415C2.7529 20.0429 3.2726 18.4432 2.63891 17.1062C1.85522 15.4519 2.84784 13.5038 4.64648 13.1659H4.64653C6.10096 12.8924 7.08951 11.5319 6.90008 10.0639C6.66588 8.24902 8.21186 6.70303 10.027 6.93723C11.4948 7.12676 12.8554 6.13807 13.1288 4.68369C13.467 2.88499 15.415 1.89224 17.0689 2.67606C18.4064 3.30962 20.0058 2.78978 20.7153 1.49108H20.7154C21.5927 -0.114922 23.7522 -0.456974 25.083 0.799309C26.1591 1.81553 27.8409 1.81553 28.9171 0.799309Z" fill="#FBE74C"/>
<path d="M6.86133 27.0364C6.86133 38.1625 15.8807 47.1816 27.0067 47.1816C38.1323 47.1816 47.1519 38.1625 47.1519 27.0364C47.1519 15.9104 38.1323 6.89121 27.0067 6.89121C15.8807 6.89121 6.86133 15.9104 6.86133 27.0364Z" fill="#FFEE8D"/>
<path d="M34.7678 10.0896C33.2543 9.74164 31.6776 9.55933 30.0563 9.55933C18.443 9.55933 9.03078 18.9715 9.03078 30.5849C9.03078 31.1287 9.05014 31.6702 9.09157 32.2031C8.61929 30.5628 8.36523 28.8282 8.36523 27.0358C8.36523 16.7428 16.7086 8.39917 27.0017 8.39917C29.7747 8.39917 32.4037 9.00429 34.7678 10.0896Z" fill="#F9981A"/>
<path d="M45.6389 27.0371C45.6389 37.3302 37.2952 45.6738 27.0022 45.6738C18.5014 45.6738 11.3319 39.9845 9.09203 32.2071V32.2044C9.05061 31.6715 9.03125 31.13 9.03125 30.5862C9.03125 18.9728 18.4435 9.56063 30.0567 9.56063C31.6781 9.56063 33.2547 9.74294 34.7682 10.0909C41.1841 13.0348 45.6389 19.5166 45.6389 27.0371Z" fill="#FBBA2C"/>
<path d="M8.84158 12.6804C8.35991 15.5409 7.12371 17.2285 5.26758 17.9532C7.12371 18.678 8.35991 20.3661 8.84158 23.2266C9.32315 20.3661 10.5594 18.678 12.4155 17.9532C10.5594 17.2285 9.32315 15.5409 8.84158 12.6804Z" fill="white"/>
<path d="M13.9556 9.82035C13.6945 11.3718 13.0241 12.2869 12.0176 12.6799C13.0241 13.073 13.6945 13.9881 13.9556 15.5391C14.2168 13.9881 14.8871 13.073 15.8936 12.6799C14.8871 12.2869 14.2168 11.3718 13.9556 9.82035Z" fill="white"/>
<path d="M22.1719 36.5742L21.5103 35.8856L22.1719 24.9992L19.5173 27.7013L17.5801 25.6688L24.9064 19.9339L25.5679 20.6225V36.5742H22.1719Z" fill="#F9981A"/>
<path d="M27.4399 27.7318L26.7783 27.0436C27.2806 27.5174 29.6988 27.3834 30.5354 27.3834C31.3021 27.3834 31.6645 27.0906 31.6645 26.6723C31.6645 25.5708 27.6772 26.4769 27.6772 23.828C27.6772 22.6985 28.6528 21.7085 30.4375 21.7085C31.2845 21.7085 31.8905 21.607 32.4808 21.9404C32.6775 22.0514 33.0367 22.4215 33.1423 22.629L32.4316 23.884C32.0273 23.4657 31.2601 23.1029 30.4375 23.1029C29.7963 23.1029 29.378 23.3817 29.378 23.7581C29.378 24.7481 33.3797 23.9115 33.3797 26.6303C33.3797 27.8712 32.3197 28.7773 30.4515 28.7773C29.2805 28.7773 28.151 28.387 27.4399 27.7318Z" fill="#F9981A"/>
<path d="M34.4539 26.5518L35.0387 23.4237H33.9233L33.2617 22.7351L35.0387 21.8759L36.1479 19.3471L36.8095 20.0357V21.8759L37.5143 21.1877L38.1758 21.8759V23.4237H36.8095V26.4493C36.8095 26.8812 37.2589 26.5482 37.3749 26.3045L38.0364 26.9931L38.4128 28.3455C38.1479 28.5824 37.6741 28.7773 36.9349 28.7773C35.694 28.7773 34.4539 27.7647 34.4539 26.5518Z" fill="#F9981A"/>
<path d="M21.5107 35.8848V24.3097L18.8561 27.0123L16.9189 24.9794L21.9412 19.933H24.9068V35.8848H21.5107Z" fill="#FBE74C"/>
<path d="M26.7783 27.0443L27.5454 25.7614C28.0472 26.2357 29.0373 26.6955 29.8735 26.6955C30.6406 26.6955 31.0029 26.4026 31.0029 25.9843C31.0029 24.8828 27.0157 25.7894 27.0157 23.1401C27.0157 22.011 27.9913 21.021 29.776 21.021C30.9055 21.021 31.8116 21.4113 32.4808 21.9411L31.7701 23.196C31.3657 22.7777 30.5986 22.4154 29.776 22.4154C29.1348 22.4154 28.7164 22.6942 28.7164 23.0706C28.7164 24.0602 32.7181 23.224 32.7181 25.9428C32.7181 27.1837 31.6582 28.0898 29.79 28.0898C28.619 28.0898 27.4895 27.6995 26.7783 27.0443Z" fill="#FBE74C"/>
<path d="M34.3772 26.2357V22.7357H33.2617V21.1884H34.3772V19.3477H36.1479V21.1884H37.5143V22.7357H36.1479V25.7614C36.1479 26.1937 36.3713 26.5141 36.7616 26.5141C37.0265 26.5141 37.2774 26.4166 37.3749 26.3051L37.7512 27.6575C37.4863 27.8944 37.0125 28.0898 36.2734 28.0898C35.0324 28.0898 34.3772 27.4486 34.3772 26.2357Z" fill="#FBE74C"/>
</svg>
