<svg width="54" height="73" viewBox="0 0 54 73" fill="none" xmlns="http://www.w3.org/2000/svg">
<path d="M36.8806 44.4561V52.6039C36.6748 52.5593 36.4668 52.5376 36.2606 52.5376C35.211 52.5376 34.1993 53.0985 33.6645 54.0769C33.1171 55.0792 32.0987 55.6162 31.0658 55.6162C30.3465 55.6162 29.6199 55.3554 29.0414 54.8093C28.472 54.2719 27.7423 54.0029 27.0126 54.0029C26.2825 54.0029 25.5528 54.2719 24.9833 54.8093C24.4048 55.3554 23.6783 55.6162 22.959 55.6162C21.9261 55.6162 20.9076 55.0792 20.3603 54.0769C19.8255 53.0985 18.8138 52.5376 17.7642 52.5376C17.4 52.5376 17.0309 52.6053 16.6758 52.747V44.4561H36.8806Z" fill="#D11C29"/>
<path d="M36.8806 52.6037V72.9648L26.7297 63.6785L16.6758 72.496V52.7467C17.0309 52.605 17.4 52.5373 17.7642 52.5373C18.8138 52.5373 19.8255 53.0983 20.3603 54.0766C20.9076 55.0789 21.9261 55.6159 22.959 55.6159C23.6783 55.6159 24.4048 55.3551 24.9833 54.8091C25.5528 54.2716 26.2825 54.0026 27.0126 54.0026C27.7423 54.0026 28.472 54.2716 29.0414 54.8091C29.6199 55.3551 30.3465 55.6159 31.0658 55.6159C32.0987 55.6159 33.1171 55.0789 33.6645 54.0766C34.1993 53.0983 35.211 52.5373 36.2606 52.5373C36.4668 52.5373 36.6748 52.559 36.8806 52.6037Z" fill="#E83136"/>
<path d="M28.9168 0.796261C30.2479 -0.460094 32.4072 -0.118023 33.2849 1.48807C33.9942 2.78685 35.5935 3.30672 36.931 2.67312C38.5848 1.88926 40.5329 2.88206 40.8713 4.68086C41.1448 6.13532 42.5053 7.12407 43.9728 6.93454H43.9732C45.7882 6.70033 47.3342 8.24639 47.1 10.0614C46.9104 11.5294 47.8991 12.89 49.3535 13.1635C51.1522 13.5015 52.145 15.4497 51.3611 17.1041C50.7276 18.4412 51.247 20.041 52.5457 20.7504C54.1521 21.6281 54.4942 23.7875 53.2374 25.1183C52.2217 26.1946 52.2217 27.8765 53.2374 28.9528C54.4942 30.2836 54.1521 32.443 52.5457 33.3207C51.247 34.0301 50.7276 35.6299 51.3611 36.967C52.145 38.6214 51.1522 40.5696 49.3535 40.9076C47.8991 41.1811 46.9104 42.5417 47.1 44.0097C47.3342 45.8247 45.7882 47.3708 43.9732 47.1366H43.9728C42.5053 46.9475 41.1448 47.9358 40.8713 49.3902C40.5329 51.189 38.5848 52.1818 36.931 51.398C35.5935 50.7644 33.9942 51.2842 33.2849 52.583C32.4072 54.1891 30.2479 54.5312 28.9168 53.2748C27.841 52.2586 26.1592 52.2586 25.0829 53.2748C23.7522 54.5312 21.5925 54.1891 20.7153 52.583C20.0059 51.2842 18.4062 50.7644 17.0687 51.398C15.4148 52.1818 13.4668 51.189 13.1288 49.3902C12.8553 47.9358 11.4948 46.9475 10.0269 47.1366C8.21196 47.3708 6.66597 45.8247 6.90017 44.0097C7.08924 42.5417 6.101 41.1811 4.64661 40.9076C2.84792 40.5696 1.85517 38.6214 2.639 36.967C3.27256 35.6299 2.75271 34.0301 1.454 33.3207C-0.152001 32.443 -0.494045 30.2836 0.762241 28.9528C1.77801 27.8765 1.77801 26.1946 0.762241 25.1183C-0.494045 23.7875 -0.152001 21.6281 1.454 20.7504C2.75271 20.041 3.27256 18.4412 2.639 17.1041C1.85517 15.4497 2.84792 13.5015 4.64661 13.1635C6.101 12.89 7.08924 11.5294 6.90017 10.0614C6.66597 8.24639 8.21196 6.70033 10.0269 6.93454C11.4948 7.12407 12.8553 6.13532 13.1288 4.68086C13.4668 2.88206 15.4148 1.88926 17.0687 2.67312C18.4062 3.30672 20.0059 2.78685 20.7153 1.48807C21.5925 -0.118023 23.7522 -0.460094 25.0829 0.796261C26.1592 1.81253 27.841 1.81253 28.9168 0.796261Z" fill="#DFE1DE"/>
<path d="M6.85254 27.0362C6.85254 38.1629 15.8722 47.1826 26.9978 47.1826C38.1239 47.1826 47.143 38.1629 47.143 27.0362C47.143 15.9096 38.1239 6.88988 26.9978 6.88988C15.8722 6.88988 6.85254 15.9096 6.85254 27.0362Z" fill="#F4F4F4"/>
<path d="M34.768 10.0883C33.2545 9.74035 31.6774 9.55803 30.0565 9.55803C18.443 9.55803 9.03083 18.9708 9.03083 30.5848C9.03083 31.1286 9.05023 31.6702 9.09175 32.2031C8.61929 30.5627 8.36523 28.828 8.36523 27.0355C8.36523 16.7419 16.7089 8.3978 27.0019 8.3978C29.7749 8.3978 32.4039 9.00296 34.768 10.0883Z" fill="#838989"/>
<path d="M45.6361 27.0351C45.6361 37.3287 37.2925 45.6729 26.9994 45.6729C18.4987 45.6729 11.3293 39.9832 9.08924 32.2054V32.2027C9.04772 31.6697 9.02832 31.1282 9.02832 30.5844C9.02832 18.9703 18.4405 9.55759 30.054 9.55759C31.6749 9.55759 33.252 9.73991 34.7655 10.0878C41.1809 13.032 45.6361 19.5141 45.6361 27.0351Z" fill="#ACB0B1"/>
<path d="M21.46 33.7198C25.2478 30.8799 27.306 28.6488 27.306 26.0792C27.306 23.0818 24.8534 21.279 21.7226 21.279C19.6866 21.279 17.5188 22.0453 16.096 23.7353L17.8694 25.854C18.8545 24.7949 20.1243 24.1189 21.7885 24.1189C22.9925 24.1189 24.1531 24.7497 24.1531 26.0792C24.1531 27.9276 21.7673 31.1971 15.79 35.7501L16.424 36.5371H27.4152V33.7198L26.7812 32.9328L21.46 33.7198Z" fill="#838989"/>
<path d="M31.5025 21.8479C30.5066 21.8479 30.0124 22.6855 29.6167 23.1584V22.6859H27.9953L27.3613 28.2452L27.9953 29.0322H29.6167V24.7492C29.8974 24.3809 30.3825 24.0131 31.0205 24.0131C31.71 24.0131 32.1568 24.3155 32.1568 25.1955L31.5223 28.1852L32.1568 29.0322H33.7903V24.5519C33.7903 23.3168 32.868 21.8479 31.5025 21.8479Z" fill="#838989"/>
<path d="M37.378 27.7057C36.4462 27.7057 35.8081 26.9566 35.8081 25.8528C35.8081 24.7625 36.4462 24.0134 37.378 24.0134C37.9141 24.0134 38.5012 24.3157 38.7692 24.7359V26.9828C38.7151 27.0676 38.6474 27.1475 38.5702 27.2215L37.7051 27.2599L37.9064 27.615C37.7331 27.6728 37.5531 27.7057 37.378 27.7057ZM39.7687 19.4817L38.7692 23.5012C38.2841 22.8441 37.595 22.5287 36.8672 22.5287C35.2973 22.5287 34.1357 23.79 34.1357 25.8528C34.1357 27.9815 35.323 29.1904 36.8672 29.1904C37.4655 29.1904 38.007 28.9738 38.4479 28.569L38.711 29.0325H38.7692H39.0192H40.4032V20.2687L39.7687 19.4817Z" fill="#838989"/>
<path d="M15.7934 35.75V33.2256C21.7706 28.6731 23.5219 27.1405 23.5219 25.2921C23.5219 23.9626 22.3618 23.3313 21.1574 23.3313C19.4936 23.3313 18.2233 24.0078 17.2383 25.0669L15.4648 22.9482C16.8881 21.2581 19.0555 20.4914 21.0915 20.4914C24.2227 20.4914 26.6749 22.2947 26.6749 25.2921C26.6749 27.8617 24.6167 30.0928 20.8289 32.9327H26.7845V35.75H15.7934Z" fill="#DFE1DE"/>
<path d="M31.5223 28.2441V24.4074C31.5223 23.5269 31.0756 23.225 30.3865 23.225C29.748 23.225 29.2629 23.5928 28.9822 23.9606V28.2441H27.3613V21.8978H28.9822V22.7124C29.378 22.2395 30.1438 21.7403 31.1397 21.7403C32.5052 21.7403 33.1563 22.5287 33.1563 23.7639V28.2441H31.5223Z" fill="#DFE1DE"/>
<path d="M38.1301 26.1951V23.9482C37.8625 23.5276 37.275 23.2257 36.7389 23.2257C35.807 23.2257 35.169 23.9744 35.169 25.0652C35.169 26.169 35.807 26.9176 36.7389 26.9176C37.275 26.9176 37.8625 26.6157 38.1301 26.1951ZM38.1301 28.2448V27.4303C37.6454 28.0607 36.9816 28.4023 36.2285 28.4023C34.6839 28.4023 33.4971 27.1938 33.4971 25.0652C33.4971 23.0024 34.6586 21.741 36.2285 21.741C36.9559 21.741 37.6454 22.056 38.1301 22.7131V19.481H39.7641V28.2448H38.1301Z" fill="#DFE1DE"/>
<path d="M8.73896 12.6788C8.25747 15.5394 7.02104 17.2272 5.16504 17.952C7.02104 18.6767 8.25747 20.3649 8.73896 23.2256C9.22089 20.3649 10.4569 18.6767 12.3129 17.952C10.4569 17.2272 9.22089 15.5394 8.73896 12.6788Z" fill="white"/>
<path d="M13.8473 9.82002C13.586 11.3715 12.9159 12.2867 11.9092 12.6798C12.9159 13.0728 13.586 13.988 13.8473 15.5391C14.1086 13.988 14.7787 13.0728 15.7854 12.6798C14.7787 12.2867 14.1086 11.3715 13.8473 9.82002Z" fill="white"/>
</svg>
