<svg width="54" height="73" viewBox="0 0 54 73" fill="none" xmlns="http://www.w3.org/2000/svg">
<path d="M36.8806 44.4571V52.6049C36.6748 52.5602 36.4668 52.5386 36.2606 52.5386C35.211 52.5386 34.1993 53.0995 33.6645 54.0779C33.1171 55.0802 32.0987 55.6172 31.0658 55.6172C30.3465 55.6172 29.6199 55.3564 29.0414 54.8103C28.472 54.2728 27.7423 54.0039 27.0126 54.0039C26.2825 54.0039 25.5528 54.2728 24.9833 54.8103C24.4048 55.3564 23.6783 55.6172 22.959 55.6172C21.9261 55.6172 20.9076 55.0802 20.3603 54.0779C19.8255 53.0995 18.8138 52.5386 17.7642 52.5386C17.4 52.5386 17.0309 52.6063 16.6758 52.748V44.4571H36.8806Z" fill="#D11C29"/>
<path d="M36.8806 52.6056V72.9668L26.7297 63.6804L16.6758 72.4979V52.7487C17.0309 52.607 17.4 52.5393 17.7642 52.5393C18.8138 52.5393 19.8255 53.1002 20.3603 54.0786C20.9076 55.0809 21.9261 55.6179 22.959 55.6179C23.6783 55.6179 24.4048 55.3571 24.9833 54.811C25.5528 54.2735 26.2825 54.0046 27.0126 54.0046C27.7423 54.0046 28.472 54.2735 29.0414 54.811C29.6199 55.3571 30.3465 55.6179 31.0658 55.6179C32.0987 55.6179 33.1171 55.0809 33.6645 54.0786C34.1993 53.1002 35.211 52.5393 36.2606 52.5393C36.4668 52.5393 36.6748 52.5609 36.8806 52.6056Z" fill="#E83136"/>
<path d="M28.9168 0.798214C30.2479 -0.458141 32.4072 -0.11607 33.2849 1.49002C33.9942 2.7888 35.5935 3.30867 36.931 2.67508C38.5848 1.89121 40.5329 2.88402 40.8713 4.68281C41.1448 6.13728 42.5053 7.12603 43.9728 6.93649H43.9732C45.7882 6.70228 47.3342 8.24834 47.1 10.0634C46.9104 11.5314 47.8991 12.892 49.3535 13.1655C51.1522 13.5035 52.145 15.4516 51.3611 17.106C50.7276 18.4432 51.247 20.0429 52.5457 20.7523C54.1521 21.6301 54.4942 23.7894 53.2374 25.1202C52.2217 26.1965 52.2217 27.8785 53.2374 28.9548C54.4942 30.2856 54.1521 32.4449 52.5457 33.3227C51.247 34.0321 50.7276 35.6318 51.3611 36.969C52.145 38.6234 51.1522 40.5715 49.3535 40.9095C47.8991 41.183 46.9104 42.5436 47.1 44.0116C47.3342 45.8266 45.7882 47.3727 43.9732 47.1385H43.9728C42.5053 46.9494 41.1448 47.9377 40.8713 49.3922C40.5329 51.191 38.5848 52.1838 36.931 51.3999C35.5935 50.7663 33.9942 51.2862 33.2849 52.585C32.4072 54.1911 30.2479 54.5331 28.9168 53.2768C27.841 52.2605 26.1592 52.2605 25.0829 53.2768C23.7522 54.5331 21.5925 54.1911 20.7153 52.585C20.0059 51.2862 18.4062 50.7663 17.0687 51.3999C15.4148 52.1838 13.4668 51.191 13.1288 49.3922C12.8553 47.9377 11.4948 46.9494 10.0269 47.1385C8.21196 47.3727 6.66597 45.8266 6.90017 44.0116C7.08924 42.5436 6.101 41.183 4.64661 40.9095C2.84792 40.5715 1.85517 38.6234 2.639 36.969C3.27256 35.6318 2.75271 34.0321 1.454 33.3227C-0.152001 32.4449 -0.494045 30.2856 0.762241 28.9548C1.77801 27.8785 1.77801 26.1965 0.762241 25.1202C-0.494045 23.7894 -0.152001 21.6301 1.454 20.7523C2.75271 20.0429 3.27256 18.4432 2.639 17.106C1.85517 15.4516 2.84792 13.5035 4.64661 13.1655C6.101 12.892 7.08924 11.5314 6.90017 10.0634C6.66597 8.24834 8.21196 6.70228 10.0269 6.93649C11.4948 7.12603 12.8553 6.13728 13.1288 4.68281C13.4668 2.88402 15.4148 1.89121 17.0687 2.67508C18.4062 3.30867 20.0059 2.7888 20.7153 1.49002C21.5925 -0.11607 23.7522 -0.458141 25.0829 0.798214C26.1592 1.81449 27.841 1.81449 28.9168 0.798214Z" fill="#DFE1DE"/>
<path d="M6.85254 27.0372C6.85254 38.1639 15.8722 47.1836 26.9978 47.1836C38.1239 47.1836 47.143 38.1639 47.143 27.0372C47.143 15.9105 38.1239 6.89086 26.9978 6.89086C15.8722 6.89086 6.85254 15.9105 6.85254 27.0372Z" fill="#F4F4F4"/>
<path d="M34.768 10.0902C33.2545 9.7423 31.6774 9.55999 30.0565 9.55999C18.443 9.55999 9.03083 18.9727 9.03083 30.5868C9.03083 31.1306 9.05023 31.6721 9.09175 32.2051C8.61929 30.5647 8.36523 28.83 8.36523 27.0375C8.36523 16.7439 16.7089 8.39976 27.0019 8.39976C29.7749 8.39976 32.4039 9.00492 34.768 10.0902Z" fill="#838989"/>
<path d="M45.6361 27.038C45.6361 37.3317 37.2925 45.6758 26.9994 45.6758C18.4987 45.6758 11.3293 39.9861 9.08924 32.2083V32.2056C9.04772 31.6727 9.02832 31.1311 9.02832 30.5873C9.02832 18.9733 18.4405 9.56052 30.054 9.56052C31.6749 9.56052 33.252 9.74284 34.7655 10.0908C41.1809 13.0349 45.6361 19.517 45.6361 27.038Z" fill="#ACB0B1"/>
<path d="M21.46 33.7217C25.2478 30.8819 27.306 28.6507 27.306 26.0812C27.306 23.0838 24.8534 21.2809 21.7226 21.2809C19.6866 21.2809 17.5188 22.0472 16.096 23.7372L17.8694 25.856C18.8545 24.7968 20.1243 24.1208 21.7885 24.1208C22.9925 24.1208 24.1531 24.7517 24.1531 26.0812C24.1531 27.9296 21.7673 31.1991 15.79 35.752L16.424 36.5391H27.4152V33.7217L26.7812 32.9347L21.46 33.7217Z" fill="#838989"/>
<path d="M31.5025 21.8508C30.5066 21.8508 30.0124 22.6884 29.6167 23.1613V22.6888H27.9953L27.3613 28.2481L27.9953 29.0352H29.6167V24.7521C29.8974 24.3838 30.3825 24.0161 31.0205 24.0161C31.71 24.0161 32.1568 24.3184 32.1568 25.1984L31.5223 28.1881L32.1568 29.0352H33.7903V24.5549C33.7903 23.3197 32.868 21.8508 31.5025 21.8508Z" fill="#838989"/>
<path d="M37.378 27.7067C36.4462 27.7067 35.8081 26.9576 35.8081 25.8538C35.8081 24.7635 36.4462 24.0144 37.378 24.0144C37.9141 24.0144 38.5012 24.3167 38.7692 24.7369V26.9838C38.7151 27.0686 38.6474 27.1485 38.5702 27.2225L37.7051 27.2608L37.9064 27.616C37.7331 27.6738 37.5531 27.7067 37.378 27.7067ZM39.7687 19.4826L38.7692 23.5022C38.2841 22.8451 37.595 22.5297 36.8672 22.5297C35.2973 22.5297 34.1357 23.791 34.1357 25.8538C34.1357 27.9824 35.323 29.1914 36.8672 29.1914C37.4655 29.1914 38.007 28.9748 38.4479 28.57L38.711 29.0335H38.7692H39.0192H40.4032V20.2697L39.7687 19.4826Z" fill="#838989"/>
<path d="M15.7934 35.752V33.2275C21.7706 28.675 23.5219 27.1425 23.5219 25.2941C23.5219 23.9646 22.3618 23.3333 21.1574 23.3333C19.4936 23.3333 18.2233 24.0097 17.2383 25.0689L15.4648 22.9501C16.8881 21.2601 19.0555 20.4934 21.0915 20.4934C24.2227 20.4934 26.6749 22.2967 26.6749 25.2941C26.6749 27.8636 24.6167 30.0947 20.8289 32.9346H26.7845V35.752H15.7934Z" fill="#DFE1DE"/>
<path d="M31.5223 28.2461V24.4093C31.5223 23.5289 31.0756 23.227 30.3865 23.227C29.748 23.227 29.2629 23.5948 28.9822 23.9626V28.2461H27.3613V21.8998H28.9822V22.7143C29.378 22.2414 30.1438 21.7423 31.1397 21.7423C32.5052 21.7423 33.1563 22.5307 33.1563 23.7658V28.2461H31.5223Z" fill="#DFE1DE"/>
<path d="M38.1301 26.1971V23.9502C37.8625 23.5296 37.275 23.2277 36.7389 23.2277C35.807 23.2277 35.169 23.9764 35.169 25.0671C35.169 26.1709 35.807 26.9196 36.7389 26.9196C37.275 26.9196 37.8625 26.6177 38.1301 26.1971ZM38.1301 28.2468V27.4322C37.6454 28.0627 36.9816 28.4043 36.2285 28.4043C34.6839 28.4043 33.4971 27.1958 33.4971 25.0671C33.4971 23.0043 34.6586 21.743 36.2285 21.743C36.9559 21.743 37.6454 22.058 38.1301 22.7151V19.483H39.7641V28.2468H38.1301Z" fill="#DFE1DE"/>
<path d="M8.73896 12.6817C8.25747 15.5424 7.02104 17.2301 5.16504 17.9549C7.02104 18.6796 8.25747 20.3679 8.73896 23.2285C9.22089 20.3679 10.4569 18.6796 12.3129 17.9549C10.4569 17.2301 9.22089 15.5424 8.73896 12.6817Z" fill="white"/>
<path d="M13.8473 9.82198C13.586 11.3735 12.9159 12.2887 11.9092 12.6817C12.9159 13.0748 13.586 13.99 13.8473 15.541C14.1086 13.99 14.7787 13.0748 15.7854 12.6817C14.7787 12.2887 14.1086 11.3735 13.8473 9.82198Z" fill="white"/>
</svg>
