<svg width="60" height="60" viewBox="0 0 60 60" fill="none" xmlns="http://www.w3.org/2000/svg">
<rect width="60" height="60" rx="30" fill="#F5F8FD"/>
<mask id="mask0_2170_23739" style="mask-type:alpha" maskUnits="userSpaceOnUse" x="8" y="8" width="44" height="44">
<path fill-rule="evenodd" clip-rule="evenodd" d="M30 8.33331C18.04 8.33331 8.33331 18.04 8.33331 30C8.33331 41.96 18.04 51.6666 30 51.6666C41.96 51.6666 51.6666 41.96 51.6666 30C51.6666 18.04 41.96 8.33331 30 8.33331ZM27.8333 19.1666V23.5H32.1666V19.1666H27.8333ZM32.1666 38.6666C32.1666 39.8583 31.1916 40.8333 30 40.8333C28.8083 40.8333 27.8333 39.8583 27.8333 38.6666V30C27.8333 28.8083 28.8083 27.8333 30 27.8333C31.1916 27.8333 32.1666 28.8083 32.1666 30V38.6666ZM12.6666 30C12.6666 39.555 20.445 47.3333 30 47.3333C39.555 47.3333 47.3333 39.555 47.3333 30C47.3333 20.445 39.555 12.6666 30 12.6666C20.445 12.6666 12.6666 20.445 12.6666 30Z" fill="black"/>
</mask>
<g mask="url(#mask0_2170_23739)">
<rect x="4" y="4" width="52" height="52" fill="#006FD4"/>
</g>
</svg>
