<svg width="32" height="32" viewBox="0 0 32 32" fill="none" xmlns="http://www.w3.org/2000/svg">
<rect width="32" height="32" rx="8" fill="#E3F6E9"/>
<mask id="mask0_2173_18915" style="mask-type:alpha" maskUnits="userSpaceOnUse" x="8" y="6" width="16" height="20">
<path fill-rule="evenodd" clip-rule="evenodd" d="M18.59 6.59C18.21 6.21 17.7 6 17.17 6H10C8.9 6 8 6.9 8 8V24C8 25.1 8.89 26 9.99 26H22C23.1 26 24 25.1 24 24V12.83C24 12.3 23.79 11.79 23.41 11.42L18.59 6.59ZM20 19C20 19.55 19.55 20 19 20H17V22C17 22.55 16.55 23 16 23C15.45 23 15 22.55 15 22V20H13C12.45 20 12 19.55 12 19C12 18.45 12.45 18 13 18H15V16C15 15.45 15.45 15 16 15C16.55 15 17 15.45 17 16V18H19C19.55 18 20 18.45 20 19ZM17 7.5V12C17 12.55 17.45 13 18 13H22.5L17 7.5Z" fill="black"/>
</mask>
<g mask="url(#mask0_2173_18915)">
<rect x="4" y="4" width="24" height="24" fill="#229945"/>
</g>
</svg>
