<svg width="32" height="32" viewBox="0 0 32 32" fill="none" xmlns="http://www.w3.org/2000/svg">
<rect width="32" height="32" rx="8" fill="#EAF5FF"/>
<mask id="mask0_2173_18909" style="mask-type:alpha" maskUnits="userSpaceOnUse" x="8" y="6" width="16" height="20">
<path fill-rule="evenodd" clip-rule="evenodd" d="M17.17 6C17.7 6 18.21 6.21 18.59 6.59L23.41 11.42C23.79 11.79 24 12.3 24 12.83V24C24 25.1 23.1 26 22 26H9.99C8.89 26 8 25.1 8 24V8C8 6.9 8.9 6 10 6H17.17ZM13 22H19C19.55 22 20 21.55 20 21C20 20.45 19.55 20 19 20H13C12.45 20 12 20.45 12 21C12 21.55 12.45 22 13 22ZM19 18H13C12.45 18 12 17.55 12 17C12 16.45 12.45 16 13 16H19C19.55 16 20 16.45 20 17C20 17.55 19.55 18 19 18ZM17 7.5V12C17 12.55 17.45 13 18 13H22.5L17 7.5Z" fill="black"/>
</mask>
<g mask="url(#mask0_2173_18909)">
<rect x="4" y="4" width="24" height="24" fill="#0085FF"/>
</g>
</svg>
