<svg width="126" height="125" viewBox="0 0 126 125" fill="none" xmlns="http://www.w3.org/2000/svg">
<mask id="mask0_4130_4171" style="mask-type:alpha" maskUnits="userSpaceOnUse" x="16" y="15" width="94" height="95">
<path fill-rule="evenodd" clip-rule="evenodd" d="M109.875 26.0417V98.9583C109.875 104.688 105.188 109.375 99.4583 109.375H26.5417C20.8125 109.375 16.125 104.688 16.125 98.9583V26.0417C16.125 20.3125 20.8125 15.625 26.5417 15.625H99.4583C105.188 15.625 109.875 20.3125 109.875 26.0417ZM57.7917 85.9896L46.8542 72.8125C45.7604 71.5104 43.7812 71.5625 42.7917 72.9167L29.8229 89.5833C28.4687 91.3021 29.6667 93.8021 31.8542 93.8021H94.3021C96.4375 93.8021 97.6875 91.3542 96.3854 89.6354L78.1042 65.2604C77.0625 63.8542 74.9792 63.8542 73.9375 65.2083L57.7917 85.9896Z" fill="black"/>
</mask>
<g mask="url(#mask0_4130_4171)">
<rect x="0.5" width="125" height="125" fill="#CCE7FF"/>
</g>
</svg>
