<svg width="22" height="17" viewBox="0 0 22 17" fill="none" xmlns="http://www.w3.org/2000/svg">
<path d="M0 13.7483C0 13.1817 0.145833 12.6608 0.4375 12.1858C0.729167 11.7108 1.11667 11.3483 1.6 11.0983C2.63333 10.5817 3.68333 10.1942 4.75 9.93584C5.81667 9.67751 6.9 9.54834 8 9.54834C9.1 9.54834 10.1833 9.67751 11.25 9.93584C12.3167 10.1942 13.3667 10.5817 14.4 11.0983C14.8833 11.3483 15.2708 11.7108 15.5625 12.1858C15.8542 12.6608 16 13.1817 16 13.7483V14.5483C16 15.0983 15.8042 15.5692 15.4125 15.9608C15.0208 16.3525 14.55 16.5483 14 16.5483H2C1.45 16.5483 0.979167 16.3525 0.5875 15.9608C0.195833 15.5692 0 15.0983 0 14.5483V13.7483ZM20 16.5483H17.45C17.6333 16.2483 17.7708 15.9275 17.8625 15.5858C17.9542 15.2442 18 14.8983 18 14.5483V13.5483C18 12.815 17.7958 12.1108 17.3875 11.4358C16.9792 10.7608 16.4 10.1817 15.65 9.69834C16.5 9.79834 17.3 9.96917 18.05 10.2108C18.8 10.4525 19.5 10.7483 20.15 11.0983C20.75 11.4317 21.2083 11.8025 21.525 12.2108C21.8417 12.6192 22 13.065 22 13.5483V14.5483C22 15.0983 21.8042 15.5692 21.4125 15.9608C21.0208 16.3525 20.55 16.5483 20 16.5483ZM8 8.54834C6.9 8.54834 5.95833 8.15667 5.175 7.37334C4.39167 6.59001 4 5.64834 4 4.54834C4 3.44834 4.39167 2.50667 5.175 1.72334C5.95833 0.940007 6.9 0.54834 8 0.54834C9.1 0.54834 10.0417 0.940007 10.825 1.72334C11.6083 2.50667 12 3.44834 12 4.54834C12 5.64834 11.6083 6.59001 10.825 7.37334C10.0417 8.15667 9.1 8.54834 8 8.54834ZM18 4.54834C18 5.64834 17.6083 6.59001 16.825 7.37334C16.0417 8.15667 15.1 8.54834 14 8.54834C13.8167 8.54834 13.5833 8.52751 13.3 8.48584C13.0167 8.44417 12.7833 8.39834 12.6 8.34834C13.05 7.81501 13.3958 7.22334 13.6375 6.57334C13.8792 5.92334 14 5.24834 14 4.54834C14 3.84834 13.8792 3.17334 13.6375 2.52334C13.3958 1.87334 13.05 1.28167 12.6 0.74834C12.8333 0.665007 13.0667 0.61084 13.3 0.58584C13.5333 0.56084 13.7667 0.54834 14 0.54834C15.1 0.54834 16.0417 0.940007 16.825 1.72334C17.6083 2.50667 18 3.44834 18 4.54834ZM2 14.5483H14V13.7483C14 13.565 13.9542 13.3983 13.8625 13.2483C13.7708 13.0983 13.65 12.9817 13.5 12.8983C12.6 12.4483 11.6917 12.1108 10.775 11.8858C9.85833 11.6608 8.93333 11.5483 8 11.5483C7.06667 11.5483 6.14167 11.6608 5.225 11.8858C4.30833 12.1108 3.4 12.4483 2.5 12.8983C2.35 12.9817 2.22917 13.0983 2.1375 13.2483C2.04583 13.3983 2 13.565 2 13.7483V14.5483ZM8 6.54834C8.55 6.54834 9.02083 6.35251 9.4125 5.96084C9.80417 5.56917 10 5.09834 10 4.54834C10 3.99834 9.80417 3.52751 9.4125 3.13584C9.02083 2.74417 8.55 2.54834 8 2.54834C7.45 2.54834 6.97917 2.74417 6.5875 3.13584C6.19583 3.52751 6 3.99834 6 4.54834C6 5.09834 6.19583 5.56917 6.5875 5.96084C6.97917 6.35251 7.45 6.54834 8 6.54834Z" fill="#636363"/>
</svg>
