<svg width="32" height="32" viewBox="0 0 32 32" fill="none" xmlns="http://www.w3.org/2000/svg">
<rect width="32" height="32" rx="8" fill="#EAF5FF"/>
<mask id="mask0_1315_23215" style="mask-type:alpha" maskUnits="userSpaceOnUse" x="4" y="3" width="25" height="25">
<rect x="4.29297" y="3.56445" width="24" height="24" fill="#D9D9D9"/>
</mask>
<g mask="url(#mask0_1315_23215)">
<path d="M22.293 14.5645H20.293C20.0096 14.5645 19.7721 14.4686 19.5805 14.277C19.3888 14.0853 19.293 13.8478 19.293 13.5645C19.293 13.2811 19.3888 13.0436 19.5805 12.852C19.7721 12.6603 20.0096 12.5645 20.293 12.5645H22.293V10.5645C22.293 10.2811 22.3888 10.0436 22.5805 9.85195C22.7721 9.66029 23.0096 9.56445 23.293 9.56445C23.5763 9.56445 23.8138 9.66029 24.0055 9.85195C24.1971 10.0436 24.293 10.2811 24.293 10.5645V12.5645H26.293C26.5763 12.5645 26.8138 12.6603 27.0055 12.852C27.1971 13.0436 27.293 13.2811 27.293 13.5645C27.293 13.8478 27.1971 14.0853 27.0055 14.277C26.8138 14.4686 26.5763 14.5645 26.293 14.5645H24.293V16.5645C24.293 16.8478 24.1971 17.0853 24.0055 17.277C23.8138 17.4686 23.5763 17.5645 23.293 17.5645C23.0096 17.5645 22.7721 17.4686 22.5805 17.277C22.3888 17.0853 22.293 16.8478 22.293 16.5645V14.5645ZM13.293 15.5645C12.193 15.5645 11.2513 15.1728 10.468 14.3895C9.68464 13.6061 9.29297 12.6645 9.29297 11.5645C9.29297 10.4645 9.68464 9.52279 10.468 8.73945C11.2513 7.95612 12.193 7.56445 13.293 7.56445C14.393 7.56445 15.3346 7.95612 16.118 8.73945C16.9013 9.52279 17.293 10.4645 17.293 11.5645C17.293 12.6645 16.9013 13.6061 16.118 14.3895C15.3346 15.1728 14.393 15.5645 13.293 15.5645ZM5.29297 21.5645V20.7645C5.29297 20.1978 5.4388 19.677 5.73047 19.202C6.02214 18.727 6.40964 18.3645 6.89297 18.1145C7.9263 17.5978 8.9763 17.2103 10.043 16.952C11.1096 16.6936 12.193 16.5645 13.293 16.5645C14.393 16.5645 15.4763 16.6936 16.543 16.952C17.6096 17.2103 18.6596 17.5978 19.693 18.1145C20.1763 18.3645 20.5638 18.727 20.8555 19.202C21.1471 19.677 21.293 20.1978 21.293 20.7645V21.5645C21.293 22.1145 21.0971 22.5853 20.7055 22.977C20.3138 23.3686 19.843 23.5645 19.293 23.5645H7.29297C6.74297 23.5645 6.27214 23.3686 5.88047 22.977C5.4888 22.5853 5.29297 22.1145 5.29297 21.5645Z" fill="#0085FF"/>
</g>
</svg>
