<svg width="32" height="32" viewBox="0 0 32 32" fill="none" xmlns="http://www.w3.org/2000/svg">
<rect width="32" height="32" rx="8" fill="#E3F6E9"/>
<mask id="mask0_1315_23223" style="mask-type:alpha" maskUnits="userSpaceOnUse" x="3" y="4" width="25" height="25">
<rect x="3.52344" y="4.31152" width="24" height="24" fill="#D9D9D9"/>
</mask>
<g mask="url(#mask0_1315_23223)">
<path d="M12.9234 23.8615C12.6234 23.3115 12.3609 22.7407 12.1359 22.149C11.9109 21.5574 11.7234 20.9449 11.5734 20.3115H8.62344C9.10677 21.1449 9.71094 21.8699 10.4359 22.4865C11.1609 23.1032 11.9901 23.5615 12.9234 23.8615ZM7.77344 18.3115H11.1734C11.1234 17.9782 11.0859 17.649 11.0609 17.324C11.0359 16.999 11.0234 16.6615 11.0234 16.3115C11.0234 15.9615 11.0359 15.624 11.0609 15.299C11.0859 14.974 11.1234 14.6449 11.1734 14.3115H7.77344C7.6901 14.6449 7.6276 14.974 7.58594 15.299C7.54427 15.624 7.52344 15.9615 7.52344 16.3115C7.52344 16.6615 7.54427 16.999 7.58594 17.324C7.6276 17.649 7.6901 17.9782 7.77344 18.3115ZM8.62344 12.3115H11.5734C11.7234 11.6782 11.9109 11.0657 12.1359 10.474C12.3609 9.88236 12.6234 9.31152 12.9234 8.76152C11.9901 9.06152 11.1609 9.51986 10.4359 10.1365C9.71094 10.7532 9.10677 11.4782 8.62344 12.3115ZM13.6234 12.3115H17.4234C17.2234 11.5782 16.9651 10.8865 16.6484 10.2365C16.3318 9.58652 15.9568 8.96152 15.5234 8.36152C15.0901 8.96152 14.7151 9.58652 14.3984 10.2365C14.0818 10.8865 13.8234 11.5782 13.6234 12.3115ZM19.4734 12.3115H22.4234C21.9401 11.4782 21.3359 10.7532 20.6109 10.1365C19.8859 9.51986 19.0568 9.06152 18.1234 8.76152C18.4234 9.31152 18.6859 9.88236 18.9109 10.474C19.1359 11.0657 19.3234 11.6782 19.4734 12.3115ZM15.5234 26.3115C14.1568 26.3115 12.8651 26.049 11.6484 25.524C10.4318 24.999 9.36927 24.2824 8.46094 23.374C7.5526 22.4657 6.83594 21.4032 6.31094 20.1865C5.78594 18.9699 5.52344 17.6782 5.52344 16.3115C5.52344 14.9282 5.78594 13.6324 6.31094 12.424C6.83594 11.2157 7.5526 10.1574 8.46094 9.24902C9.36927 8.34069 10.4318 7.62402 11.6484 7.09902C12.8651 6.57402 14.1568 6.31152 15.5234 6.31152C16.9068 6.31152 18.2026 6.57402 19.4109 7.09902C20.6193 7.62402 21.6776 8.34069 22.5859 9.24902C23.4943 10.1574 24.2109 11.2157 24.7359 12.424C25.2609 13.6324 25.5234 14.9282 25.5234 16.3115C25.5234 16.4782 25.5193 16.6449 25.5109 16.8115C25.5026 16.9782 25.4901 17.1449 25.4734 17.3115H23.4484C23.4818 17.1449 23.5026 16.9824 23.5109 16.824C23.5193 16.6657 23.5234 16.4949 23.5234 16.3115C23.5234 15.9615 23.5026 15.624 23.4609 15.299C23.4193 14.974 23.3568 14.6449 23.2734 14.3115H19.8734C19.9234 14.6449 19.9609 14.974 19.9859 15.299C20.0109 15.624 20.0234 15.9615 20.0234 16.3115V16.824C20.0234 16.9824 20.0151 17.1449 19.9984 17.3115H17.9984C18.0151 17.1449 18.0234 16.9824 18.0234 16.824V16.3115C18.0234 15.9615 18.0109 15.624 17.9859 15.299C17.9609 14.974 17.9234 14.6449 17.8734 14.3115H13.1734C13.1234 14.6449 13.0859 14.974 13.0609 15.299C13.0359 15.624 13.0234 15.9615 13.0234 16.3115C13.0234 16.6615 13.0359 16.999 13.0609 17.324C13.0859 17.649 13.1234 17.9782 13.1734 18.3115H16.5234V20.3115H13.6234C13.8234 21.0449 14.0818 21.7365 14.3984 22.3865C14.7151 23.0365 15.0901 23.6615 15.5234 24.2615C15.7068 23.9949 15.8818 23.724 16.0484 23.449C16.2151 23.174 16.3734 22.8949 16.5234 22.6115V26.2615C16.3568 26.2782 16.1943 26.2907 16.0359 26.299C15.8776 26.3074 15.7068 26.3115 15.5234 26.3115ZM20.5234 22.7365V23.9615C20.5234 24.2449 20.4276 24.4824 20.2359 24.674C20.0443 24.8657 19.8068 24.9615 19.5234 24.9615C19.2401 24.9615 19.0026 24.8657 18.8109 24.674C18.6193 24.4824 18.5234 24.2449 18.5234 23.9615V20.3115C18.5234 20.0282 18.6193 19.7907 18.8109 19.599C19.0026 19.4074 19.2401 19.3115 19.5234 19.3115H23.1734C23.4568 19.3115 23.6943 19.4074 23.8859 19.599C24.0776 19.7907 24.1734 20.0282 24.1734 20.3115C24.1734 20.5949 24.0776 20.8324 23.8859 21.024C23.6943 21.2157 23.4568 21.3115 23.1734 21.3115H21.9234L24.1734 23.5615C24.3568 23.7449 24.4484 23.974 24.4484 24.249C24.4484 24.524 24.3568 24.7615 24.1734 24.9615C23.9734 25.1615 23.7359 25.2615 23.4609 25.2615C23.1859 25.2615 22.9484 25.1615 22.7484 24.9615L20.5234 22.7365Z" fill="#229945"/>
</g>
</svg>
