<svg width="32" height="32" viewBox="0 0 32 32" fill="none" xmlns="http://www.w3.org/2000/svg">
<rect width="32" height="32" rx="8" fill="#FFDFD7"/>
<mask id="mask0_1315_23231" style="mask-type:alpha" maskUnits="userSpaceOnUse" x="5" y="6" width="21" height="20">
<rect x="5.5" y="6" width="20" height="20" fill="#D9D9D9"/>
</mask>
<g mask="url(#mask0_1315_23231)">
<path d="M22.5615 25.417L19.6657 22.5212V22.667H6.33236V20.3337C6.33236 19.8614 6.45388 19.4274 6.69694 19.0316C6.94 18.6357 7.26291 18.3337 7.66569 18.1253C8.5268 17.6948 9.4018 17.3719 10.2907 17.1566C11.1796 16.9413 12.0824 16.8337 12.999 16.8337C13.1657 16.8337 13.3358 16.8371 13.5094 16.8441C13.6831 16.851 13.8532 16.8614 14.0199 16.8753L13.1449 16.0003H12.999C12.0824 16.0003 11.2976 15.6739 10.6449 15.0212C9.99208 14.3684 9.66569 13.5837 9.66569 12.667V12.5212L6.06152 8.91699L7.24902 7.72949L23.749 24.2295L22.5615 25.417ZM19.374 16.9587C20.0824 17.042 20.749 17.1844 21.374 17.3857C21.999 17.5871 22.5824 17.8337 23.124 18.1253C23.624 18.4031 24.006 18.7121 24.2699 19.0524C24.5337 19.3927 24.6657 19.7642 24.6657 20.167V22.667H24.5615L21.2282 19.3337C21.1032 18.8753 20.8844 18.4413 20.5719 18.0316C20.2594 17.6219 19.8601 17.2642 19.374 16.9587ZM17.2074 15.3128C17.4712 14.9239 17.6692 14.5073 17.8011 14.0628C17.9331 13.6184 17.999 13.1531 17.999 12.667C17.999 12.0837 17.8983 11.5212 17.6969 10.9795C17.4956 10.4378 17.2074 9.94477 16.8324 9.50033C17.0268 9.43088 17.2212 9.38574 17.4157 9.36491C17.6101 9.34408 17.8046 9.33366 17.999 9.33366C18.9157 9.33366 19.7004 9.66005 20.3532 10.3128C21.006 10.9656 21.3324 11.7503 21.3324 12.667C21.3324 13.5837 20.9886 14.3684 20.3011 15.0212C19.6136 15.6739 18.8115 16.0003 17.8949 16.0003L17.2074 15.3128ZM15.999 14.1045L11.5615 9.66699C11.7837 9.55588 12.0129 9.47255 12.249 9.41699C12.4851 9.36144 12.7351 9.33366 12.999 9.33366C13.9157 9.33366 14.7004 9.66005 15.3532 10.3128C16.006 10.9656 16.3324 11.7503 16.3324 12.667C16.3324 12.9309 16.3046 13.1809 16.249 13.417C16.1935 13.6531 16.1101 13.8823 15.999 14.1045Z" fill="#D54E2D"/>
</g>
</svg>
