<svg width="32" height="32" viewBox="0 0 32 32" fill="none" xmlns="http://www.w3.org/2000/svg">
<rect width="32" height="32" rx="8" fill="#CCE7FF"/>
<mask id="mask0_3613_57111" style="mask-type:alpha" maskUnits="userSpaceOnUse" x="4" y="4" width="24" height="24">
<rect x="4" y="4" width="24" height="24" fill="#D9D9D9"/>
</mask>
<g mask="url(#mask0_3613_57111)">
<path d="M13 22H19C19.2833 22 19.5208 21.9042 19.7125 21.7125C19.9042 21.5208 20 21.2833 20 21C20 20.7167 19.9042 20.4792 19.7125 20.2875C19.5208 20.0958 19.2833 20 19 20H13C12.7167 20 12.4792 20.0958 12.2875 20.2875C12.0958 20.4792 12 20.7167 12 21C12 21.2833 12.0958 21.5208 12.2875 21.7125C12.4792 21.9042 12.7167 22 13 22ZM13 18H19C19.2833 18 19.5208 17.9042 19.7125 17.7125C19.9042 17.5208 20 17.2833 20 17C20 16.7167 19.9042 16.4792 19.7125 16.2875C19.5208 16.0958 19.2833 16 19 16H13C12.7167 16 12.4792 16.0958 12.2875 16.2875C12.0958 16.4792 12 16.7167 12 17C12 17.2833 12.0958 17.5208 12.2875 17.7125C12.4792 17.9042 12.7167 18 13 18ZM10 26C9.45 26 8.97917 25.8042 8.5875 25.4125C8.19583 25.0208 8 24.55 8 24V8C8 7.45 8.19583 6.97917 8.5875 6.5875C8.97917 6.19583 9.45 6 10 6H17.175C17.4417 6 17.6958 6.05 17.9375 6.15C18.1792 6.25 18.3917 6.39167 18.575 6.575L23.425 11.425C23.6083 11.6083 23.75 11.8208 23.85 12.0625C23.95 12.3042 24 12.5583 24 12.825V24C24 24.55 23.8042 25.0208 23.4125 25.4125C23.0208 25.8042 22.55 26 22 26H10ZM17 12V8H10V24H22V13H18C17.7167 13 17.4792 12.9042 17.2875 12.7125C17.0958 12.5208 17 12.2833 17 12Z" fill="#0059AA"/>
</g>
</svg>
