<svg width="32" height="32" viewBox="0 0 32 32" fill="none" xmlns="http://www.w3.org/2000/svg">
<rect width="32" height="32" rx="8" fill="#FFDFD7"/>
<mask id="mask0_1631_16268" style="mask-type:alpha" maskUnits="userSpaceOnUse" x="4" y="4" width="24" height="24">
<rect x="4" y="4" width="24" height="24" fill="#D9D9D9"/>
</mask>
<g mask="url(#mask0_1631_16268)">
<path d="M17.5 26C15.7 26 14.1667 25.3667 12.9 24.1C11.6333 22.8333 11 21.3 11 19.5V18.925C9.56667 18.6917 8.375 18.0208 7.425 16.9125C6.475 15.8042 6 14.5 6 13V8C6 7.71667 6.09583 7.47917 6.2875 7.2875C6.47917 7.09583 6.71667 7 7 7H9C9 6.71667 9.09583 6.47917 9.2875 6.2875C9.47917 6.09583 9.71667 6 10 6C10.2833 6 10.5208 6.09583 10.7125 6.2875C10.9042 6.47917 11 6.71667 11 7V9C11 9.28333 10.9042 9.52083 10.7125 9.7125C10.5208 9.90417 10.2833 10 10 10C9.71667 10 9.47917 9.90417 9.2875 9.7125C9.09583 9.52083 9 9.28333 9 9H8V13C8 14.1 8.39167 15.0417 9.175 15.825C9.95833 16.6083 10.9 17 12 17C13.1 17 14.0417 16.6083 14.825 15.825C15.6083 15.0417 16 14.1 16 13V9H15C15 9.28333 14.9042 9.52083 14.7125 9.7125C14.5208 9.90417 14.2833 10 14 10C13.7167 10 13.4792 9.90417 13.2875 9.7125C13.0958 9.52083 13 9.28333 13 9V7C13 6.71667 13.0958 6.47917 13.2875 6.2875C13.4792 6.09583 13.7167 6 14 6C14.2833 6 14.5208 6.09583 14.7125 6.2875C14.9042 6.47917 15 6.71667 15 7H17C17.2833 7 17.5208 7.09583 17.7125 7.2875C17.9042 7.47917 18 7.71667 18 8V13C18 14.5 17.525 15.8042 16.575 16.9125C15.625 18.0208 14.4333 18.6917 13 18.925V19.5C13 20.75 13.4375 21.8125 14.3125 22.6875C15.1875 23.5625 16.25 24 17.5 24C18.75 24 19.8125 23.5625 20.6875 22.6875C21.5625 21.8125 22 20.75 22 19.5V17.825C21.4167 17.6083 20.9375 17.2458 20.5625 16.7375C20.1875 16.2292 20 15.65 20 15C20 14.1667 20.2917 13.4583 20.875 12.875C21.4583 12.2917 22.1667 12 23 12C23.8333 12 24.5417 12.2917 25.125 12.875C25.7083 13.4583 26 14.1667 26 15C26 15.65 25.8125 16.2292 25.4375 16.7375C25.0625 17.2458 24.5833 17.6083 24 17.825V19.5C24 21.3 23.3667 22.8333 22.1 24.1C20.8333 25.3667 19.3 26 17.5 26Z" fill="#D54E2D"/>
</g>
</svg>
