<svg width="41" height="41" viewBox="0 0 41 41" fill="none" xmlns="http://www.w3.org/2000/svg">
<path d="M20.7839 39.0343C31.3294 39.0343 39.8783 34.6578 39.8783 29.2591C39.8783 23.8604 31.3294 19.4839 20.7839 19.4839C10.2383 19.4839 1.68945 23.8604 1.68945 29.2591C1.68945 34.6578 10.2383 39.0343 20.7839 39.0343Z" fill="#FAFAFA"/>
<path d="M31.6697 35.5698C34.5429 35.5698 36.8721 34.131 36.8721 32.3562C36.8721 30.5814 34.5429 29.1426 31.6697 29.1426C28.7965 29.1426 26.4673 30.5814 26.4673 32.3562C26.4673 34.131 28.7965 35.5698 31.6697 35.5698Z" fill="#E0E0E0"/>
<path d="M19.3202 26.5897L15.9866 24.6657C15.9313 24.6374 15.87 24.6226 15.8078 24.6226C15.7456 24.6226 15.6843 24.6374 15.629 24.6657L4.5802 31.0457C4.55855 31.0529 4.53972 31.0668 4.52638 31.0853C4.51304 31.1038 4.50586 31.1261 4.50586 31.1489C4.50586 31.1717 4.51304 31.194 4.52638 31.2125C4.53972 31.231 4.55855 31.2449 4.5802 31.2521L7.913 33.1769C7.96852 33.2047 8.02974 33.2191 8.0918 33.2191C8.15387 33.2191 8.21508 33.2047 8.2706 33.1769L9.2554 32.6081L18.3346 27.3801L19.321 26.8001C19.3433 26.7929 19.3627 26.7788 19.3765 26.7599C19.3902 26.7409 19.3976 26.718 19.3975 26.6946C19.3974 26.6712 19.3899 26.6484 19.376 26.6295C19.3621 26.6107 19.3426 26.5967 19.3202 26.5897Z" fill="#E0E0E0"/>
<path d="M34.3052 31.1609L33.79 30.8873C33.79 30.8873 33.8404 28.3721 34.362 26.4241C34.8964 24.4297 36.4516 22.2265 37.9212 23.0521C39.3908 23.8777 36.7788 25.5745 35.9932 27.2121C35.2076 28.8497 34.3052 31.1609 34.3052 31.1609Z" fill="#0085FF"/>
<path opacity="0.15" d="M34.3052 31.1609L33.79 30.8873C33.79 30.8873 33.8404 28.3721 34.362 26.4241C34.8964 24.4297 36.4516 22.2265 37.9212 23.0521C39.3908 23.8777 36.7788 25.5745 35.9932 27.2121C35.2076 28.8497 34.3052 31.1609 34.3052 31.1609Z" fill="black"/>
<path d="M34.2374 30.5641C34.2306 30.5639 34.2239 30.5624 34.2177 30.5595C34.2114 30.5567 34.2058 30.5527 34.2011 30.5478C34.1964 30.5428 34.1928 30.5369 34.1904 30.5305C34.188 30.5241 34.1868 30.5173 34.187 30.5105C34.2974 26.6073 36.0038 24.2241 37.4318 23.3697C37.4437 23.3626 37.4579 23.3605 37.4714 23.3639C37.4848 23.3673 37.4963 23.3758 37.5034 23.3877C37.5105 23.3996 37.5126 23.4138 37.5093 23.4272C37.5059 23.4407 37.4973 23.4522 37.4854 23.4593C36.0798 24.3001 34.4006 26.6521 34.291 30.5129C34.2909 30.5198 34.2895 30.5266 34.2867 30.5329C34.2839 30.5393 34.28 30.545 34.275 30.5497C34.27 30.5545 34.2641 30.5582 34.2576 30.5607C34.2512 30.5632 34.2443 30.5643 34.2374 30.5641Z" fill="white"/>
<path d="M34.5381 31.2809L34.0781 31.0449C34.0781 31.0449 34.1349 29.8097 35.0813 28.2001C35.9213 26.7705 37.6237 25.6505 38.3389 26.0497C38.8941 26.3585 39.0221 27.0353 38.4901 27.4857C37.9581 27.9361 35.5021 28.8809 34.5381 31.2809Z" fill="#0085FF"/>
<path d="M34.3533 30.8865C34.4333 30.9025 34.4613 30.7049 34.4773 30.6545C34.5077 30.5601 34.5397 30.4673 34.5749 30.3745C34.6438 30.194 34.722 30.0172 34.8093 29.8449C34.9773 29.5134 35.174 29.1972 35.3973 28.9001C35.6059 28.6219 35.8334 28.3584 36.0781 28.1113C36.2989 27.8891 36.5312 27.6787 36.7741 27.4809C36.9773 27.3145 37.1885 27.1569 37.4053 27.0089C37.5653 26.9001 37.7253 26.7961 37.8925 26.6985C37.9797 26.6473 38.0669 26.5969 38.1573 26.5505L38.1829 26.5377C38.1972 26.5307 38.2081 26.5183 38.2133 26.5032C38.2185 26.4881 38.2175 26.4716 38.2105 26.4573C38.2035 26.443 38.1911 26.432 38.176 26.4268C38.1609 26.4217 38.1444 26.4227 38.1301 26.4297C38.0741 26.4569 38.0205 26.4873 37.9701 26.5177C37.8293 26.5977 37.6917 26.6777 37.5565 26.7673C37.3559 26.8969 37.1602 27.034 36.9693 27.1785C36.7325 27.3577 36.505 27.5478 36.2869 27.7489C36.0382 27.9766 35.8041 28.2198 35.5861 28.4769C35.3496 28.7541 35.1356 29.0497 34.9461 29.3609C34.7444 29.6902 34.5756 30.0386 34.4421 30.4009C34.417 30.4708 34.393 30.5404 34.3701 30.6097C34.3364 30.6789 34.3161 30.7538 34.3101 30.8305C34.311 30.8427 34.3154 30.8544 34.3226 30.8642C34.3298 30.8741 34.3396 30.8818 34.3509 30.8865H34.3533Z" fill="white"/>
<path d="M8.24707 28.9673C8.24707 28.9673 8.25987 27.3985 7.64307 26.1001C7.02627 24.8017 6.06147 23.9233 5.08307 23.7225C4.10467 23.5217 3.20227 24.3297 4.17827 25.0825C5.15427 25.8353 6.94707 26.7065 7.51987 29.1449L8.24707 28.9673Z" fill="#0085FF"/>
<path opacity="0.15" d="M8.24707 28.9673C8.24707 28.9673 8.25987 27.3985 7.64307 26.1001C7.02627 24.8017 6.06147 23.9233 5.08307 23.7225C4.10467 23.5217 3.20227 24.3297 4.17827 25.0825C5.15427 25.8353 6.94707 26.7065 7.51987 29.1449L8.24707 28.9673Z" fill="black"/>
<path d="M7.83926 28.6961C7.82905 28.6961 7.81922 28.6923 7.81179 28.6853C7.80435 28.6783 7.79987 28.6687 7.79926 28.6585C7.64886 26.1473 5.58006 24.5145 4.55766 24.2361C4.5475 24.2333 4.53887 24.2266 4.53363 24.2175C4.52838 24.2083 4.52696 24.1975 4.52966 24.1873C4.53247 24.177 4.53926 24.1681 4.54854 24.1627C4.55783 24.1574 4.56886 24.1558 4.57926 24.1585C5.61926 24.4425 7.72646 26.1025 7.87926 28.6537C7.87951 28.6642 7.87577 28.6745 7.86879 28.6823C7.86182 28.6902 7.85212 28.6951 7.84166 28.6961H7.83926Z" fill="white"/>
<path d="M8.37358 31.121C8.57177 30.8709 8.70475 30.5755 8.76061 30.2614C8.81646 29.9472 8.79343 29.6241 8.69358 29.321C8.63551 29.138 8.5426 28.968 8.41998 28.8202C8.32158 28.7042 8.17998 28.6442 8.06478 28.5474C7.81678 28.3418 7.52878 28.1234 7.43918 27.797C7.36718 27.537 7.38238 27.2906 7.23838 27.0466C7.15353 26.8938 7.01842 26.7751 6.85598 26.7106C6.64398 26.6306 6.41038 26.6834 6.18638 26.7106C5.86638 26.7466 5.62638 26.6362 5.34958 26.489C5.04478 26.329 4.68878 26.2026 4.35838 26.301C4.25093 26.3329 4.15136 26.3869 4.06614 26.4597C3.98091 26.5325 3.91193 26.6223 3.86365 26.7235C3.81538 26.8246 3.7889 26.9348 3.78593 27.0468C3.78295 27.1588 3.80355 27.2703 3.84638 27.3738C3.91998 27.553 4.05598 27.6986 4.15598 27.865C4.25598 28.0314 4.30878 28.2218 4.23598 28.4034C4.17998 28.5378 4.07598 28.6434 4.03438 28.7802C3.91598 29.1402 3.98238 29.4602 4.33998 29.6458C4.71358 29.837 5.29998 29.693 5.48718 30.1626C5.55758 30.341 5.55998 30.5386 5.59838 30.7266C5.6772 31.105 5.89718 31.4391 6.21358 31.661C6.64318 31.9594 7.22638 31.8866 7.67198 31.6786C7.94574 31.5494 8.18587 31.3585 8.37358 31.121Z" fill="#0085FF"/>
<path d="M5.0057 28.8489C5.01444 28.8504 5.02342 28.849 5.0313 28.8449C5.34639 28.7231 5.68454 28.6726 6.02148 28.6969C6.35841 28.7213 6.68578 28.8199 6.9801 28.9858C6.99018 28.9911 7.00199 28.9923 7.01293 28.989C7.02388 28.9857 7.03307 28.9782 7.0385 28.9682C7.04131 28.9632 7.0431 28.9578 7.04377 28.9522C7.04445 28.9465 7.04399 28.9408 7.04242 28.9354C7.04086 28.93 7.03822 28.9249 7.03466 28.9205C7.0311 28.9161 7.02669 28.9124 7.0217 28.9097C6.71592 28.738 6.3759 28.6362 6.02607 28.6116C5.67624 28.5869 5.32531 28.6402 4.9985 28.7673C4.99081 28.7716 4.98459 28.778 4.98066 28.7859C4.97673 28.7937 4.97528 28.8025 4.97649 28.8112C4.97771 28.8199 4.98153 28.828 4.98746 28.8345C4.9934 28.8409 5.00115 28.8454 5.0097 28.8473L5.0057 28.8489Z" fill="white"/>
<path d="M7.799 31.1345C7.78852 31.1347 7.77838 31.1308 7.77075 31.1236C7.76312 31.1164 7.75862 31.1065 7.7582 31.0961C7.6838 29.2881 5.8686 27.3761 4.6518 26.8561C4.64688 26.8541 4.64242 26.8511 4.63867 26.8473C4.63491 26.8436 4.63194 26.8391 4.62993 26.8342C4.62792 26.8293 4.62691 26.824 4.62695 26.8187C4.627 26.8134 4.6281 26.8081 4.6302 26.8033C4.63458 26.7934 4.64267 26.7857 4.65271 26.7818C4.66275 26.7779 4.67393 26.7782 4.6838 26.7825C5.9198 27.3121 7.763 29.2561 7.839 31.0945C7.83921 31.0998 7.83837 31.1052 7.83651 31.1102C7.83466 31.1152 7.83183 31.1199 7.82819 31.1238C7.82455 31.1277 7.82017 31.1309 7.81529 31.1332C7.81042 31.1354 7.80516 31.1367 7.7998 31.1369L7.799 31.1345Z" fill="white"/>
<path d="M17.8183 5.30004L8.76392 10.5256C8.67426 10.5842 8.59974 10.6631 8.54648 10.756C8.49322 10.8489 8.46274 10.9531 8.45752 11.06V32.3824C8.45752 32.5776 8.59512 32.6568 8.76392 32.5584L17.8183 27.3312C17.9074 27.2728 17.9815 27.1943 18.0347 27.1021C18.0879 27.0098 18.1188 26.9064 18.1247 26.8V5.47444C18.1247 5.27924 17.9871 5.19924 17.8183 5.30004ZM17.6839 25.22C17.6839 25.3872 17.5663 25.4936 17.4215 25.5768L9.13032 30.3656C8.98632 30.4456 8.86792 30.3816 8.86792 30.2136V12.4816C8.86795 12.39 8.89215 12.2999 8.93808 12.2205C8.984 12.1412 9.05004 12.0753 9.12952 12.0296L17.4207 7.24004C17.4473 7.22458 17.4775 7.21641 17.5083 7.21633C17.5391 7.21626 17.5693 7.22429 17.596 7.23962C17.6227 7.25494 17.6448 7.27702 17.6603 7.30364C17.6757 7.33026 17.6839 7.36047 17.6839 7.39124V25.22Z" fill="#455A64"/>
<path d="M17.6842 25.22C17.6842 25.3872 17.5666 25.4936 17.4218 25.5768L9.13056 30.3656C8.98656 30.4456 8.86816 30.3816 8.86816 30.2136V12.4816C8.8682 12.3899 8.89239 12.2999 8.93832 12.2205C8.98425 12.1412 9.05028 12.0753 9.12976 12.0296L17.421 7.24001C17.4476 7.22456 17.4778 7.21638 17.5085 7.21631C17.5393 7.21624 17.5696 7.22427 17.5962 7.23959C17.6229 7.25492 17.6451 7.277 17.6605 7.30362C17.676 7.33023 17.6841 7.36044 17.6842 7.39121V25.22Z" fill="#263238"/>
<path d="M9.13056 30.3656L17.4218 25.5784C17.48 25.5469 17.5338 25.5079 17.5818 25.4624L8.86816 20.5552V30.2136C8.86816 30.3816 8.98656 30.4488 9.13056 30.3656Z" fill="#37474F"/>
<path d="M17.013 24.9089V7.47607L9.12976 12.0297C9.05028 12.0754 8.98425 12.1412 8.93832 12.2206C8.89239 12.2999 8.8682 12.39 8.86816 12.4817V29.8169L16.7506 25.2657C16.8954 25.1825 17.013 25.0761 17.013 24.9089Z" fill="#0085FF"/>
<path d="M8.72565 32.5799C8.63422 32.6185 8.53551 32.6367 8.43634 32.6334C8.33717 32.6301 8.2399 32.6053 8.15125 32.5607L7.80085 32.3583C7.71144 32.3004 7.63699 32.2222 7.5836 32.13C7.53021 32.0378 7.49939 31.9343 7.49365 31.8279V10.4999C7.49567 10.4209 7.51363 10.343 7.54645 10.2711C7.55765 10.2463 7.56965 10.2223 7.58325 10.1975L8.54325 10.7575C8.52307 10.7936 8.50543 10.831 8.49045 10.8695C8.46715 10.9301 8.45443 10.9942 8.45285 11.0591V32.3823C8.45765 32.5623 8.57445 32.6439 8.72565 32.5799Z" fill="#263238"/>
<path d="M13.5618 28.2839C13.7578 28.2839 13.7786 28.5039 13.7786 28.5983C13.7669 28.7875 13.7114 28.9713 13.6166 29.1354C13.5218 29.2995 13.3902 29.4393 13.2322 29.5439C13.1688 29.5842 13.096 29.6074 13.021 29.6111C12.825 29.6111 12.8042 29.3911 12.8042 29.2967C12.816 29.1076 12.8714 28.9238 12.966 28.7596C13.0607 28.5954 13.192 28.4553 13.3498 28.3503C13.4137 28.3107 13.4867 28.2879 13.5618 28.2839Z" fill="#0085FF"/>
<path d="M13.2847 8.25284C13.3647 8.20484 13.4343 8.24324 13.4343 8.33924C13.4314 8.39114 13.4163 8.44163 13.3903 8.48665C13.3644 8.53168 13.3282 8.56997 13.2847 8.59844C13.2047 8.64564 13.1343 8.60724 13.1343 8.51204C13.137 8.46001 13.1521 8.40938 13.1782 8.36431C13.2044 8.31925 13.2409 8.28104 13.2847 8.25284Z" fill="#263238"/>
<path d="M12.3183 9.51588C12.3919 9.47348 12.4511 9.50788 12.4511 9.59588C12.4487 9.64192 12.4354 9.68672 12.4123 9.72663C12.3892 9.76654 12.357 9.80041 12.3183 9.82548C12.2447 9.86788 12.1855 9.83348 12.1855 9.74548C12.1881 9.69947 12.2015 9.65472 12.2245 9.61483C12.2476 9.57494 12.2797 9.54105 12.3183 9.51588Z" fill="#263238"/>
<path d="M12.7624 9.25357L14.2496 8.39517C14.3296 8.34797 14.3968 8.38157 14.3968 8.46957C14.3929 8.51899 14.3776 8.56682 14.3521 8.6093C14.3265 8.65179 14.2915 8.68775 14.2496 8.71437L12.7624 9.57277C12.6824 9.61997 12.6152 9.58637 12.6152 9.49837C12.6191 9.44895 12.6345 9.40111 12.66 9.35863C12.6855 9.31615 12.7206 9.28018 12.7624 9.25357Z" fill="#263238"/>
<path d="M18.1218 5.42558C18.0994 5.26558 17.9722 5.20878 17.8194 5.29758L8.7634 10.5256C8.67279 10.5818 8.59835 10.6607 8.5474 10.7544L7.5874 10.1944C7.63915 10.1014 7.71377 10.0232 7.8042 9.96718L16.8546 4.73998C16.9496 4.69184 17.0545 4.66675 17.161 4.66675C17.2675 4.66675 17.3724 4.69184 17.4674 4.73998L17.8194 4.94158C17.9014 4.996 17.9709 5.06735 18.023 5.15083C18.0752 5.23431 18.1089 5.328 18.1218 5.42558Z" fill="#37474F"/>
<path d="M15.7466 6.07262C15.6996 6.09772 15.6474 6.11131 15.5941 6.11229C15.5408 6.11326 15.4881 6.10158 15.4402 6.07822C15.4242 6.07138 15.4103 6.06034 15.4 6.04625C15.3897 6.03217 15.3835 6.01558 15.3818 5.99822C15.3818 5.97582 15.3818 5.89262 15.3818 5.86942C15.3844 5.84946 15.3921 5.83049 15.4041 5.81438C15.4162 5.79826 15.4322 5.78553 15.4506 5.77742L16.421 5.21742C16.4682 5.1925 16.5206 5.17901 16.574 5.17804C16.6273 5.17706 16.6802 5.18863 16.7282 5.21182C16.744 5.21898 16.7576 5.23012 16.7677 5.24416C16.7778 5.25819 16.784 5.27462 16.7858 5.29182C16.7858 5.31502 16.7858 5.40142 16.7858 5.42382C16.7833 5.4439 16.7757 5.46299 16.7636 5.47925C16.7516 5.49551 16.7355 5.50838 16.717 5.51662L15.7466 6.07262Z" fill="#0085FF"/>
<path opacity="0.25" d="M15.7466 6.07262C15.6996 6.09772 15.6474 6.11131 15.5941 6.11229C15.5408 6.11326 15.4881 6.10158 15.4402 6.07822C15.4242 6.07138 15.4103 6.06034 15.4 6.04625C15.3897 6.03217 15.3835 6.01558 15.3818 5.99822C15.3818 5.97582 15.3818 5.89262 15.3818 5.86942C15.3844 5.84946 15.3921 5.83049 15.4041 5.81438C15.4162 5.79826 15.4322 5.78553 15.4506 5.77742L16.421 5.21742C16.4682 5.1925 16.5206 5.17901 16.574 5.17804C16.6273 5.17706 16.6802 5.18863 16.7282 5.21182C16.744 5.21898 16.7576 5.23012 16.7677 5.24416C16.7778 5.25819 16.784 5.27462 16.7858 5.29182C16.7858 5.31502 16.7858 5.40142 16.7858 5.42382C16.7833 5.4439 16.7757 5.46299 16.7636 5.47925C16.7516 5.49551 16.7355 5.50838 16.717 5.51662L15.7466 6.07262Z" fill="black"/>
<path d="M15.7467 5.94551L16.7171 5.38551C16.8051 5.33431 16.8091 5.25511 16.7275 5.20791C16.6794 5.18473 16.6266 5.17316 16.5732 5.17413C16.5198 5.1751 16.4675 5.18859 16.4203 5.21351L15.4499 5.77351C15.3627 5.82391 15.3579 5.90311 15.4403 5.95031C15.4881 5.97361 15.5408 5.98532 15.594 5.98449C15.6473 5.98365 15.6996 5.9703 15.7467 5.94551Z" fill="#0085FF"/>
<path opacity="0.3" d="M15.7467 5.94551L16.7171 5.38551C16.8051 5.33431 16.8091 5.25511 16.7275 5.20791C16.6794 5.18473 16.6266 5.17316 16.5732 5.17413C16.5198 5.1751 16.4675 5.18859 16.4203 5.21351L15.4499 5.77351C15.3627 5.82391 15.3579 5.90311 15.4403 5.95031C15.4881 5.97361 15.5408 5.98532 15.594 5.98449C15.6473 5.98365 15.6996 5.9703 15.7467 5.94551Z" fill="black"/>
<path d="M8.10025 13.7136C8.09836 13.6604 8.08389 13.6083 8.05802 13.5617C8.03216 13.5152 7.99564 13.4754 7.95145 13.4456C7.93698 13.4349 7.91982 13.4284 7.90189 13.4269C7.88396 13.4253 7.86595 13.4288 7.84985 13.4368C7.83145 13.448 7.75785 13.4888 7.73865 13.5008C7.72259 13.513 7.70994 13.5291 7.70195 13.5476C7.69396 13.5661 7.6909 13.5864 7.69305 13.6064V15.984C7.69499 16.0371 7.70939 16.0891 7.7351 16.1356C7.76081 16.1822 7.7971 16.2221 7.84105 16.252C7.85551 16.2617 7.87223 16.2676 7.88961 16.269C7.90698 16.2704 7.92442 16.2673 7.94025 16.26C7.96105 16.2496 8.03545 16.2064 8.05545 16.1944C8.07152 16.1822 8.08416 16.1661 8.09215 16.1476C8.10014 16.1291 8.10321 16.1088 8.10105 16.0888L8.10025 13.7136Z" fill="#0085FF"/>
<path opacity="0.3" d="M8.10025 13.7136C8.09836 13.6604 8.08389 13.6083 8.05802 13.5617C8.03216 13.5152 7.99564 13.4754 7.95145 13.4456C7.93698 13.4349 7.91982 13.4284 7.90189 13.4269C7.88396 13.4253 7.86595 13.4288 7.84985 13.4368C7.83145 13.448 7.75785 13.4888 7.73865 13.5008C7.72259 13.513 7.70994 13.5291 7.70195 13.5476C7.69396 13.5661 7.6909 13.5864 7.69305 13.6064V15.984C7.69499 16.0371 7.70939 16.0891 7.7351 16.1356C7.76081 16.1822 7.7971 16.2221 7.84105 16.252C7.85551 16.2617 7.87223 16.2676 7.88961 16.269C7.90698 16.2704 7.92442 16.2673 7.94025 16.26C7.96105 16.2496 8.03545 16.2064 8.05545 16.1944C8.07152 16.1822 8.08416 16.1661 8.09215 16.1476C8.10014 16.1291 8.10321 16.1088 8.10105 16.0888L8.10025 13.7136Z" fill="black"/>
<path d="M7.98967 13.78V16.1576C7.98967 16.2584 7.92327 16.3016 7.84087 16.2544C7.79692 16.2245 7.76062 16.1846 7.73492 16.1381C7.70921 16.0915 7.6948 16.0396 7.69287 15.9864V13.6064C7.69287 13.5048 7.75927 13.4616 7.84087 13.5088C7.8854 13.539 7.92211 13.5793 7.94799 13.6265C7.97386 13.6736 7.98815 13.7263 7.98967 13.78Z" fill="#0085FF"/>
<path opacity="0.4" d="M7.98967 13.78V16.1576C7.98967 16.2584 7.92327 16.3016 7.84087 16.2544C7.79692 16.2245 7.76062 16.1846 7.73492 16.1381C7.70921 16.0915 7.6948 16.0396 7.69287 15.9864V13.6064C7.69287 13.5048 7.75927 13.4616 7.84087 13.5088C7.8854 13.539 7.92211 13.5793 7.94799 13.6265C7.97386 13.6736 7.98815 13.7263 7.98967 13.78Z" fill="black"/>
<path d="M8.10025 16.8999C8.09836 16.8466 8.08389 16.7946 8.05802 16.748C8.03216 16.7014 7.99564 16.6616 7.95145 16.6319C7.93698 16.6212 7.91982 16.6147 7.90189 16.6132C7.88396 16.6116 7.86595 16.615 7.84985 16.6231C7.83145 16.6343 7.75785 16.6751 7.73865 16.6871C7.72259 16.6993 7.70994 16.7154 7.70195 16.7339C7.69396 16.7524 7.6909 16.7726 7.69305 16.7927V17.9127C7.69511 17.9657 7.70957 18.0175 7.73527 18.0639C7.76098 18.1103 7.79721 18.15 7.84105 18.1799C7.85504 18.1902 7.87154 18.1966 7.88884 18.1985C7.90614 18.2003 7.92361 18.1975 7.93945 18.1903C7.96025 18.1799 8.03465 18.1367 8.05465 18.1247C8.07065 18.1126 8.08327 18.0967 8.09126 18.0783C8.09925 18.0599 8.10235 18.0398 8.10025 18.0199V16.8999Z" fill="#0085FF"/>
<path opacity="0.3" d="M8.10025 16.8999C8.09836 16.8466 8.08389 16.7946 8.05802 16.748C8.03216 16.7014 7.99564 16.6616 7.95145 16.6319C7.93698 16.6212 7.91982 16.6147 7.90189 16.6132C7.88396 16.6116 7.86595 16.615 7.84985 16.6231C7.83145 16.6343 7.75785 16.6751 7.73865 16.6871C7.72259 16.6993 7.70994 16.7154 7.70195 16.7339C7.69396 16.7524 7.6909 16.7726 7.69305 16.7927V17.9127C7.69511 17.9657 7.70957 18.0175 7.73527 18.0639C7.76098 18.1103 7.79721 18.15 7.84105 18.1799C7.85504 18.1902 7.87154 18.1966 7.88884 18.1985C7.90614 18.2003 7.92361 18.1975 7.93945 18.1903C7.96025 18.1799 8.03465 18.1367 8.05465 18.1247C8.07065 18.1126 8.08327 18.0967 8.09126 18.0783C8.09925 18.0599 8.10235 18.0398 8.10025 18.0199V16.8999Z" fill="black"/>
<path d="M7.98967 16.9599V18.0799C7.98967 18.1807 7.92327 18.2247 7.84087 18.1767C7.79692 18.1467 7.76062 18.1069 7.73492 18.0603C7.70921 18.0138 7.6948 17.9618 7.69287 17.9087V16.7887C7.69287 16.6879 7.75927 16.6439 7.84087 16.6911C7.88499 16.7211 7.92144 16.7611 7.94728 16.8078C7.97313 16.8545 7.98765 16.9066 7.98967 16.9599Z" fill="#0085FF"/>
<path opacity="0.4" d="M7.98967 16.9599V18.0799C7.98967 18.1807 7.92327 18.2247 7.84087 18.1767C7.79692 18.1467 7.76062 18.1069 7.73492 18.0603C7.70921 18.0138 7.6948 17.9618 7.69287 17.9087V16.7887C7.69287 16.6879 7.75927 16.6439 7.84087 16.6911C7.88499 16.7211 7.92144 16.7611 7.94728 16.8078C7.97313 16.8545 7.98765 16.9066 7.98967 16.9599Z" fill="black"/>
<path d="M10.7514 14.9152C10.7594 14.954 10.7701 14.9922 10.7834 15.0296C10.8354 15.1704 10.929 15.3032 10.921 15.4536C10.9122 15.6232 10.7786 15.7544 10.6762 15.8896C10.5432 16.0683 10.4545 16.2761 10.4175 16.4959C10.3805 16.7157 10.3962 16.9411 10.4634 17.1536C10.5618 17.4124 10.6982 17.655 10.8682 17.8736L11.2546 18.4216C11.3715 18.575 11.5206 18.7009 11.6914 18.7904C12.0235 18.978 12.3939 19.0875 12.7746 19.1104C13.4004 19.1526 14.0229 18.9894 14.5474 18.6456C15.1034 18.2776 14.8586 17.3336 15.4274 16.9888C16.1154 16.5728 16.4434 15.128 15.6002 14.5248C15.6002 14.5248 15.7362 13.64 15.4866 13.4144C15.2379 13.2062 14.9301 13.0814 14.6066 13.0576C14.1602 13.0112 13.713 13.0984 13.2674 13.0968C12.8087 13.0953 12.3504 13.1239 11.8954 13.1824C11.7354 13.204 11.5098 13.2624 11.4234 13.4184C11.399 13.4795 11.3924 13.5464 11.4042 13.6112C11.403 13.714 11.3663 13.8132 11.3002 13.892C11.201 14.012 11.0602 14.0928 10.9546 14.2056C10.8675 14.2996 10.8037 14.4129 10.7684 14.5361C10.7331 14.6594 10.7273 14.7892 10.7514 14.9152Z" fill="#263238"/>
<path d="M15.1914 16.1919C15.9114 16.2119 16.005 16.3655 16.6498 17.0039C17.1858 17.5343 18.9618 19.1735 18.9618 19.1735L21.0898 19.7399L20.5874 21.0383C20.5874 21.0383 20.1074 21.0183 19.1474 21.0175C18.5578 21.0175 18.353 20.8855 17.7594 20.4895C17.457 20.2871 15.7506 19.1703 15.7506 19.1703L15.1914 16.1919Z" fill="#E6E6E6"/>
<path d="M23.4444 17.1145L19.5444 18.4889L18.4692 23.1289L18.5564 23.2217L22.2644 21.8385L23.5308 17.2073L23.4444 17.1145Z" fill="#0085FF"/>
<path opacity="0.35" d="M19.6308 18.5816L18.5564 23.2216L18.4692 23.1288L19.5444 18.4888L19.6308 18.5816Z" fill="black"/>
<path opacity="0.25" d="M23.5306 17.2073L19.6306 18.5817L18.5562 23.2217L22.2642 21.8385L23.5306 17.2073Z" fill="black"/>
<g opacity="0.2">
<path d="M21.6841 20.8945C21.7201 20.9857 22.0193 21.1865 22.4521 21.1505L22.5249 20.8833L21.6841 20.8945Z" fill="black"/>
</g>
<g opacity="0.1">
<path d="M22.3564 18.1577L22.3884 18.0017C22.406 17.9161 22.1771 17.9609 21.8771 18.1025L21.1732 18.3153C20.8732 18.4569 20.59 18.5625 20.5716 18.6481L20.5396 18.8033L22.3564 18.1577Z" fill="black"/>
</g>
<path d="M22.5881 17.4537C22.5993 17.4001 22.5081 17.4113 22.3857 17.4441L22.1609 17.5201C22.1609 17.5201 22.2529 17.2945 21.7209 17.4401C21.1361 17.6001 21.1233 17.8905 21.1233 17.8905C21.0318 17.9301 20.9381 17.9643 20.8425 17.9929C20.6481 18.0561 20.6273 18.0937 20.6113 18.1481L20.5825 18.2465L22.5705 17.5473C22.5705 17.5473 22.5801 17.5073 22.5881 17.4537Z" fill="#37474F"/>
<path d="M22.3788 17.7519C22.1948 17.8319 22.1188 17.876 22.0908 18.0087C22.0596 18.1599 22.0532 18.2231 22.0532 18.2231L21.018 18.6311C21.018 18.6311 21.074 18.4079 21.0876 18.3335C21.1012 18.2591 20.9644 18.2592 20.7852 18.3416L20.8276 18.1559L22.438 17.5583L22.3788 17.7519Z" fill="#37474F"/>
<path d="M22.4088 18.16C22.4088 18.16 22.424 18.0904 22.4416 18.004C22.4592 17.9176 22.2304 17.9632 21.9304 18.1048L21.2264 18.3176C20.9264 18.4592 20.6424 18.5648 20.6248 18.6504L20.5928 18.8104L22.4088 18.16Z" fill="#37474F"/>
<path d="M23.0971 18.7945C23.0971 18.7945 22.9587 19.3033 22.9219 19.4345C22.8851 19.5657 22.2467 19.8577 21.9275 19.8977C21.3163 19.9737 21.2468 20.1057 21.3932 20.5377C21.5292 20.9377 21.9268 21.0897 22.4788 21.0249C22.738 20.9945 23.0956 20.7649 23.2364 20.3641C23.4156 19.8521 23.3164 19.3057 23.3908 19.0041C23.4652 18.7025 23.2523 18.6161 23.0971 18.7945Z" fill="#FFA8A7"/>
<path d="M17.0537 25.7913L16.6401 26.0313L16.4665 26.1313L14.1913 27.4441L13.8809 27.6201L13.3569 27.9225L13.5169 26.2897L13.8225 23.1281V23.0953L13.8369 22.9537L14.2369 18.8201L14.4121 17.0113L14.4737 16.3625L14.4945 16.1529H14.5057C14.691 16.1014 14.8868 16.1014 15.0721 16.1529C15.1134 16.1654 15.1536 16.1815 15.1921 16.2009C15.4321 16.3201 15.5921 16.5521 15.7249 16.7961C15.7576 16.8555 15.787 16.9167 15.8129 16.9793C15.9116 17.2164 15.9876 17.4623 16.0401 17.7137C16.1449 18.1777 16.2801 18.6521 16.3337 19.4001C16.3422 19.5926 16.332 19.7855 16.3033 19.9761C16.2673 20.4804 16.2611 20.9863 16.2849 21.4913C16.3521 22.6353 16.6401 23.1537 17.0537 25.7913Z" fill="#E0E0E0"/>
<path d="M16.4665 26.1296L14.1913 27.4424L13.8809 27.62L13.3569 27.9224L12.9961 28.1304L10.8057 29.3944C10.8289 28.5144 10.8393 27.56 10.8185 26.6584C10.8121 26.3568 10.8097 26.0488 10.8225 25.7336C10.8641 24.6392 11.0721 23.4656 11.8177 22.2304L11.8521 22.168C11.9401 22.6904 12.7401 23.0296 13.4601 23.1096L13.5401 23.1168C13.6305 23.1256 13.7241 23.1296 13.8209 23.1296H13.8817C14.4905 23.124 15.2113 22.9808 16.0417 22.7C16.1217 23.164 16.2017 23.7728 16.2873 24.4848C16.3257 24.8048 16.3646 25.1458 16.4041 25.508C16.4201 25.7104 16.4449 25.9176 16.4665 26.1296Z" fill="#FFA8A7"/>
<path d="M16.6403 26.0296L16.4667 26.1296L14.1915 27.4424L13.8811 27.62L13.3571 27.9224L12.9963 28.1304L10.8059 29.3944L10.5659 29.5328C10.5779 28.5856 10.5859 27.6576 10.5851 27.0752C10.5851 26.5336 10.5971 26.052 10.6267 25.6248C10.6851 24.7816 10.8067 24.1472 11.0099 23.6672C11.2483 23.1418 11.5304 22.6374 11.8531 22.1592C11.8531 22.1592 12.0531 22.8344 13.5491 22.9408H13.5587C13.6467 22.9472 13.7395 22.9512 13.8371 22.9528H13.9507C15.8131 22.9528 16.0187 22.4832 16.0187 22.4832C16.2007 23.1737 16.3446 23.8737 16.4499 24.58C16.4894 24.8296 16.5275 25.0962 16.5643 25.38C16.5915 25.588 16.6171 25.804 16.6403 26.0296Z" fill="#0085FF"/>
<path opacity="0.4" d="M16.6403 26.0296L16.4667 26.1296L14.1915 27.4424L13.8811 27.62L13.3571 27.9224L12.9963 28.1304L10.8059 29.3944L10.5659 29.5328C10.5779 28.5856 10.5859 27.6576 10.5851 27.0752C10.5851 26.5336 10.5971 26.052 10.6267 25.6248C10.6851 24.7816 10.8067 24.1472 11.0099 23.6672C11.2483 23.1418 11.5304 22.6374 11.8531 22.1592C11.8531 22.1592 12.0531 22.8344 13.5491 22.9408H13.5587C13.6467 22.9472 13.7395 22.9512 13.8371 22.9528H13.9507C15.8131 22.9528 16.0187 22.4832 16.0187 22.4832C16.2007 23.1737 16.3446 23.8737 16.4499 24.58C16.4894 24.8296 16.5275 25.0962 16.5643 25.38C16.5915 25.588 16.6171 25.804 16.6403 26.0296Z" fill="black"/>
<path opacity="0.2" d="M15.5721 24.968C15.5721 24.968 15.3641 25.6288 14.4889 25.9992L14.4473 26.2016L14.1913 27.4424L13.8809 27.62L14.0665 26.2512L14.1465 25.656C14.6873 25.5999 15.1916 25.3565 15.5721 24.968Z" fill="black"/>
<path d="M12.9108 16.344L12.0308 16.4368C11.4484 16.5792 11.1852 16.8368 11.1252 17.3512C11.0972 17.5912 10.9524 18.2312 11.1556 19.0312C11.3396 19.7576 11.8308 21.5352 11.8308 21.5352C11.8308 21.5352 10.7004 23.0104 10.4956 25.54C12.5644 26.8904 15.738 26.1648 16.5964 25.3488C16.5244 24.576 16.0308 22.4552 15.9692 21.7664C15.9692 21.7664 16.0148 20.6904 16.1004 20.224C16.7548 19.5096 16.6716 18.8264 16.378 18.2752C15.8356 17.2576 15.018 16.3632 14.7532 16.364L12.9108 16.344Z" fill="#0085FF"/>
<path opacity="0.7" d="M12.9108 16.344L12.0308 16.4368C11.4484 16.5792 11.1852 16.8368 11.1252 17.3512C11.0972 17.5912 10.9524 18.2312 11.1556 19.0312C11.3396 19.7576 11.8308 21.5352 11.8308 21.5352C11.8308 21.5352 10.7004 23.0104 10.4956 25.54C12.5644 26.8904 15.738 26.1648 16.5964 25.3488C16.5244 24.576 16.0308 22.4552 15.9692 21.7664C15.9692 21.7664 16.0148 20.6904 16.1004 20.224C16.7548 19.5096 16.6716 18.8264 16.378 18.2752C15.8356 17.2576 15.018 16.3632 14.7532 16.364L12.9108 16.344Z" fill="white"/>
<path d="M13.673 21.8519C13.673 21.8679 13.673 21.8823 13.673 21.8943V21.9151C13.6735 21.9218 13.6735 21.9285 13.673 21.9351C13.6426 22.2551 13.6066 22.5951 13.5682 22.9415C13.5682 22.9415 13.5682 22.9415 13.5682 22.9463C13.5626 23.0023 13.5562 23.0583 13.5498 23.1151C13.4322 24.1591 13.2922 25.2751 13.1842 26.2911C13.1578 26.5375 13.1338 26.7775 13.1122 27.0111C13.0786 27.3607 13.0426 27.7439 13.0058 28.1311L10.8154 29.3951L10.5754 29.5335L9.96338 29.8863C10.0866 28.6743 10.3738 25.8663 10.5338 24.5991C10.5522 24.4559 10.5762 24.3127 10.6034 24.1703L10.625 24.0663L10.6346 24.0239C10.645 23.9759 10.6554 23.9295 10.6666 23.8823C10.6778 23.8351 10.6882 23.7951 10.6986 23.7527C10.7234 23.6559 10.7498 23.5607 10.7786 23.4679C10.7922 23.4231 10.805 23.3783 10.8194 23.3343C10.8338 23.2903 10.8458 23.2463 10.8602 23.2031C10.889 23.1167 10.917 23.0319 10.9466 22.9495C10.9462 22.9479 10.9462 22.9463 10.9466 22.9447C10.9602 22.9055 10.9746 22.8647 10.989 22.8279C11.0082 22.7735 11.0282 22.7207 11.0482 22.6679L11.0722 22.6047C11.0842 22.5759 11.0946 22.5479 11.1058 22.5199C11.145 22.4215 11.1858 22.3279 11.2218 22.2407C11.2298 22.2215 11.2386 22.2023 11.2466 22.1839C11.2546 22.1655 11.2674 22.1383 11.277 22.1159C11.301 22.0599 11.325 22.0079 11.3482 21.9559C11.3578 21.9335 11.3682 21.9119 11.3778 21.8911C11.3874 21.8703 11.401 21.8431 11.4114 21.8207L11.4266 21.7887L11.4426 21.7575C11.4436 21.7534 11.4455 21.7496 11.4482 21.7463C11.4504 21.7405 11.453 21.7349 11.4562 21.7295C11.4581 21.7259 11.4597 21.7222 11.461 21.7183C11.4676 21.707 11.4735 21.6952 11.4786 21.6831L11.5322 21.5791C11.5322 21.5735 11.5378 21.5695 11.5394 21.5647L11.5602 21.5263L10.8946 18.7663L10.5634 17.3951V17.3727C10.5786 17.2511 10.6802 16.6775 11.2658 16.5031C11.5964 16.4178 11.935 16.3674 12.2762 16.3527C12.4074 16.3447 12.5258 16.3415 12.6226 16.3391H12.7754H12.8674C12.8676 16.341 12.8676 16.3429 12.8674 16.3447C12.8722 16.3567 12.8858 16.3927 12.9066 16.4487C12.9088 16.4581 12.912 16.4672 12.9162 16.4759C12.9163 16.4772 12.9163 16.4786 12.9162 16.4799C13.0602 16.8751 13.4642 18.0255 13.665 19.0247C13.7002 19.1975 13.729 19.3663 13.7498 19.5263C13.8098 20.0263 13.7658 20.8631 13.673 21.8519Z" fill="#FAFAFA"/>
<path d="M11.582 20.2047C11.582 20.2047 11.662 19.8103 11.7796 18.9583C11.9164 17.9759 11.8676 17.4903 11.7196 17.1799L10.8852 18.7711L11.5508 21.5311C11.5508 21.5311 10.8668 22.7839 10.5908 24.1711C11.2452 22.3223 11.9612 21.7711 11.9612 21.7711L11.582 20.2047Z" fill="#E6E6E6"/>
<path d="M14.5049 15.728C14.7641 15.728 14.7945 15.7712 15.0177 16.0704C15.1505 16.2488 15.9913 17.6368 15.9913 17.6368C15.9913 17.6368 15.3225 16.7568 14.8177 16.4896C14.7205 16.4327 14.6153 16.3906 14.5057 16.3648L14.5049 15.728Z" fill="#EBEBEB"/>
<path d="M12.5883 18.6777C12.5883 18.5977 12.5803 18.4249 12.5667 18.2073C12.5003 17.1401 12.4683 16.1801 12.8283 16.1001L12.8595 16.2473C12.5971 16.3041 12.6835 17.6777 12.7163 18.1945C12.7307 18.4169 12.7419 18.5945 12.7379 18.6809L12.5883 18.6777Z" fill="#0085FF"/>
<path d="M11.3882 11.6905L11.9482 12.1489C11.9786 12.1141 12.0016 12.0734 12.0158 12.0293C12.03 11.9853 12.035 11.9388 12.0306 11.8927C12.0262 11.8467 12.0124 11.802 11.9901 11.7615C11.9678 11.7209 11.9375 11.6853 11.901 11.6569C11.8274 11.596 11.7332 11.5656 11.6379 11.5718C11.5426 11.5781 11.4532 11.6205 11.3882 11.6905Z" fill="#263238"/>
<path d="M12.8507 15.796C12.8507 15.4448 12.0323 14.916 11.6099 14.1776C11.1875 13.4392 11.3987 12.2248 11.9779 12.0384C11.9827 12.0384 11.9987 11.8824 12.0011 11.8712C12.0332 11.7303 12.0872 11.5953 12.1611 11.4712C12.3971 11.0648 12.8971 10.7512 13.3611 10.6856C15.1955 10.4184 16.0387 11.1312 16.3755 11.9152C16.4847 12.1789 16.5334 12.4638 16.5179 12.7488C16.5085 12.9581 16.4308 13.1586 16.2968 13.3197C16.1627 13.4808 15.9797 13.5935 15.7755 13.6408L12.8507 15.796Z" fill="#263238"/>
<path d="M15.3955 11.6528C15.7547 11.8128 16.0963 12.3592 16.0907 13.8968C16.0859 15.2008 15.6859 15.5304 15.4843 15.6272C15.2827 15.724 14.8883 15.6744 14.5051 15.616V16.3648C14.5051 16.3648 14.7923 16.6472 14.6915 16.8248C14.5907 17.0024 14.2187 17.1528 13.6403 16.9712C12.9851 16.7656 12.8355 16.3312 12.8355 16.3312L12.8203 14.688C12.8203 14.688 12.6003 14.9192 12.2123 14.58C11.8923 14.2992 11.7771 13.8184 12.0179 13.5544C12.2587 13.2904 12.5675 13.2696 12.8459 13.5648L13.0459 13.4592C13.4027 13.4176 13.9259 13.3576 14.3115 13.1632C15.3003 12.66 15.4027 12.1144 15.3955 11.6528Z" fill="#FFA8A7"/>
<path d="M12.8516 13.3521L12.8564 14.0721C12.9026 14.0733 12.9486 14.065 12.9915 14.0478C13.0345 14.0306 13.0734 14.0048 13.106 13.972C13.1386 13.9392 13.1642 13.9 13.1811 13.857C13.198 13.8139 13.2059 13.7679 13.2044 13.7217C13.2035 13.6268 13.1665 13.5358 13.101 13.4671C13.0355 13.3985 12.9463 13.3573 12.8516 13.3521Z" fill="#263238"/>
<path d="M15.4292 13.4545C15.4295 13.4883 15.4398 13.5213 15.4587 13.5493C15.4776 13.5774 15.5043 13.5993 15.5356 13.6123C15.5668 13.6253 15.6012 13.6288 15.6344 13.6225C15.6676 13.6161 15.6983 13.6002 15.7225 13.5766C15.7468 13.553 15.7635 13.5228 15.7708 13.4898C15.778 13.4567 15.7754 13.4223 15.7633 13.3907C15.7511 13.3591 15.73 13.3318 15.7024 13.3121C15.6749 13.2925 15.6422 13.2813 15.6084 13.2801C15.5851 13.2795 15.562 13.2837 15.5403 13.2922C15.5186 13.3007 15.4989 13.3134 15.4822 13.3297C15.4655 13.3459 15.4522 13.3653 15.4431 13.3867C15.434 13.4082 15.4293 13.4312 15.4292 13.4545Z" fill="black"/>
<path d="M14.0491 13.5313C14.0477 13.5561 14.0512 13.5809 14.0594 13.6044C14.0677 13.6278 14.0804 13.6494 14.097 13.6679C14.1136 13.6864 14.1336 13.7015 14.156 13.7122C14.1784 13.7229 14.2027 13.7292 14.2275 13.7305C14.2527 13.7307 14.2777 13.7259 14.301 13.7165C14.3243 13.707 14.3456 13.693 14.3635 13.6753C14.3814 13.6576 14.3956 13.6366 14.4054 13.6134C14.4152 13.5902 14.4202 13.5653 14.4203 13.5401C14.4211 13.5157 14.4171 13.4914 14.4085 13.4686C14.3999 13.4458 14.3869 13.4249 14.3702 13.4071C14.3535 13.3893 14.3335 13.375 14.3113 13.3649C14.2891 13.3549 14.2651 13.3493 14.2407 13.3485C14.2164 13.3477 14.1921 13.3517 14.1692 13.3603C14.1464 13.3689 14.1255 13.3819 14.1077 13.3986C14.0899 13.4153 14.0756 13.4353 14.0656 13.4575C14.0555 13.4797 14.0499 13.5037 14.0491 13.5281V13.5313Z" fill="black"/>
<path d="M15.8865 13.1321L15.4409 12.9553C15.4512 12.9253 15.4676 12.8978 15.489 12.8744C15.5105 12.8511 15.5365 12.8324 15.5655 12.8196C15.5945 12.8067 15.6258 12.8 15.6575 12.7998C15.6892 12.7996 15.7206 12.806 15.7497 12.8185C15.8084 12.8432 15.8554 12.8895 15.8809 12.9479C15.9063 13.0063 15.9084 13.0723 15.8865 13.1321Z" fill="black"/>
<path d="M15.0068 13.3137L14.9844 14.3809L15.558 14.2537L15.0068 13.3137Z" fill="#F28F8F"/>
<path d="M14.3306 14.5984L14.8906 14.772C14.8824 14.8102 14.8665 14.8463 14.8438 14.878C14.8211 14.9098 14.7922 14.9366 14.7587 14.9567C14.7253 14.9768 14.688 14.9898 14.6493 14.9949C14.6106 15 14.5713 14.9971 14.5338 14.9864C14.4569 14.9597 14.3931 14.9047 14.3554 14.8326C14.3176 14.7605 14.3087 14.6768 14.3306 14.5984Z" fill="#B16668"/>
<path d="M14.6402 14.996C14.6395 14.9181 14.6082 14.8436 14.5529 14.7888C14.4976 14.7339 14.4229 14.7032 14.345 14.7032C14.3372 14.7028 14.3295 14.7028 14.3218 14.7032C14.3246 14.7657 14.3462 14.8259 14.3838 14.876C14.4213 14.926 14.473 14.9637 14.5322 14.984C14.5669 14.9954 14.6037 14.9995 14.6402 14.996Z" fill="#F28F8F"/>
<path d="M14.5048 15.6201C14.1008 15.5721 13.268 15.3401 13.1328 15.0017C13.187 15.1716 13.2909 15.3212 13.4312 15.4313C13.6824 15.6473 14.5048 15.8721 14.5048 15.8721V15.6201Z" fill="#F28F8F"/>
<path d="M12.8314 15.7321C12.7258 15.7105 12.6322 15.7569 12.5458 15.9025C12.4594 16.0481 12.2698 16.3585 12.2698 16.3585C12.2698 16.3585 12.1714 17.3817 12.2698 17.6385C12.3546 17.8593 13.2898 18.6873 13.2898 18.6873C13.2898 18.6873 13.0458 19.6065 13.037 19.9081C13.0282 20.2097 13.597 21.3545 13.6658 21.9401C13.6658 21.9401 13.8682 20.1001 13.781 19.4369C13.6306 18.2873 13.0914 16.8025 12.837 16.3305L12.8314 15.7321Z" fill="#EBEBEB"/>
<path d="M13.4035 19.54C13.3411 19.3914 13.2675 19.2478 13.1835 19.1104C13.0507 18.8904 12.8867 18.6792 12.7387 18.6248C12.7162 18.6158 12.6924 18.611 12.6683 18.6104H12.6603C12.6359 18.6117 12.612 18.6177 12.5899 18.628C12.4731 18.68 12.3499 18.8392 12.2499 19.0224C12.1475 19.2063 12.0631 19.3997 11.9979 19.6C11.9595 19.724 11.9763 19.9872 12.0219 20.288C12.1115 20.872 12.3107 21.6016 12.4219 21.7456C12.5034 21.8462 12.5997 21.9338 12.7075 22.0056C12.6415 22.0492 12.5702 22.0844 12.4955 22.1104C12.4532 22.1258 12.4085 22.1336 12.3635 22.1336V22.2384H12.3763C12.4238 22.2376 12.471 22.2298 12.5163 22.2152C12.6211 22.1811 12.7202 22.1312 12.8099 22.0672C12.9046 22.1235 13.0074 22.1651 13.1147 22.1904C13.1652 22.2025 13.2174 22.2057 13.2691 22.2L13.2563 22.096C13.2115 22.0997 13.1664 22.0962 13.1227 22.0856C13.0457 22.0655 12.9715 22.0359 12.9019 21.9976C13.0034 21.9167 13.0924 21.8213 13.1659 21.7144C13.2283 21.6192 13.3051 21.2912 13.3627 20.9144C13.3979 20.6896 13.4267 20.448 13.4427 20.228C13.4603 19.9208 13.4523 19.6576 13.4035 19.54ZM13.0731 21.6568C12.998 21.765 12.9059 21.8604 12.8003 21.9392C12.6881 21.8699 12.5881 21.7826 12.5043 21.6808C12.4003 21.5456 12.2083 20.8336 12.1219 20.272C12.0779 19.988 12.0619 19.7424 12.0971 19.632C12.1623 19.4293 12.2487 19.2341 12.3547 19.0496C12.4651 18.8592 12.5827 18.7192 12.6643 18.716C12.7611 18.716 12.9179 18.8912 13.0643 19.116C13.0939 19.16 13.1219 19.208 13.1491 19.256C13.2088 19.3593 13.2622 19.4662 13.3091 19.576C13.3531 19.6848 13.3579 19.9304 13.3379 20.216C13.3267 20.376 13.3091 20.5432 13.2867 20.7096C13.2259 21.144 13.1403 21.5512 13.0731 21.6544V21.6568Z" fill="#455A64"/>
<path d="M13.4122 22.1383C13.4134 22.1689 13.4056 22.1991 13.3896 22.2252C13.3737 22.2512 13.3504 22.272 13.3226 22.2848C13.2949 22.2976 13.264 22.3019 13.2338 22.2971C13.2036 22.2924 13.1755 22.2787 13.1531 22.258C13.1306 22.2372 13.1149 22.2103 13.1078 22.1806C13.1006 22.1508 13.1025 22.1197 13.1131 22.091C13.1237 22.0624 13.1426 22.0375 13.1674 22.0196C13.1921 22.0016 13.2216 21.9915 13.2522 21.9903C13.293 21.9888 13.3328 22.0035 13.3628 22.0313C13.3927 22.059 13.4105 22.0975 13.4122 22.1383Z" fill="#263238"/>
<path d="M12.5152 22.1801C12.5166 22.2106 12.5089 22.2409 12.493 22.2671C12.4772 22.2933 12.4539 22.3141 12.4262 22.3271C12.3985 22.34 12.3675 22.3444 12.3373 22.3397C12.3071 22.335 12.2789 22.3215 12.2564 22.3008C12.2339 22.2801 12.218 22.2531 12.2109 22.2234C12.2037 22.1936 12.2055 22.1624 12.2161 22.1337C12.2267 22.105 12.2455 22.0801 12.2703 22.0622C12.2951 22.0442 12.3246 22.034 12.3552 22.0329C12.3754 22.032 12.3955 22.0351 12.4145 22.0421C12.4334 22.049 12.4508 22.0596 12.4657 22.0733C12.4806 22.0869 12.4926 22.1034 12.5011 22.1217C12.5096 22.1401 12.5144 22.1599 12.5152 22.1801Z" fill="#263238"/>
<path d="M13.4297 20.2265L13.3409 20.2201C13.3319 20.2193 13.3235 20.215 13.3175 20.2081C13.3116 20.2013 13.3085 20.1924 13.3089 20.1833C13.3273 19.8897 13.3177 19.6737 13.2817 19.5873C13.1265 19.2081 12.8017 18.7329 12.6649 18.7385C12.5281 18.7441 12.2449 19.2457 12.1217 19.6361C12.0937 19.7257 12.1025 19.9417 12.1449 20.2329C12.1463 20.2418 12.1442 20.2509 12.1389 20.2582C12.1337 20.2656 12.1258 20.2705 12.1169 20.2721L12.0289 20.2857C12.0197 20.2868 12.0104 20.2843 12.0031 20.2786C11.9957 20.2729 11.9909 20.2645 11.9897 20.2553C11.9409 19.9289 11.9353 19.7049 11.9721 19.5889C12.0377 19.3793 12.3473 18.5945 12.6585 18.5817C12.9697 18.5689 13.3449 19.3241 13.4281 19.5281C13.4737 19.6401 13.4873 19.8641 13.4665 20.1929C13.4659 20.2022 13.4617 20.2108 13.4549 20.2171C13.448 20.2234 13.439 20.2267 13.4297 20.2265Z" fill="#0085FF"/>
<path d="M11.5114 16.4928C10.9258 16.4832 10.6554 16.6808 10.2842 17.1776C9.9898 17.572 8.8442 19.7032 8.4642 20.3256L6.3954 19.22C5.977 18.9312 5.8418 18.4752 5.577 18.2088C5.3122 17.9424 5.0378 17.8888 4.7466 17.6688C4.4554 17.4488 4.337 17.2776 4.253 17.4832C4.169 17.6888 4.493 18.0216 4.5546 18.104C4.6162 18.1864 4.941 18.3696 4.5194 18.376C4.0978 18.3824 3.2634 17.9456 3.0602 17.868C2.857 17.7904 2.869 18.0328 2.969 18.188C3.069 18.3432 3.0642 18.7816 3.233 19.0352C3.4114 19.304 3.509 19.4208 3.9066 19.5952C4.2762 19.7552 5.0522 19.8192 5.445 20.0648C5.8378 20.3104 6.8114 21.176 7.4034 21.6952C8.1562 22.3552 8.6754 22.476 9.0946 22.08C9.5018 21.6536 9.9146 21.1536 10.1162 20.9C10.6594 20.216 11.5186 18.66 11.5186 18.66C11.5186 18.66 11.8906 17.86 11.5114 16.4928Z" fill="#FFA8A7"/>
<path d="M11.592 16.4343C10.7296 16.4343 10.472 16.7463 10.0304 17.4671C9.58884 18.1879 8.45604 20.2511 8.45604 20.2511L6.82484 19.3967C6.82484 19.3967 6.53124 20.0431 6.21924 20.7095C6.21924 20.7095 7.14244 21.5095 7.57924 21.8879C8.01604 22.2663 8.59524 22.5631 9.13204 22.0999C9.70564 21.6055 11.5656 19.0367 11.5656 19.0367C12.0072 18.2351 11.9088 17.0199 11.592 16.4343Z" fill="#F0F0F0"/>
<path d="M8.45605 20.2512C8.72245 20.5648 9.04485 20.9176 9.03045 21.1952C9.03045 21.1952 9.21286 20.9488 8.57206 20.0408L8.45605 20.2512Z" fill="#E0E0E0"/>
<path d="M5.37042 12.5575L4.70322 12.9399L4.70562 12.1735L4.20642 11.8855L3.04242 12.5575V13.9015L1.87842 14.5735V15.9175L2.37762 16.2055L3.04242 15.8215V16.5903L3.54162 16.8783L4.70562 16.2055V14.8615L5.86962 14.1895V12.8455L5.37042 12.5575Z" fill="#0085FF"/>
<path d="M2.37744 14.8616V16.2056L3.54144 15.5336V16.8784L4.70544 16.2056V14.8616L5.86944 14.1896V12.8456L4.70144 13.52L4.70544 12.1736L3.54144 12.8456V14.1896L2.37744 14.8616Z" fill="#0085FF"/>
<g opacity="0.2">
<path d="M2.37762 16.2057L1.87842 15.9177V14.5737L2.37762 14.8617V16.2057Z" fill="black"/>
<path d="M3.54168 12.8456L3.04248 12.5576V13.9016L3.54168 14.1896V12.8456Z" fill="black"/>
<path d="M3.54168 16.8785L3.04248 16.5905V15.8217L3.54168 15.5337V16.8785Z" fill="black"/>
</g>
<g opacity="0.5">
<path d="M3.54162 14.1896L3.04242 13.9016L1.87842 14.5736L2.37762 14.8616L3.54162 14.1896Z" fill="white"/>
<path d="M4.70568 12.1735L4.20648 11.8855L3.04248 12.5575L3.54168 12.8455L4.70568 12.1735Z" fill="white"/>
<path d="M5.86966 12.8456L5.37046 12.5576L4.70326 12.94L4.70166 13.52L5.86966 12.8456Z" fill="white"/>
</g>
<path d="M24.5162 9.86001C24.4951 9.8417 24.4723 9.82537 24.4482 9.81121C24.3634 9.76081 23.9794 9.54001 23.9594 9.52801C23.7562 9.39841 23.4346 9.42721 23.1482 9.57201C22.7378 9.77921 22.3962 10.2168 22.1354 10.9456C22.1354 10.9456 21.8714 10.756 21.7858 10.7056C21.5738 10.5896 21.3258 10.6456 21.0466 10.8272C20.7322 11.032 20.5178 11.2976 20.3218 11.6992V11.7064C20.152 12.0474 20.0591 12.4216 20.0498 12.8024C20.0498 13.6448 20.3946 14.0464 20.8434 14.348C20.9714 14.4344 21.3098 14.616 21.3434 14.6384C21.6143 14.8172 21.9138 14.9482 22.229 15.0256L22.6714 15.1288L23.1138 14.5152C23.4359 14.0628 23.7316 13.5921 23.9994 13.1056C24.4482 12.2856 24.7994 11.4824 24.793 10.6432C24.7866 10.284 24.6834 10.02 24.5162 9.86001Z" fill="#0085FF"/>
<path opacity="0.3" d="M24.5162 9.86001C24.4951 9.8417 24.4723 9.82537 24.4482 9.81121C24.3634 9.76081 23.9794 9.54001 23.9594 9.52801C23.7562 9.39841 23.4346 9.42721 23.1482 9.57201C22.7378 9.77921 22.3962 10.2168 22.1354 10.9456C22.1354 10.9456 21.8714 10.756 21.7858 10.7056C21.5738 10.5896 21.3258 10.6456 21.0466 10.8272C20.7322 11.032 20.5178 11.2976 20.3218 11.6992V11.7064C20.152 12.0474 20.0591 12.4216 20.0498 12.8024C20.0498 13.6448 20.3946 14.0464 20.8434 14.348C20.9714 14.4344 21.3098 14.616 21.3434 14.6384C21.6143 14.8172 21.9138 14.9482 22.229 15.0256L22.6714 15.1288L23.1138 14.5152C23.4359 14.0628 23.7316 13.5921 23.9994 13.1056C24.4482 12.2856 24.7994 11.4824 24.793 10.6432C24.7866 10.284 24.6834 10.02 24.5162 9.86001Z" fill="black"/>
<path d="M24.5163 9.86001C24.4951 9.8417 24.4724 9.82537 24.4483 9.81121C24.3635 9.76081 23.9795 9.54001 23.9595 9.52801C23.7563 9.39841 23.4347 9.42721 23.1483 9.57201C22.7379 9.77921 22.3963 10.2168 22.1355 10.9456C22.1355 10.9456 21.8715 10.756 21.7859 10.7056C21.5739 10.5896 21.3259 10.6456 21.0467 10.8272C20.7323 11.032 20.5179 11.2976 20.3219 11.6992V11.7064C20.3131 11.724 20.3059 11.7416 20.2979 11.7592L23.6579 13.6968C23.7771 13.5032 23.8931 13.3072 24.0035 13.1056C24.4523 12.2856 24.8035 11.4824 24.7971 10.6432C24.7867 10.284 24.6835 10.02 24.5163 9.86001Z" fill="#0085FF"/>
<path opacity="0.15" d="M24.5163 9.86001C24.4951 9.8417 24.4724 9.82537 24.4483 9.81121C24.3635 9.76081 23.9795 9.54001 23.9595 9.52801C23.7563 9.39841 23.4347 9.42721 23.1483 9.57201C22.7379 9.77921 22.3963 10.2168 22.1355 10.9456C22.1355 10.9456 21.8715 10.756 21.7859 10.7056C21.5739 10.5896 21.3259 10.6456 21.0467 10.8272C20.7323 11.032 20.5179 11.2976 20.3219 11.6992V11.7064C20.3131 11.724 20.3059 11.7416 20.2979 11.7592L23.6579 13.6968C23.7771 13.5032 23.8931 13.3072 24.0035 13.1056C24.4523 12.2856 24.8035 11.4824 24.7971 10.6432C24.7867 10.284 24.6835 10.02 24.5163 9.86001Z" fill="black"/>
<path d="M22.1328 10.9425L22.5824 11.5289L23.3072 10.6713L22.488 10.1985C22.3421 10.4324 22.223 10.682 22.1328 10.9425Z" fill="#0085FF"/>
<path opacity="0.3" d="M22.1328 10.9425L22.5824 11.5289L23.3072 10.6713L22.488 10.1985C22.3421 10.4324 22.223 10.682 22.1328 10.9425Z" fill="black"/>
<path d="M24.5162 9.8599C24.3202 9.6847 23.9634 9.6999 23.6482 9.8599C23.2186 10.0775 22.8634 10.5471 22.5978 11.3423C22.3322 10.8543 21.977 10.8391 21.5474 11.1183C21.2322 11.3231 21.0178 11.5887 20.8226 11.9903L20.8186 11.9975C20.6493 12.339 20.5568 12.7133 20.5474 13.0943C20.5474 13.9367 20.893 14.3383 21.341 14.6399C21.6118 14.8187 21.9114 14.9497 22.2266 15.0271L22.669 15.1303L23.1114 14.5167C23.4334 14.0643 23.7291 13.5936 23.997 13.1071C24.4458 12.2871 24.797 11.4839 24.7906 10.6447C24.7866 10.2839 24.6834 10.0199 24.5162 9.8599Z" fill="#0085FF"/>
<g opacity="0.07">
<path d="M24.1385 9.77995C24.2618 9.77431 24.3831 9.81321 24.4801 9.88955C24.4818 9.893 24.4842 9.89601 24.4873 9.89835C24.6521 10.0487 24.7441 10.3159 24.7449 10.6487C24.7449 11.5247 24.3449 12.3751 23.9569 13.0903C23.691 13.5753 23.3972 14.0443 23.0769 14.4951L22.6521 15.0863L22.2385 14.9895C21.928 14.9133 21.6328 14.7845 21.3657 14.6087C20.9657 14.3367 20.5881 13.9687 20.5913 13.0983C20.5998 12.724 20.6896 12.3561 20.8545 12.0199V12.0127C21.0513 11.6087 21.2633 11.3535 21.5641 11.1583C21.7038 11.0547 21.8705 10.9936 22.0441 10.9823C22.2473 10.9823 22.4145 11.1079 22.5553 11.3663C22.5588 11.3733 22.5642 11.3791 22.5708 11.383C22.5775 11.387 22.5851 11.389 22.5929 11.3887H22.5969C22.6051 11.388 22.613 11.3849 22.6195 11.3798C22.626 11.3746 22.631 11.3678 22.6337 11.3599C22.8873 10.6007 23.2241 10.1239 23.6625 9.90235C23.8088 9.82568 23.9709 9.78379 24.1361 9.77995M24.1361 9.73755C23.9643 9.74109 23.7956 9.78435 23.6433 9.86395C23.2137 10.0815 22.8585 10.5511 22.5929 11.3463C22.4393 11.0631 22.2553 10.9391 22.0441 10.9391C21.8628 10.9511 21.6888 11.0146 21.5425 11.1223C21.2273 11.3271 21.0129 11.5927 20.8177 11.9943L20.8137 12.0015C20.6444 12.343 20.5519 12.7174 20.5425 13.0983C20.5425 13.9407 20.8881 14.3423 21.3361 14.6439C21.6069 14.8228 21.9065 14.9538 22.2217 15.0311L22.6641 15.1343L23.1065 14.5207C23.4286 14.0683 23.7243 13.5977 23.9921 13.1111C24.4409 12.2911 24.7921 11.4879 24.7857 10.6487C24.7857 10.2879 24.6809 10.0199 24.5137 9.86635C24.4081 9.78033 24.2745 9.73619 24.1385 9.74235L24.1361 9.73755Z" fill="black"/>
</g>
<path d="M24.4676 12.1281L23.6068 12.6257L23.2868 11.4617C23.2823 11.444 23.2719 11.4285 23.2574 11.4176C23.2428 11.4067 23.225 11.4011 23.2068 11.4017C23.1881 11.4013 23.1699 11.4075 23.1553 11.4192C23.1406 11.4309 23.1306 11.4473 23.1268 11.4657L22.6284 13.7425L22.2092 12.5953C22.2084 12.574 22.1992 12.554 22.1836 12.5396C22.168 12.5252 22.1473 12.5176 22.126 12.5185C22.1048 12.5193 22.0848 12.5285 22.0704 12.5441C22.056 12.5597 22.0484 12.5804 22.0492 12.6017L21.766 13.6073L20.8188 14.1545C20.85 14.1997 20.8837 14.2433 20.9196 14.2849L21.8796 13.7321C21.8982 13.7213 21.912 13.7038 21.918 13.6833L22.1412 12.8897L22.5708 14.0625C22.5766 14.0789 22.5874 14.093 22.6019 14.1026C22.6163 14.1123 22.6335 14.117 22.6508 14.1161C22.6686 14.1152 22.6855 14.1084 22.699 14.0968C22.7125 14.0852 22.7217 14.0695 22.7252 14.0521L23.2132 11.8265L23.4708 12.7713C23.4739 12.7834 23.4798 12.7947 23.488 12.8041C23.4962 12.8136 23.5065 12.821 23.5181 12.8258C23.5297 12.8305 23.5423 12.8325 23.5548 12.8315C23.5673 12.8305 23.5793 12.8266 23.59 12.8201L24.3548 12.3793C24.3988 12.2953 24.434 12.2121 24.4676 12.1281Z" fill="white"/>
<path d="M28.08 33.5232C28.0472 33.6316 28.0445 33.7469 28.072 33.8568C28.104 33.924 28.304 34.1448 28.712 34.2248C29.12 34.3048 29.6808 34.2248 29.9224 34.2104C30.164 34.196 30.9224 34.2904 31.1632 34.3208C31.5424 34.372 31.8336 34.2888 31.9752 34.152C31.9982 34.1245 32.0151 34.0925 32.0248 34.058C32.0346 34.0236 32.0371 33.9874 32.032 33.952C32.0312 33.8607 32.0177 33.77 31.992 33.6824L28.08 33.5232Z" fill="#263238"/>
<path d="M31.9296 33.2856C31.9368 33.3168 31.944 33.3488 31.9504 33.3808C31.9873 33.5418 31.9989 33.7075 31.9848 33.872C31.936 33.992 31.8024 34.0584 31.6944 34.092C31.4088 34.1832 31.192 34.172 30.876 34.1088C30.5582 34.0625 30.237 34.0427 29.916 34.0496C29.6672 34.0664 29.3248 34.1144 29.076 34.0912C28.8644 34.0824 28.6556 34.0397 28.4576 33.9648C28.292 33.8944 28.1224 33.8048 28.0816 33.632C28.0328 33.272 28.184 33.1136 28.3544 33.0128C28.5248 32.912 28.7672 32.92 29.0264 32.9032C29.2608 32.8872 29.432 32.8872 29.6408 32.8712C29.8213 32.8624 30.0007 32.8375 30.1768 32.7968C30.3368 32.7472 30.4968 32.5464 30.5624 32.5392C30.5624 32.5392 31.6064 32.5312 31.7056 32.5392C31.8208 32.5488 31.856 32.9056 31.8704 32.9832C31.8816 33.044 31.884 33.1096 31.9 33.168C31.9104 33.2072 31.92 33.2464 31.9296 33.2856Z" fill="#37474F"/>
<path d="M28.7127 34.0432C28.6799 33.784 28.6327 33.2224 29.1127 32.8976H29.1727C28.9572 32.8352 28.7283 32.8352 28.5127 32.8976C28.1311 32.9992 27.9615 33.308 28.0567 33.6344C28.0583 33.6312 28.1431 33.9472 28.7127 34.0432Z" fill="#FAFAFA"/>
<path d="M30.1056 32.8154C29.9512 32.9522 29.8976 33.2634 29.8976 33.2634C29.8776 33.3802 29.6664 33.3978 29.6864 33.285C29.7186 33.1299 29.7809 32.9826 29.8696 32.8514C29.942 32.8132 30.0251 32.8005 30.1056 32.8154Z" fill="#FAFAFA"/>
<path d="M29.6728 32.869C29.5563 32.983 29.4802 33.1318 29.456 33.293C29.4344 33.405 29.2584 33.4034 29.2712 33.293C29.2712 33.293 29.2912 33.017 29.456 32.8882C29.4879 32.8677 29.5243 32.8553 29.562 32.852C29.5998 32.8486 29.6378 32.8545 29.6728 32.869Z" fill="#FAFAFA"/>
<path d="M31.7377 31.78C31.7377 31.78 31.7097 32.4512 31.6729 32.6712C31.6505 32.8024 31.4785 32.94 31.0505 32.9256C30.7497 32.9152 30.5129 32.94 30.5249 32.7048L30.5513 32.0192L31.7377 31.78Z" fill="#FFA8A7"/>
<path d="M32.409 30.1946C32.3938 30.3778 32.369 30.5434 32.4442 30.745C32.5514 31.0346 32.7786 31.1674 32.9122 31.281C33.0527 31.4202 33.1824 31.57 33.3002 31.729C33.4314 31.889 33.4658 31.9842 33.6626 32.1586C33.7607 32.2341 33.8766 32.2828 33.9992 32.3001C34.1218 32.3173 34.2467 32.3025 34.3618 32.257C34.5322 32.1842 34.5914 32.1266 34.581 31.865C34.5706 31.6034 33.737 31.5146 33.737 31.5146L32.409 30.1946Z" fill="#263238"/>
<path d="M34.473 31.0858C34.5442 31.1114 34.5618 31.2402 34.573 31.4962C34.581 31.6898 34.6666 31.9762 34.3858 32.0954C34.1594 32.1938 33.7978 32.1282 33.645 31.9458C33.4546 31.7178 33.325 31.517 33.053 31.2394C32.813 30.9994 32.573 30.9194 32.4666 30.4354C32.3986 30.125 32.4522 29.997 32.6714 29.9082C32.973 29.7858 33.4458 30.185 33.6826 30.2482C33.8858 30.3018 34.4018 31.0602 34.473 31.0858Z" fill="#37474F"/>
<path d="M33.6827 30.248L33.6427 30.2344C33.5078 30.2394 33.3766 30.2796 33.2621 30.3511C33.1475 30.4225 33.0537 30.5227 32.9899 30.6416C32.9499 30.7256 33.0699 30.7912 33.1499 30.7256C33.3179 30.4056 33.6635 30.3368 33.8019 30.3216C33.7678 30.2889 33.7272 30.2638 33.6827 30.248Z" fill="#FAFAFA"/>
<path d="M33.8769 30.3938C33.7502 30.4057 33.6285 30.4488 33.5227 30.5193C33.4168 30.5898 33.3302 30.6855 33.2705 30.7978C33.2305 30.8778 33.3545 30.9474 33.4305 30.8778C33.4876 30.7777 33.5658 30.6912 33.6598 30.6245C33.7537 30.5578 33.8611 30.5123 33.9745 30.4914C33.9401 30.4594 33.9081 30.425 33.8769 30.3938Z" fill="#FAFAFA"/>
<path d="M34.5135 30.6233L34.4727 31.1633C34.4727 31.1633 34.1295 31.4137 33.6375 31.1841C33.6231 31.1545 33.5815 30.6713 33.5815 30.6713L34.5135 30.6233Z" fill="#FFA8A7"/>
<path d="M32.6048 30.7914C32.6048 30.7914 32.628 30.2178 33.4432 30.1386L33.4904 30.1634C33.3976 30.0196 33.2553 29.9148 33.0904 29.869C32.82 29.7994 32.6056 29.869 32.4632 30.0402C32.3208 30.2114 32.464 30.6802 32.6048 30.7914Z" fill="#FAFAFA"/>
<path d="M34.7511 27.0266C34.6343 26.0818 34.5911 25.5554 34.5911 25.5554C34.5911 25.5554 34.5679 24.225 34.6487 22.9954C34.6839 22.4562 34.7023 21.8594 34.7135 21.3154C34.7284 20.7163 34.6807 20.1173 34.5711 19.5282C34.5711 19.5282 30.3879 18.6962 30.3359 20.2306C30.2727 22.0706 30.2807 25.2154 30.2095 26.4162C30.1703 27.0906 30.2383 27.6498 30.2807 28.9602C30.3151 30.0466 30.3047 32.7202 30.3047 32.7202C30.7655 33.353 31.8535 32.8706 31.8535 32.8706C31.8535 32.8706 32.1895 29.1162 32.2391 28.3402C32.2919 27.5058 32.2039 27.0834 32.2039 27.0834L32.6351 23.1962C32.6351 23.1962 32.6679 24.4434 32.7047 25.1162C32.7415 25.789 32.8399 26.2026 33.0151 27.4578C33.1671 28.5474 33.4903 31.3282 33.4903 31.3282C34.0503 31.6594 34.5911 31.3282 34.5911 31.3282C34.5911 31.3282 34.8679 27.9714 34.7511 27.0266Z" fill="#455A64"/>
<path d="M34.1802 21.6577C34.1802 21.6577 33.6562 22.3265 32.9802 22.6137C32.9802 22.6137 32.6874 24.9649 32.6898 24.9185L32.6138 22.5521C32.6138 22.5521 33.6202 22.1073 34.1802 21.6577Z" fill="#37474F"/>
<path d="M34.1657 14.1001C34.6161 13.9993 35.1257 14.3209 35.4649 15.0385C35.7929 15.7249 36.6889 17.4585 36.7105 17.9441C36.7337 18.4473 34.4953 19.9737 34.5505 19.9441C34.5681 19.9353 34.1641 18.7897 34.1641 18.7897L35.2513 17.8897L34.6601 16.6721L34.1657 14.1001Z" fill="#FFA8A7"/>
<path d="M33.9287 13.9922C34.3079 13.9458 34.9951 14.089 35.2575 14.545C35.6383 15.205 35.9855 15.9682 36.4279 16.9546C36.4279 16.9546 36.0999 17.665 35.1559 17.7322L34.5903 16.7402L33.9287 13.9922Z" fill="#37474F"/>
<path d="M32.02 13.3977L32.0856 14.7977L33.4728 14.7233L33.4304 13.0969L32.02 13.3977Z" fill="#FFA8A7"/>
<path d="M34.8354 14.6968C34.7186 14.3152 34.3154 14.0008 33.8058 13.9856C33.6922 13.9856 33.4538 13.9856 33.4538 13.9856C33.3962 14.2216 32.6738 14.3056 32.0562 14.164C31.8698 14.2136 31.0962 14.404 30.9362 14.452C30.4922 14.5992 30.3554 15.052 30.2866 16.5C30.2866 16.5 30.3002 19.3544 30.2866 20.7168C31.0674 21.1288 32.2738 21.0776 33.1322 20.9904C34.481 20.8544 34.6818 20.3656 34.6818 20.3656C34.625 19.5712 34.6594 19.272 34.6818 18.488C34.6986 17.8984 34.8682 17.2752 34.9218 16.6072C35.001 15.6144 34.9146 14.9592 34.8354 14.6968Z" fill="#0085FF"/>
<path d="M31.8032 13.6635C31.4832 13.6411 31.0832 13.8963 30.98 14.4427L31.2408 14.3731L31.8032 13.6635Z" fill="#0085FF"/>
<path opacity="0.3" d="M31.8032 13.6635C31.4832 13.6411 31.0832 13.8963 30.98 14.4427L31.2408 14.3731L31.8032 13.6635Z" fill="black"/>
<path d="M32.0377 13.7801C32.2777 13.8601 32.9777 13.8489 33.2121 13.7801C33.4465 13.7113 33.4441 13.6073 33.4441 13.6073V13.4897C33.5793 13.4894 33.7114 13.5304 33.8225 13.6073C33.9721 13.7289 34.2297 14.1673 34.2225 14.3777C34.2153 14.5881 33.7657 15.1433 32.8985 15.1297C32.0313 15.1161 31.5441 14.7953 31.3945 14.5841L31.2441 14.3721C31.2441 14.3721 31.4497 13.9497 31.6521 13.7721C31.7559 13.6716 31.889 13.6066 32.0321 13.5865L32.0377 13.7801Z" fill="#0085FF"/>
<path opacity="0.2" d="M32.0377 13.7801C32.2777 13.8601 32.9777 13.8489 33.2121 13.7801C33.4465 13.7113 33.4441 13.6073 33.4441 13.6073V13.4897C33.5793 13.4894 33.7114 13.5304 33.8225 13.6073C33.9721 13.7289 34.2297 14.1673 34.2225 14.3777C34.2153 14.5881 33.7657 15.1433 32.8985 15.1297C32.0313 15.1161 31.5441 14.7953 31.3945 14.5841L31.2441 14.3721C31.2441 14.3721 31.4497 13.9497 31.6521 13.7721C31.7559 13.6716 31.889 13.6066 32.0321 13.5865L32.0377 13.7801Z" fill="black"/>
<path d="M31.0863 11.6809C31.0863 11.6809 30.7559 12.1825 30.7935 12.2313C30.8311 12.2801 31.0743 12.3257 31.0743 12.3257L31.0863 11.6809Z" fill="#F28F8F"/>
<path d="M32.005 10.2921C31.3362 10.4337 31.069 10.6297 31.0274 11.7729C30.9874 12.8849 31.1274 13.2513 31.273 13.4009C31.3714 13.5017 31.9194 13.5201 32.1954 13.4433C32.541 13.3481 33.3226 13.0713 33.6882 12.5129C34.1186 11.8553 34.2314 10.9641 33.7682 10.5985C33.1226 10.0841 32.2778 10.2345 32.005 10.2921Z" fill="#FFA8A7"/>
<path d="M31.2729 13.4C31.3529 13.48 31.7361 13.5104 32.0241 13.4752L32.0201 13.3096C31.7815 13.3976 31.5257 13.4286 31.2729 13.4Z" fill="#F28F8F"/>
<path d="M30.9385 10.7217C31.1051 10.8411 31.3118 10.8908 31.5145 10.8601C31.5105 10.9497 31.5345 11.0384 31.5833 11.1137C31.6512 11.2164 31.7541 11.2909 31.8729 11.3233C31.7996 11.4668 31.7608 11.6254 31.7593 11.7865C31.7548 11.8371 31.7657 11.8878 31.7905 11.9321C31.7982 11.9482 31.8102 11.9618 31.8253 11.9713C31.8404 11.9808 31.8579 11.9858 31.8757 11.9858C31.8935 11.9858 31.911 11.9808 31.926 11.9713C31.9411 11.9618 31.9532 11.9482 31.9609 11.9321C31.9985 11.847 32.0457 11.7665 32.1017 11.6921C32.1742 11.6053 32.2762 11.5483 32.3881 11.5321C32.8081 11.4865 32.8609 12.0361 32.6929 12.2641C32.4177 12.6369 32.1841 12.3841 32.1841 12.3841C32.1734 12.5588 32.1999 12.7339 32.262 12.8976C32.324 13.0613 32.4202 13.21 32.5441 13.3337C32.8426 13.4217 33.1591 13.4297 33.4617 13.3569C33.8345 12.8441 34.0689 12.5945 34.2681 12.1521C34.6889 11.2153 34.4857 10.6273 34.1601 10.3793C34.0961 9.94809 33.7561 9.75449 33.3681 9.66569C32.7889 9.53209 32.2481 9.87609 31.6737 9.74569C31.5794 9.72595 31.4862 9.70139 31.3945 9.67209C31.3591 9.65552 31.3188 9.65294 31.2817 9.66489C31.2611 9.67856 31.245 9.69798 31.2353 9.72073C31.2256 9.74348 31.2228 9.76857 31.2273 9.79289C31.2345 9.90329 31.3465 10.0257 31.4033 10.0849C31.2778 10.0964 31.1514 10.0891 31.0281 10.0633C30.9853 10.0553 30.9413 10.0553 30.8985 10.0633C30.8515 10.0824 30.8118 10.116 30.785 10.1591C30.7583 10.2022 30.7459 10.2527 30.7497 10.3033C30.7502 10.3823 30.7672 10.4604 30.7997 10.5325C30.8322 10.6046 30.8795 10.669 30.9385 10.7217Z" fill="#263238"/>
<path d="M34.1704 10.5185L34.5704 10.2785C34.5386 10.2255 34.487 10.1873 34.427 10.1722C34.367 10.1572 34.3035 10.1667 34.2504 10.1985C34.1974 10.2303 34.1592 10.2819 34.1442 10.342C34.1292 10.402 34.1386 10.4655 34.1704 10.5185Z" fill="#263238"/>
<path d="M28.9577 16.8202C28.867 16.4639 28.7796 16.1071 28.6953 15.7498C28.6153 15.421 28.4921 15.0402 28.6049 14.7042C28.669 14.5574 28.7495 14.4184 28.8449 14.2898C28.9274 14.1542 28.9971 14.0112 29.0529 13.8626C29.0809 13.7906 29.1065 13.717 29.1329 13.6442C29.1593 13.5714 29.1969 13.5298 29.1793 13.4602C29.1209 13.2322 28.8265 13.5314 28.7665 13.625C28.7399 13.6741 28.7088 13.7207 28.6737 13.7642C28.6353 13.805 28.5417 13.8562 28.4969 13.7962C28.4819 13.7721 28.4737 13.7445 28.4729 13.7162C28.4425 13.365 28.5689 13.0506 28.6737 12.7226C28.6902 12.6795 28.7002 12.6342 28.7033 12.5882C28.7052 12.5652 28.7021 12.5421 28.6942 12.5204C28.6864 12.4987 28.6739 12.479 28.6577 12.4626C28.6316 12.4426 28.6007 12.4298 28.5681 12.4256C28.5355 12.4214 28.5024 12.4259 28.4721 12.4386C28.4129 12.4586 28.3617 12.4962 28.3025 12.5146C28.2433 12.533 28.1993 12.533 28.1473 12.5466C28.0239 12.5741 27.9051 12.6191 27.7945 12.6802C27.6025 12.793 27.5177 12.9578 27.4673 13.1674C27.4067 13.4248 27.3862 13.6901 27.4065 13.9538C27.4201 14.129 27.4513 14.3018 27.4729 14.4746L27.5449 15.053C27.5937 15.4386 27.6081 17.365 27.6745 17.7482C27.7409 18.1314 27.8689 18.3882 28.1721 18.5154C28.6121 18.6946 29.3233 17.885 29.7273 17.4658L28.9577 16.8202Z" fill="#FFA8A7"/>
<path d="M28.7967 16.6017C28.5135 16.8137 28.1607 17.1665 28.0895 17.5201C28.0895 17.5201 28.0191 16.8841 28.7967 16.3201V16.6017Z" fill="#F28F8F"/>
<path d="M30.9136 14.4609C30.6416 14.4865 30.1936 14.4961 29.7376 14.9865C29.2088 15.5593 28.3936 16.6889 28.3936 16.6889C28.3936 16.6889 28.5 17.5881 29.3656 17.9105C29.3656 17.9105 30.624 16.7105 30.8944 16.1937C31.1648 15.6769 31.2256 14.8201 30.9136 14.4609Z" fill="#37474F"/>
<path d="M30.5513 12.5599L30.2073 12.3751L30.4049 12.2063L29.6905 11.8719L30.0025 11.6911L29.2329 11.2815L29.6905 11.6855L29.3185 11.8719L30.1577 12.2351L29.9505 12.4423L30.5513 12.5599Z" fill="#0085FF"/>
<path d="M30.7266 12.1064L30.5026 11.892L30.625 11.8016L30.4282 11.568L30.617 11.504L30.5514 11.208L30.6842 11.5272L30.5514 11.5848L30.7642 11.8184L30.6202 11.9208L30.7266 12.1064Z" fill="#0085FF"/>
<path d="M30.596 12.8985L30.1736 13.2281L30.0176 12.9985L29.648 13.1993L29.4968 12.9153L28.9248 13.0617L29.5864 12.7449L29.776 13.0065L30.0832 12.8417L30.2112 13.0617L30.596 12.8985Z" fill="#0085FF"/>
<path d="M27.6592 18.7968C27.672 18.7861 27.6886 18.781 27.7052 18.7825C27.7219 18.784 27.7373 18.792 27.748 18.8048C27.8298 18.8967 27.936 18.9634 28.0543 18.9971C28.1726 19.0308 28.2981 19.0301 28.416 18.9952C28.424 18.9924 28.4326 18.9912 28.4411 18.9917C28.4496 18.9923 28.4579 18.9946 28.4655 18.9984C28.4731 19.0023 28.4799 19.0076 28.4854 19.0141C28.4909 19.0207 28.495 19.0282 28.4975 19.0364C28.5 19.0446 28.5008 19.0531 28.4998 19.0616C28.4989 19.0701 28.4963 19.0783 28.4921 19.0857C28.488 19.0932 28.4823 19.0997 28.4756 19.1049C28.4688 19.1101 28.4611 19.1139 28.4528 19.116C28.3114 19.1579 28.1609 19.1584 28.0192 19.1176C27.8774 19.0768 27.7503 18.9963 27.6528 18.8856C27.6473 18.8794 27.6431 18.8721 27.6405 18.8643C27.6378 18.8564 27.6368 18.8481 27.6374 18.8399C27.638 18.8316 27.6402 18.8235 27.6439 18.8161C27.6477 18.8087 27.6529 18.8022 27.6592 18.7968Z" fill="#E0E0E0"/>
<path d="M27.7235 19.2201C27.7347 19.2107 27.7489 19.2056 27.7635 19.2056C27.7781 19.2056 27.7923 19.2107 27.8035 19.2201C27.8686 19.2672 27.9433 19.2994 28.0222 19.3146C28.1011 19.3298 28.1824 19.3276 28.2603 19.3081C28.2768 19.305 28.2939 19.3086 28.3078 19.318C28.3218 19.3275 28.3314 19.342 28.3347 19.3585C28.3363 19.3666 28.3363 19.3749 28.3347 19.383C28.3331 19.3911 28.3299 19.3988 28.3253 19.4056C28.3207 19.4125 28.3147 19.4183 28.3078 19.4229C28.3009 19.4274 28.2932 19.4305 28.2851 19.4321C28.1887 19.4544 28.0886 19.4554 27.9919 19.4348C27.8951 19.4142 27.804 19.3726 27.7251 19.3129C27.7188 19.3075 27.7136 19.3009 27.7099 19.2935C27.7061 19.2861 27.7039 19.2781 27.7033 19.2698C27.7027 19.2615 27.7037 19.2532 27.7064 19.2454C27.709 19.2375 27.7132 19.2303 27.7187 19.2241C27.7201 19.2225 27.7217 19.2212 27.7235 19.2201Z" fill="#E0E0E0"/>
<path d="M35.5786 14.3713C35.5712 14.3751 35.5631 14.3774 35.5548 14.3781C35.5465 14.3787 35.5382 14.3777 35.5303 14.3751C35.5224 14.3725 35.5151 14.3684 35.5088 14.3629C35.5026 14.3574 35.4974 14.3507 35.4938 14.3433C35.4354 14.235 35.3475 14.1455 35.2403 14.0852C35.1331 14.0249 35.011 13.9962 34.8882 14.0025C34.8799 14.0029 34.8716 14.0018 34.8637 13.999C34.8559 13.9963 34.8486 13.992 34.8424 13.9865C34.8299 13.9753 34.8223 13.9596 34.8214 13.9429C34.8204 13.9261 34.8262 13.9096 34.8374 13.8971C34.8485 13.8846 34.8642 13.877 34.881 13.8761C35.0285 13.8683 35.1751 13.9029 35.3036 13.9756C35.4321 14.0483 35.5372 14.1561 35.6066 14.2865C35.6139 14.3015 35.6151 14.3187 35.6098 14.3346C35.6046 14.3504 35.5934 14.3636 35.5786 14.3713Z" fill="#E0E0E0"/>
<path d="M35.6136 13.9474C35.6002 13.9544 35.5847 13.9564 35.57 13.9529C35.5553 13.9493 35.5424 13.9406 35.5336 13.9282C35.482 13.8679 35.418 13.8193 35.3459 13.7859C35.2738 13.7525 35.1954 13.735 35.116 13.7346C35.1077 13.7343 35.0996 13.7323 35.092 13.7289C35.0845 13.7254 35.0777 13.7205 35.072 13.7144C35.0664 13.7083 35.062 13.7012 35.0591 13.6934C35.0562 13.6856 35.0549 13.6773 35.0552 13.669C35.0555 13.6607 35.0575 13.6525 35.061 13.645C35.0644 13.6374 35.0693 13.6307 35.0754 13.625C35.0815 13.6194 35.0887 13.615 35.0965 13.6121C35.1042 13.6092 35.1125 13.6079 35.1208 13.6082C35.2195 13.6092 35.3167 13.6318 35.4057 13.6743C35.4947 13.7169 35.5733 13.7784 35.636 13.8546C35.645 13.8681 35.6484 13.8847 35.6454 13.9007C35.6424 13.9166 35.6333 13.9308 35.62 13.9402L35.6136 13.9474Z" fill="#E0E0E0"/>
<path d="M36.7319 18.5586C36.7239 18.5439 36.722 18.5267 36.7266 18.5107C36.7313 18.4946 36.7421 18.4811 36.7567 18.473C36.862 18.4096 36.9472 18.3176 37.0023 18.2077C37.0574 18.0978 37.0802 17.9745 37.0679 17.8522C37.0669 17.8439 37.0675 17.8355 37.0698 17.8275C37.0721 17.8195 37.076 17.8121 37.0812 17.8056C37.0864 17.7991 37.0929 17.7937 37.1002 17.7898C37.1075 17.7858 37.1156 17.7834 37.1239 17.7826C37.1405 17.7808 37.1572 17.7857 37.1703 17.7962C37.1833 17.8067 37.1917 17.8219 37.1935 17.8386C37.2077 17.9849 37.1802 18.1322 37.1141 18.2635C37.048 18.3948 36.9459 18.5046 36.8199 18.5802C36.8127 18.5847 36.8047 18.5877 36.7964 18.589C36.788 18.5903 36.7795 18.59 36.7713 18.588C36.7631 18.586 36.7554 18.5823 36.7486 18.5773C36.7418 18.5722 36.7362 18.5659 36.7319 18.5586Z" fill="#E0E0E0"/>
<path d="M37.1568 18.5738C37.1497 18.5607 37.1473 18.5456 37.1501 18.531C37.1528 18.5164 37.1606 18.5032 37.172 18.4938C37.2301 18.4395 37.2756 18.3732 37.3056 18.2996C37.3356 18.226 37.3492 18.1467 37.3456 18.0673C37.3456 18.0506 37.3523 18.0345 37.3641 18.0227C37.376 18.0108 37.3921 18.0042 37.4088 18.0042C37.4256 18.0042 37.4417 18.0108 37.4535 18.0227C37.4654 18.0345 37.472 18.0506 37.472 18.0673C37.4755 18.1658 37.4575 18.2639 37.4194 18.3548C37.3813 18.4457 37.3239 18.5272 37.2512 18.5938C37.2447 18.5989 37.2372 18.6027 37.2293 18.605C37.2213 18.6072 37.2129 18.6079 37.2047 18.6069C37.1964 18.606 37.1884 18.6034 37.1812 18.5994C37.1739 18.5953 37.1676 18.5899 37.1624 18.5833L37.1568 18.5738Z" fill="#E0E0E0"/>
<path d="M29.7977 26.1801C29.8127 26.1877 29.8241 26.2008 29.8294 26.2167C29.8348 26.2325 29.8338 26.2498 29.8265 26.2649C29.7759 26.3769 29.7581 26.501 29.7754 26.6227C29.7927 26.7444 29.8443 26.8587 29.9241 26.9521C29.9349 26.965 29.9403 26.9816 29.9389 26.9984C29.9376 27.0152 29.9297 27.0307 29.9169 27.0417C29.9043 27.0526 29.8878 27.058 29.8712 27.0568C29.8546 27.0556 29.8391 27.0479 29.8281 27.0353C29.7322 26.9229 29.6704 26.7853 29.65 26.6389C29.6296 26.4925 29.6514 26.3433 29.7129 26.2089C29.7205 26.194 29.7336 26.1826 29.7495 26.1772C29.7653 26.1718 29.7826 26.1729 29.7977 26.1801Z" fill="#E0E0E0"/>
<path d="M29.4393 26.408C29.453 26.4144 29.4639 26.4256 29.4701 26.4394C29.4762 26.4532 29.4773 26.4687 29.4729 26.4832C29.4562 26.5609 29.4564 26.6413 29.4737 26.7189C29.4909 26.7966 29.5248 26.8695 29.5729 26.9328C29.5824 26.9465 29.5861 26.9634 29.5832 26.9799C29.5804 26.9963 29.5712 27.011 29.5577 27.0208C29.5441 27.0304 29.5271 27.0342 29.5106 27.0314C29.4941 27.0285 29.4794 27.0193 29.4697 27.0056C29.4104 26.9265 29.3691 26.8354 29.3487 26.7387C29.3282 26.6419 29.3291 26.5419 29.3513 26.4456C29.3538 26.4376 29.3578 26.4301 29.3632 26.4236C29.3686 26.4172 29.3752 26.4119 29.3826 26.408C29.3901 26.4041 29.3982 26.4018 29.4066 26.4011C29.4149 26.4004 29.4234 26.4014 29.4313 26.404L29.4393 26.408Z" fill="#E0E0E0"/>
<path d="M25.0957 4.21599C25.0917 4.1414 25.0702 4.06879 25.0328 4.00413C24.9954 3.93947 24.9432 3.88459 24.8805 3.84399L24.7061 3.74239C24.6394 3.70902 24.5658 3.69165 24.4913 3.69165C24.4167 3.69165 24.3432 3.70902 24.2765 3.74239L20.2245 6.08399C20.1619 6.12469 20.1097 6.17959 20.0723 6.24423C20.0349 6.30887 20.0133 6.38143 20.0093 6.45599V8.55119C20.0134 8.62575 20.035 8.69828 20.0724 8.76291C20.1098 8.82754 20.1619 8.88245 20.2245 8.92319L20.3997 9.02399C20.4662 9.05792 20.5398 9.0756 20.6145 9.0756C20.6891 9.0756 20.7628 9.05792 20.8293 9.02399L24.8805 6.68319C24.9432 6.6426 24.9954 6.58772 25.0328 6.52306C25.0702 6.4584 25.0917 6.38579 25.0957 6.31119V4.21599Z" fill="#0085FF"/>
<path opacity="0.5" d="M25.0957 4.21599C25.0917 4.1414 25.0702 4.06879 25.0328 4.00413C24.9954 3.93947 24.9432 3.88459 24.8805 3.84399L24.7061 3.74239C24.6394 3.70902 24.5658 3.69165 24.4913 3.69165C24.4167 3.69165 24.3432 3.70902 24.2765 3.74239L20.2245 6.08399C20.1619 6.12469 20.1097 6.17959 20.0723 6.24423C20.0349 6.30887 20.0133 6.38143 20.0093 6.45599V8.55119C20.0134 8.62575 20.035 8.69828 20.0724 8.76291C20.1098 8.82754 20.1619 8.88245 20.2245 8.92319L20.3997 9.02399C20.4662 9.05792 20.5398 9.0756 20.6145 9.0756C20.6891 9.0756 20.7628 9.05792 20.8293 9.02399L24.8805 6.68319C24.9432 6.6426 24.9954 6.58772 25.0328 6.52306C25.0702 6.4584 25.0917 6.38579 25.0957 6.31119V4.21599Z" fill="white"/>
<path opacity="0.2" d="M20.0093 8.55134C20.0134 8.62589 20.035 8.69843 20.0724 8.76306C20.1098 8.82769 20.1619 8.8826 20.2245 8.92334L20.3997 9.02414C20.4602 9.05464 20.5265 9.07197 20.5942 9.07501C20.6619 9.07804 20.7295 9.0667 20.7925 9.04174C20.6909 9.08014 20.6141 9.02334 20.6141 8.90014V6.80494C20.6167 6.73003 20.6384 6.65704 20.6773 6.59294L20.0725 6.24414C20.0335 6.3082 20.0118 6.38122 20.0093 6.45614V8.55134Z" fill="black"/>
<path opacity="0.3" d="M25.0884 4.15526C25.0636 4.06406 24.9804 4.03446 24.8812 4.09206L20.8292 6.43286C20.7655 6.47199 20.7131 6.52716 20.6772 6.59286L20.0732 6.24406C20.109 6.17857 20.1611 6.12344 20.2244 6.08406L24.2756 3.74326C24.3422 3.70934 24.4158 3.69165 24.4904 3.69165C24.5651 3.69165 24.6387 3.70934 24.7052 3.74326L24.8812 3.84406C24.935 3.87923 24.9811 3.92494 25.0167 3.97843C25.0523 4.03192 25.0767 4.09207 25.0884 4.15526Z" fill="white"/>
<path d="M20.6152 7.48234L20.0112 7.13354L19.2832 7.83435C19.2722 7.84537 19.2639 7.85874 19.2589 7.87344C19.2539 7.88815 19.2523 7.9038 19.2542 7.91922C19.2561 7.93463 19.2615 7.94941 19.27 7.96243C19.2785 7.97544 19.2898 7.98636 19.3032 7.99435L19.8976 8.33995C19.9222 8.35282 19.9499 8.35864 19.9776 8.35675L20.6176 8.23435V7.48234H20.6152Z" fill="#0085FF"/>
<path opacity="0.5" d="M20.6152 7.48234L20.0112 7.13354L19.2832 7.83435C19.2722 7.84537 19.2639 7.85874 19.2589 7.87344C19.2539 7.88815 19.2523 7.9038 19.2542 7.91922C19.2561 7.93463 19.2615 7.94941 19.27 7.96243C19.2785 7.97544 19.2898 7.98636 19.3032 7.99435L19.8976 8.33995C19.9222 8.35282 19.9499 8.35864 19.9776 8.35675L20.6176 8.23435V7.48234H20.6152Z" fill="white"/>
<path opacity="0.3" d="M19.8974 8.34001L19.5774 8.15681L19.5398 8.13201L19.3686 8.03281L19.3478 8.02001L19.3022 7.99361C19.2889 7.98562 19.2775 7.97471 19.2691 7.96169C19.2606 7.94868 19.2552 7.9339 19.2532 7.91848C19.2513 7.90307 19.2529 7.88741 19.2579 7.87271C19.2629 7.858 19.2712 7.84463 19.2822 7.83361L20.0102 7.13281L20.615 7.48241L19.887 8.18001C19.8754 8.19028 19.8664 8.20306 19.8605 8.21736C19.8546 8.23167 19.8521 8.24712 19.8531 8.26255C19.8541 8.27798 19.8586 8.29298 19.8663 8.30641C19.874 8.31983 19.8846 8.33132 19.8974 8.34001Z" fill="white"/>
<path d="M21.7984 6.83857C21.7148 6.89294 21.6453 6.96627 21.5954 7.05259C21.5455 7.13892 21.5166 7.23581 21.5112 7.33537C21.5112 7.51777 21.64 7.59217 21.7984 7.50097C21.8819 7.44656 21.9514 7.37321 22.0011 7.28688C22.0509 7.20055 22.0796 7.10368 22.0848 7.00417C22.0848 6.82017 21.9568 6.74737 21.7984 6.83857Z" fill="white"/>
<path d="M22.8548 6.22721C22.7713 6.28162 22.7018 6.35497 22.6521 6.4413C22.6023 6.52763 22.5736 6.6245 22.5684 6.72401C22.5684 6.90641 22.6964 6.98081 22.8548 6.88881C22.9381 6.83448 23.0075 6.76125 23.0573 6.67506C23.1071 6.58888 23.1358 6.49218 23.1412 6.39281C23.1396 6.20961 23.0132 6.13521 22.8548 6.22721Z" fill="white"/>
<path d="M23.9119 5.61516C23.8285 5.66971 23.7592 5.7431 23.7094 5.8294C23.6597 5.9157 23.6309 6.01249 23.6255 6.11196C23.6255 6.29516 23.7535 6.36876 23.9119 6.27756C23.9956 6.22311 24.0652 6.14966 24.1151 6.06318C24.165 5.97671 24.1938 5.87966 24.1991 5.77996C24.1991 5.59836 24.0703 5.52396 23.9119 5.61516Z" fill="white"/>
<path d="M32.895 8.32323L32.6046 7.78003L32.8382 7.10563V6.69043L32.123 7.10323V7.51603L32.4302 8.04883C32.4353 8.05679 32.4425 8.06317 32.451 8.06723L32.895 8.32323Z" fill="#0085FF"/>
<path opacity="0.2" d="M32.895 8.32323L32.6046 7.78003L32.8382 7.10563V6.69043L32.123 7.10323V7.51603L32.4302 8.04883C32.4353 8.05679 32.4425 8.06317 32.451 8.06723L32.895 8.32323Z" fill="black"/>
<path d="M35.0671 4.00236C35.0631 3.92797 35.0416 3.85558 35.0044 3.79107C34.9671 3.72656 34.9151 3.67177 34.8527 3.63116L34.6783 3.53036C34.6119 3.49644 34.5384 3.47876 34.4639 3.47876C34.3893 3.47876 34.3159 3.49644 34.2495 3.53036L30.2071 5.86556C30.1449 5.90667 30.0932 5.96168 30.056 6.02625C30.0187 6.09082 29.9971 6.16317 29.9927 6.23756V8.32796C29.9966 8.40235 30.0181 8.47475 30.0554 8.53926C30.0926 8.60376 30.1446 8.65855 30.2071 8.69916L30.3815 8.79996C30.4481 8.8332 30.5215 8.85051 30.5959 8.85051C30.6703 8.85051 30.7437 8.8332 30.8103 8.79996L32.5703 7.77596L32.8775 8.30716C32.8819 8.31427 32.8882 8.31999 32.8957 8.32369C32.9032 8.32738 32.9116 8.3289 32.92 8.32806C32.9283 8.32723 32.9362 8.32408 32.9429 8.31897C32.9495 8.31387 32.9545 8.307 32.9575 8.29916L33.2823 7.36396L34.8487 6.46396C34.9111 6.42335 34.9631 6.36856 35.0004 6.30406C35.0376 6.23955 35.0591 6.16715 35.0631 6.09276L35.0671 4.00236Z" fill="#0085FF"/>
<path d="M31.204 6.64238L34.436 4.77598C34.532 4.72078 34.6096 4.75998 34.6096 4.86398C34.6053 4.92212 34.5873 4.97842 34.5572 5.02832C34.527 5.07822 34.4855 5.12031 34.436 5.15118L31.204 7.01758C31.1088 7.07278 31.0312 7.03358 31.0312 6.92958C31.0356 6.87153 31.0535 6.8153 31.0835 6.76542C31.1135 6.71554 31.1548 6.67339 31.204 6.64238Z" fill="white"/>
<path d="M31.204 7.47364L34.436 5.60804C34.532 5.55284 34.6096 5.59204 34.6096 5.69524C34.6054 5.75352 34.5875 5.80998 34.5573 5.86002C34.5272 5.91007 34.4856 5.95228 34.436 5.98324L31.204 7.84884C31.1088 7.90484 31.0312 7.86484 31.0312 7.76164C31.0355 7.70344 31.0533 7.64705 31.0833 7.59702C31.1133 7.54699 31.1547 7.50473 31.204 7.47364Z" fill="white"/>
<path opacity="0.2" d="M29.9927 8.32803C29.9966 8.40242 30.0181 8.47482 30.0554 8.53933C30.0926 8.60384 30.1446 8.65863 30.2071 8.69923L30.3815 8.80003C30.4419 8.83042 30.508 8.84769 30.5756 8.85072C30.6432 8.85375 30.7106 8.84248 30.7735 8.81764C30.6727 8.85524 30.5959 8.79843 30.5959 8.67603V6.58563C30.5984 6.51108 30.6199 6.43841 30.6583 6.37443L30.0551 6.02563C30.0167 6.0899 29.9952 6.16283 29.9927 6.23763V8.32803Z" fill="black"/>
<path opacity="0.2" d="M35.0597 3.93997C35.0349 3.84877 34.9517 3.81997 34.8525 3.87677L30.8101 6.21277C30.7464 6.25183 30.6943 6.30703 30.6589 6.37277L30.0557 6.02477C30.0915 5.95938 30.1436 5.90429 30.2069 5.86477L34.2485 3.52877C34.3151 3.4954 34.3887 3.47803 34.4633 3.47803C34.5378 3.47803 34.6114 3.4954 34.6781 3.52877L34.8525 3.62957C34.9063 3.66447 34.9525 3.71001 34.9881 3.76338C35.0237 3.81676 35.0481 3.87685 35.0597 3.93997Z" fill="white"/>
</svg>
