<svg width="41" height="41" viewBox="0 0 41 41" fill="none" xmlns="http://www.w3.org/2000/svg">
<g clip-path="url(#clip0_4130_9885)">
<path d="M40.5 31.0918H0.5V31.1118H40.5V31.0918Z" fill="#E6E6E6"/>
<path d="M8.97904 32.0408H4.63184V32.0608H8.97904V32.0408Z" fill="#E6E6E6"/>
<path d="M20.5802 31.6062H18.9434V31.6262H20.5802V31.6062Z" fill="#E6E6E6"/>
<path d="M15.0026 31.6062H12.6074V31.6262H15.0026V31.6062Z" fill="#E6E6E6"/>
<path d="M34.8128 31.8367H29.7456V31.8567H34.8128V31.8367Z" fill="#E6E6E6"/>
<path d="M19.6378 31.8367H18.4946V31.8567H19.6378V31.8367Z" fill="#E6E6E6"/>
<path d="M10.8198 32.0408H9.75342V32.0608H10.8198V32.0408Z" fill="#E6E6E6"/>
<path d="M36.1471 31.8367H35.4663V31.8567H36.1471V31.8367Z" fill="#E6E6E6"/>
<path d="M19.4598 27.5239H4.01264C3.89163 27.5237 3.77565 27.4755 3.69015 27.3898C3.60466 27.3042 3.55664 27.1881 3.55664 27.0671V5.3527C3.55769 5.23238 3.60618 5.11734 3.69156 5.03256C3.77694 4.94778 3.89232 4.90011 4.01264 4.8999H19.4598C19.581 4.8999 19.6972 4.94803 19.7828 5.0337C19.8685 5.11936 19.9166 5.23555 19.9166 5.3567V27.0671C19.9166 27.1883 19.8685 27.3044 19.7828 27.3901C19.6972 27.4758 19.581 27.5239 19.4598 27.5239ZM4.01264 4.9159C3.89693 4.91611 3.78604 4.96223 3.70429 5.04412C3.62255 5.12601 3.57664 5.23699 3.57664 5.3527V27.0671C3.57664 27.1828 3.62255 27.2938 3.70429 27.3757C3.78604 27.4576 3.89693 27.5037 4.01264 27.5039H19.4598C19.5756 27.5037 19.6866 27.4576 19.7685 27.3757C19.8503 27.2939 19.8964 27.1829 19.8966 27.0671V5.3527C19.8964 5.23692 19.8503 5.12594 19.7685 5.04407C19.6866 4.9622 19.5756 4.91611 19.4598 4.9159H4.01264Z" fill="#E6E6E6"/>
<path d="M36.7647 27.5239H21.3167C21.1956 27.5237 21.0795 27.4755 20.9939 27.3899C20.9083 27.3043 20.8601 27.1882 20.8599 27.0671V5.3527C20.8611 5.23231 20.9098 5.11727 20.9953 5.03251C21.0808 4.94775 21.1963 4.90011 21.3167 4.8999H36.7647C36.8848 4.90032 37 4.94808 37.0852 5.03284C37.1704 5.1176 37.2188 5.23252 37.2199 5.3527V27.0671C37.2199 27.188 37.172 27.3039 37.0866 27.3895C37.0013 27.4752 36.8855 27.5235 36.7647 27.5239ZM21.3167 4.9159C21.2009 4.91611 21.0899 4.9622 21.008 5.04407C20.9262 5.12594 20.8801 5.23692 20.8799 5.3527V27.0671C20.8801 27.1829 20.9262 27.2939 21.008 27.3757C21.0899 27.4576 21.2009 27.5037 21.3167 27.5039H36.7647C36.8804 27.5037 36.9914 27.4576 37.0733 27.3757C37.1552 27.2939 37.2013 27.1829 37.2015 27.0671V5.3527C37.2013 5.23692 37.1552 5.12594 37.0733 5.04407C36.9914 4.9622 36.8804 4.91611 36.7647 4.9159H21.3167Z" fill="#E6E6E6"/>
<path d="M33.4728 7.34473H15.6416V17.7095H33.4728V7.34473Z" fill="#E6E6E6"/>
<path d="M33.7135 7.34473H15.8823V17.7095H33.7135V7.34473Z" fill="#F5F5F5"/>
<path d="M33.2808 17.2231V7.83105L16.3152 7.83105V17.2231H33.2808Z" fill="white"/>
<path d="M33.2817 17.2231V7.83105H33.0993V17.2231H33.2817Z" fill="#E6E6E6"/>
<path d="M33.5351 14.304H16.0615V14.9568H33.5351V14.304Z" fill="#F5F5F5"/>
<path d="M20.74 24.1887H17.812V30.6807H20.74V24.1887Z" fill="#E6E6E6"/>
<path d="M31.2631 30.6807H18.3735V31.0919H31.2631V30.6807Z" fill="#E6E6E6"/>
<path d="M20.7393 30.6807H31.8257V24.1887H20.7393V30.6807Z" fill="#F5F5F5"/>
<path d="M21.8913 27.1167H30.6753V24.9879H21.8913V27.1167Z" fill="#E6E6E6"/>
<path d="M21.8913 29.8806H30.6753V27.7518H21.8913V29.8806Z" fill="#E6E6E6"/>
<path d="M27.5998 25.9062H24.9662C24.8951 25.9062 24.8374 25.9639 24.8374 26.0351V26.0695C24.8374 26.1406 24.8951 26.1983 24.9662 26.1983H27.5998C27.6709 26.1983 27.7286 26.1406 27.7286 26.0695V26.0351C27.7286 25.9639 27.6709 25.9062 27.5998 25.9062Z" fill="#F5F5F5"/>
<path d="M27.5998 28.6711H24.9662C24.8951 28.6711 24.8374 28.7288 24.8374 28.7999V28.8343C24.8374 28.9055 24.8951 28.9631 24.9662 28.9631H27.5998C27.6709 28.9631 27.7286 28.9055 27.7286 28.8343V28.7999C27.7286 28.7288 27.6709 28.6711 27.5998 28.6711Z" fill="#F5F5F5"/>
<path d="M11.9702 31.0918H5.73256L4.87256 10.3982H11.1102L11.9702 31.0918Z" fill="#E6E6E6"/>
<path d="M12.8735 31.0918H5.89272L5.03271 10.3982H12.0135L12.8735 31.0918Z" fill="#F5F5F5"/>
<path d="M6.58223 30.372L5.78223 11.1184H11.323L12.1238 30.372H6.58223Z" fill="white"/>
<path d="M23.2946 23.187C23.3746 21.0014 23.4546 17.9734 23.2858 16.8774L23.0098 16.6638C23.0098 16.6638 23.0698 16.8678 23.1018 20.2166C23.1338 23.5654 23.173 22.6894 23.1394 23.187H23.2946Z" fill="#E0E0E0"/>
<path d="M23.8078 15.947C24.3182 15.255 25.3926 14.763 26.5054 14.7654C26.9422 14.7654 25.2046 15.5702 24.5014 16.4574C23.955 17.1462 23.3526 18.3054 23.1558 18.9486C23.2502 17.595 23.2998 16.6382 23.8078 15.947Z" fill="#E0E0E0"/>
<path d="M22.7841 17.7494C22.3153 17.0294 21.2713 16.475 20.1609 16.4126C19.7249 16.3878 21.4121 17.2926 22.0625 18.2182C22.5673 18.9382 23.1025 20.1302 23.2625 20.7846C23.2449 19.4278 23.2537 18.4702 22.7841 17.7494Z" fill="#E0E0E0"/>
<path d="M22.9937 14.7919C22.5665 13.9519 21.5697 13.1415 20.4857 12.8119C20.0593 12.6823 21.8249 14.1607 22.3297 15.2919C22.7217 16.1719 23.1969 17.2775 23.3217 17.9759C23.3681 16.5983 23.4201 15.6327 22.9937 14.7919Z" fill="#E0E0E0"/>
<path d="M23.1914 24.1887C23.4512 24.1887 23.701 24.0892 23.8897 23.9106C24.0784 23.7321 24.1915 23.4881 24.2058 23.2287L24.2954 21.6687H22.0874L22.1778 23.2287C22.1919 23.488 22.3049 23.732 22.4934 23.9106C22.6819 24.0891 22.9317 24.1887 23.1914 24.1887Z" fill="#F0F0F0"/>
<path d="M21.9446 22.0246H24.4382L24.5094 21.3774H21.8726L21.9446 22.0246Z" fill="#EBEBEB"/>
<path d="M32.5456 11.3127H34.1968V6.83274H32.5456V11.3127Z" fill="#E6E6E6"/>
<path d="M32.5455 6.8335H31.7271V10.9535H32.5455V6.8335Z" fill="#F5F5F5"/>
<path d="M30.0759 11.3127H31.7271V6.83274H30.0759V11.3127Z" fill="#E6E6E6"/>
<path d="M30.0762 6.8335H29.2578V10.9535H30.0762V6.8335Z" fill="#F5F5F5"/>
<path d="M27.6066 11.3127H29.2578V6.83274H27.6066V11.3127Z" fill="#E6E6E6"/>
<path d="M27.6065 6.8335H26.7881V10.9535H27.6065V6.8335Z" fill="#F5F5F5"/>
<path d="M25.1359 11.3127H26.7871V6.83274H25.1359V11.3127Z" fill="#E6E6E6"/>
<path d="M25.1358 6.8335H24.3174V10.9535H25.1358V6.8335Z" fill="#F5F5F5"/>
<path d="M22.6672 11.3127H24.3184V6.83274H22.6672V11.3127Z" fill="#E6E6E6"/>
<path d="M22.6665 6.8335H21.8481V10.9535H22.6665V6.8335Z" fill="#F5F5F5"/>
<path d="M20.1969 11.3127H21.8481V6.83274H20.1969V11.3127Z" fill="#E6E6E6"/>
<path d="M20.1968 6.8335H19.3784V10.9535H20.1968V6.8335Z" fill="#F5F5F5"/>
<path d="M17.7272 11.3127H19.3784V6.83274H17.7272V11.3127Z" fill="#E6E6E6"/>
<path d="M17.7271 6.8335H16.9087V10.9535H17.7271V6.8335Z" fill="#F5F5F5"/>
<path d="M15.2575 11.3127H16.9087V6.83274H15.2575V11.3127Z" fill="#E6E6E6"/>
<path d="M20.5 34.7048C29.0666 34.7048 36.0112 34.2993 36.0112 33.7992C36.0112 33.299 29.0666 32.8936 20.5 32.8936C11.9334 32.8936 4.98877 33.299 4.98877 33.7992C4.98877 34.2993 11.9334 34.7048 20.5 34.7048Z" fill="#F5F5F5"/>
<path d="M28.6934 18.0625L29.0334 18.5825L29.539 18.4777L29.1574 17.8313L28.6934 18.0625Z" fill="#9F5B53"/>
<path d="M29.6574 13.6057C29.7294 13.6929 29.7894 13.7705 29.851 13.8553C29.9126 13.9401 29.9718 14.0217 30.0302 14.1065C30.147 14.2753 30.2582 14.4489 30.3622 14.6273C30.4662 14.8057 30.567 14.9881 30.655 15.1793C30.7022 15.2729 30.7422 15.3721 30.7854 15.4689C30.8286 15.5657 30.8654 15.6673 30.8966 15.7721L30.9222 15.8521L30.935 15.8913C30.9422 15.9145 30.9494 15.9393 30.9542 15.9625C30.9718 16.0455 30.9778 16.1306 30.9718 16.2153C30.9613 16.348 30.9325 16.4785 30.8862 16.6033C30.8079 16.8113 30.7076 17.0103 30.587 17.1969C30.3623 17.5434 30.1017 17.8652 29.8094 18.1569L29.4598 17.8833C29.6521 17.5552 29.8278 17.2178 29.9862 16.8721C30.059 16.7143 30.1171 16.5502 30.1598 16.3817C30.1758 16.3185 30.183 16.2533 30.1814 16.1881C30.1814 16.1743 30.1784 16.1607 30.1726 16.1481L30.1598 16.1177L30.1334 16.0569C29.9836 15.7204 29.8071 15.3964 29.6054 15.0881C29.5046 14.9281 29.3982 14.7737 29.291 14.6177C29.1838 14.4617 29.067 14.3057 28.9614 14.1641L29.6574 13.6057Z" fill="#9F5B53"/>
<path d="M29.4597 13.212C30.0109 13.3384 30.6429 14.84 30.6429 14.84L29.5397 15.5984C29.2643 15.2037 29.0198 14.7884 28.8085 14.356C28.4813 13.6688 28.8997 13.0832 29.4597 13.212Z" fill="#0085FF"/>
<path opacity="0.8" d="M29.4597 13.212C30.0109 13.3384 30.6429 14.84 30.6429 14.84L29.5397 15.5984C29.2643 15.2037 29.0198 14.7884 28.8085 14.356C28.4813 13.6688 28.8997 13.0832 29.4597 13.212Z" fill="white"/>
<path d="M29.0679 14.1697L29.5911 15.5625L29.5391 15.5985C29.5391 15.5985 29.3127 15.2785 29.0679 14.8521V14.1697Z" fill="#0085FF"/>
<path opacity="0.6" d="M29.0679 14.1697L29.5911 15.5625L29.5391 15.5985C29.5391 15.5985 29.3127 15.2785 29.0679 14.8521V14.1697Z" fill="white"/>
<path d="M27.6713 33.2712H27.0833L27.0249 31.9104H27.6129L27.6713 33.2712Z" fill="#9F5B53"/>
<path d="M31.2001 33.2712H30.6121L30.3169 31.9104H30.9041L31.2001 33.2712Z" fill="#9F5B53"/>
<path d="M27.0249 31.9111L27.0553 32.6119H27.6433L27.6129 31.9111H27.0249Z" fill="#8A4743"/>
<path d="M30.9049 31.9111H30.3169L30.4689 32.6119H31.0569L30.9049 31.9111Z" fill="#8A4743"/>
<path d="M27.2505 18.3225C27.2505 18.3225 27.9177 22.8137 28.2833 24.4961C28.6833 26.3361 30.1953 32.4769 30.1953 32.4769H31.2721C31.2721 32.4769 30.2753 26.4873 30.0465 24.6601C29.7985 22.6801 29.2793 18.3193 29.2793 18.3193L27.2505 18.3225Z" fill="#0085FF"/>
<path opacity="0.5" d="M27.2505 18.3225C27.2505 18.3225 27.9177 22.8137 28.2833 24.4961C28.6833 26.3361 30.1953 32.4769 30.1953 32.4769H31.2721C31.2721 32.4769 30.2753 26.4873 30.0465 24.6601C29.7985 22.6801 29.2793 18.3193 29.2793 18.3193L27.2505 18.3225Z" fill="black"/>
<path opacity="0.4" d="M27.6721 19.9226C28.4433 20.0738 28.3617 22.9498 28.2689 24.429C28.0465 23.3834 27.7209 21.3714 27.4985 19.9434C27.5523 19.9169 27.6136 19.9095 27.6721 19.9226Z" fill="black"/>
<path d="M26.1349 18.3225C26.1349 18.3225 26.0549 22.7161 26.1181 24.5089C26.1845 26.3729 26.8381 32.4769 26.8381 32.4769H27.8333C27.8333 32.4769 27.8701 26.4817 27.9133 24.6513C27.9613 22.6553 28.2021 18.3225 28.2021 18.3225H26.1349Z" fill="#0085FF"/>
<path opacity="0.5" d="M26.1349 18.3225C26.1349 18.3225 26.0549 22.7161 26.1181 24.5089C26.1845 26.3729 26.8381 32.4769 26.8381 32.4769H27.8333C27.8333 32.4769 27.8701 26.4817 27.9133 24.6513C27.9613 22.6553 28.2021 18.3225 28.2021 18.3225H26.1349Z" fill="black"/>
<path d="M29.5873 17.7576L29.1577 17.8312L29.5393 18.4776C29.5393 18.4776 29.8385 18.3336 29.8929 18.0544L29.5873 17.7576Z" fill="#9F5B53"/>
<path d="M26.7477 11.028C26.7477 11.0752 26.7229 11.1136 26.6917 11.1136C26.6605 11.1136 26.6357 11.0752 26.6357 11.028C26.6357 10.9808 26.6605 10.9424 26.6917 10.9424C26.7229 10.9424 26.7477 10.98 26.7477 11.028Z" fill="#263238"/>
<path d="M26.7269 11.1135C26.6703 11.2584 26.5941 11.3949 26.5005 11.5191C26.5328 11.5423 26.5699 11.5581 26.609 11.5654C26.6481 11.5727 26.6883 11.5714 26.7269 11.5615V11.1135Z" fill="#892B29"/>
<path d="M26.9158 10.7658C26.91 10.7658 26.9043 10.7638 26.8998 10.7602C26.872 10.7388 26.8395 10.7243 26.805 10.7181C26.7705 10.7118 26.735 10.7139 26.7014 10.7242C26.6981 10.7254 26.6945 10.726 26.6909 10.7259C26.6873 10.7258 26.6838 10.725 26.6805 10.7235C26.6772 10.722 26.6743 10.7199 26.6718 10.7173C26.6694 10.7146 26.6675 10.7115 26.6662 10.7082C26.6648 10.7048 26.6641 10.7012 26.6641 10.6975C26.6641 10.6939 26.6648 10.6903 26.6662 10.6869C26.6676 10.6836 26.6697 10.6805 26.6723 10.678C26.6749 10.6755 26.678 10.6735 26.6814 10.6722C26.7235 10.6586 26.7683 10.6554 26.8119 10.6629C26.8556 10.6704 26.8967 10.6884 26.9318 10.7154C26.9349 10.7173 26.9375 10.72 26.9395 10.723C26.9415 10.7261 26.9429 10.7295 26.9435 10.7331C26.9441 10.7368 26.9439 10.7405 26.943 10.744C26.9421 10.7475 26.9405 10.7509 26.9382 10.7538C26.9359 10.7575 26.9326 10.7606 26.9286 10.7627C26.9247 10.7648 26.9203 10.7659 26.9158 10.7658Z" fill="#263238"/>
<path d="M28.2782 11.5745C28.1934 12.0049 28.1094 12.7921 28.4102 13.0793C28.4102 13.0793 28.2926 13.5153 27.4934 13.5153C26.6134 13.5153 27.0742 13.0793 27.0742 13.0793C27.5542 12.9649 27.5414 12.6089 27.4574 12.2753L28.2782 11.5745Z" fill="#9F5B53"/>
<path d="M28.5254 13.229C28.5886 13.0914 28.6574 12.933 28.5142 12.8834C28.3542 12.829 27.4926 12.7738 27.195 12.8754C27.1557 12.8862 27.119 12.9048 27.087 12.93C27.0549 12.9551 27.0282 12.9864 27.0083 13.022C26.9885 13.0575 26.9759 13.0967 26.9712 13.1372C26.9666 13.1776 26.97 13.2186 26.9814 13.2578L28.5254 13.229Z" fill="#0085FF"/>
<path d="M30.3758 33.3C30.351 33.3033 30.3257 33.3016 30.3015 33.295C30.2774 33.2884 30.2547 33.2771 30.235 33.2616C30.2279 33.252 30.2241 33.2403 30.2241 33.2284C30.2241 33.2165 30.2279 33.2048 30.235 33.1952C30.2394 33.1869 30.2456 33.1797 30.253 33.1741C30.2605 33.1684 30.2691 33.1644 30.2782 33.1624C30.3646 33.1432 30.5262 33.2536 30.5334 33.2584C30.5356 33.26 30.5373 33.2622 30.5383 33.2648C30.5393 33.2673 30.5396 33.2701 30.539 33.2728C30.5386 33.2754 30.5373 33.2778 30.5355 33.2796C30.5336 33.2815 30.5312 33.2827 30.5286 33.2832C30.4784 33.294 30.4272 33.2997 30.3758 33.3ZM30.303 33.188H30.2854C30.28 33.1891 30.2749 33.1914 30.2705 33.1947C30.2661 33.1981 30.2624 33.2023 30.2598 33.2072C30.247 33.2296 30.255 33.2392 30.2598 33.2424C30.2846 33.276 30.4046 33.276 30.4926 33.2616C30.4356 33.2238 30.3708 33.1992 30.303 33.1896V33.188Z" fill="#0085FF"/>
<path d="M30.5262 33.2857H30.5198C30.459 33.2521 30.3414 33.1257 30.3534 33.0585C30.3554 33.0481 30.361 33.0388 30.3692 33.0321C30.3774 33.0254 30.3876 33.0217 30.3982 33.0217C30.4087 33.0206 30.4194 33.0215 30.4296 33.0246C30.4397 33.0276 30.4492 33.0326 30.4574 33.0393C30.5254 33.0953 30.5374 33.2649 30.5374 33.2721C30.5377 33.2746 30.5373 33.2772 30.5361 33.2795C30.535 33.2818 30.5332 33.2836 30.531 33.2849C30.5295 33.2855 30.5278 33.2858 30.5262 33.2857ZM30.4078 33.0457H30.4014C30.383 33.0457 30.3814 33.0569 30.3806 33.0601C30.3734 33.0993 30.4486 33.1961 30.5086 33.2417C30.5044 33.1749 30.4805 33.1109 30.4398 33.0577C30.4306 33.0507 30.4193 33.0471 30.4078 33.0473V33.0457Z" fill="#0085FF"/>
<path d="M26.8473 33.2999C26.7721 33.2999 26.6993 33.2895 26.6745 33.2559C26.6683 33.247 26.665 33.2364 26.665 33.2255C26.665 33.2147 26.6683 33.2041 26.6745 33.1951C26.6791 33.1869 26.6854 33.1797 26.693 33.174C26.7006 33.1684 26.7093 33.1644 26.7185 33.1623C26.8153 33.1359 27.0217 33.2527 27.0305 33.2575C27.0328 33.259 27.0347 33.2612 27.0358 33.2638C27.037 33.2663 27.0373 33.2692 27.0369 33.2719C27.0366 33.2748 27.0353 33.2774 27.0332 33.2795C27.0312 33.2815 27.0285 33.2828 27.0257 33.2831C26.9669 33.2942 26.9072 33.2999 26.8473 33.2999ZM26.7537 33.1863C26.7449 33.1851 26.736 33.1851 26.7273 33.1863C26.7217 33.1874 26.7163 33.1897 26.7116 33.193C26.707 33.1963 26.703 33.2006 26.7001 33.2055C26.6905 33.2231 26.6937 33.2311 26.7001 33.2359C26.7273 33.2727 26.8753 33.2751 26.9857 33.2599C26.9138 33.2211 26.835 33.1966 26.7537 33.1879V33.1863Z" fill="#0085FF"/>
<path d="M27.0248 33.2856H27.0192C26.948 33.2544 26.808 33.1256 26.8184 33.0608C26.8184 33.0448 26.832 33.0256 26.8704 33.0216C26.8847 33.0194 26.8993 33.0205 26.9131 33.0246C26.927 33.0288 26.9397 33.0359 26.9504 33.0456C27.0256 33.1064 27.0408 33.2648 27.0416 33.272C27.0419 33.2745 27.0416 33.2769 27.0406 33.2792C27.0396 33.2814 27.038 33.2834 27.036 33.2848C27.0343 33.2857 27.0324 33.2863 27.0305 33.2864C27.0286 33.2866 27.0266 33.2863 27.0248 33.2856ZM26.8816 33.0456H26.8728C26.848 33.0456 26.8464 33.0584 26.8456 33.0616C26.8392 33.1016 26.9352 33.2016 27.0056 33.2448C26.9987 33.1776 26.9707 33.1143 26.9256 33.064C26.9134 33.0535 26.8978 33.0475 26.8816 33.0472V33.0456Z" fill="#0085FF"/>
<path d="M30.5701 33.2031H31.2301C31.2419 33.2032 31.2533 33.2073 31.2624 33.2147C31.2716 33.2221 31.278 33.2324 31.2805 33.2439L31.3965 33.7663C31.3991 33.779 31.3989 33.7922 31.3957 33.8048C31.3926 33.8174 31.3867 33.8292 31.3784 33.8392C31.3701 33.8492 31.3596 33.8571 31.3478 33.8625C31.336 33.8679 31.3231 33.8706 31.3101 33.8703C31.0797 33.8663 30.9677 33.8527 30.6773 33.8527C30.4989 33.8527 30.1309 33.8719 29.8837 33.8719C29.6365 33.8719 29.6053 33.6319 29.7061 33.6055C30.1589 33.5063 30.3293 33.3695 30.4749 33.2399C30.5008 33.216 30.5348 33.2029 30.5701 33.2031Z" fill="#263238"/>
<path d="M27.0871 33.2031H27.7271C27.7389 33.2032 27.7503 33.2073 27.7594 33.2147C27.7686 33.2221 27.7749 33.2324 27.7775 33.2439L27.8935 33.7663C27.8963 33.7789 27.8961 33.792 27.8932 33.8046C27.8902 33.8171 27.8844 33.8288 27.8762 33.8388C27.8681 33.8488 27.8578 33.8569 27.8461 33.8623C27.8344 33.8678 27.8216 33.8705 27.8087 33.8703C27.5775 33.8663 27.2431 33.8527 26.9519 33.8527C26.6119 33.8527 26.3175 33.8719 25.9183 33.8719C25.6783 33.8719 25.6103 33.6319 25.7111 33.6055C26.1711 33.5047 26.5463 33.4943 26.9439 33.2495C26.9862 33.2207 27.0359 33.2046 27.0871 33.2031Z" fill="#263238"/>
<path d="M26.2479 14.4144C26.0151 14.7584 25.7743 15.0792 25.5143 15.3976C25.2546 15.7192 24.9768 16.0259 24.6823 16.316L24.5671 16.4248L24.5375 16.452L24.5175 16.4704L24.4879 16.496C24.4499 16.5259 24.4095 16.5527 24.3671 16.576C24.232 16.647 24.0834 16.6884 23.9311 16.6976C23.6986 16.712 23.4653 16.6929 23.2383 16.6408C22.827 16.5497 22.4281 16.4094 22.0503 16.2232L22.1967 15.8072C22.5716 15.8817 22.9507 15.9333 23.3319 15.9616C23.4993 15.9752 23.6678 15.9682 23.8335 15.9408C23.881 15.9339 23.9264 15.9164 23.9663 15.8896V15.884L23.9719 15.8776L23.9959 15.8512L24.0903 15.7472C24.3407 15.4616 24.5831 15.1584 24.8183 14.8472C25.0535 14.536 25.2887 14.2192 25.5135 13.908L26.2479 14.4144Z" fill="#9F5B53"/>
<path d="M26.519 14.5063C26.4372 15.0027 26.2227 15.4676 25.8982 15.8519C25.8854 15.5703 25.8806 15.3175 25.8814 15.0911L26.519 14.5063Z" fill="#BED3FC"/>
<path d="M28.3286 10.9271C28.2934 11.5095 28.3022 11.8519 28.0086 12.1511C27.5662 12.6007 26.8478 12.3335 26.7086 11.7511C26.5838 11.2279 26.663 10.3639 27.2334 10.1319C27.3589 10.0804 27.4955 10.0618 27.6301 10.0779C27.7648 10.094 27.8931 10.1443 28.0029 10.224C28.1127 10.3037 28.2002 10.4101 28.2572 10.5332C28.3142 10.6563 28.3388 10.7919 28.3286 10.9271Z" fill="#9F5B53"/>
<path d="M27.1975 10.54C27.2023 11.2248 27.4247 12.0648 28.0871 12.0064C28.5271 11.968 28.8615 11.1656 28.9071 10.8256C28.9767 10.3056 28.9871 10.2064 28.6943 10.1464C28.8223 10.0768 28.8687 9.74645 28.5695 9.66645C28.1535 9.55685 27.3695 9.44964 27.6159 9.19604C27.1247 9.28484 27.0015 9.48165 27.0911 9.72085C26.8039 9.69845 26.6271 9.54805 26.6359 9.32085C26.1599 9.51365 25.8511 10.604 27.1975 10.54Z" fill="#263238"/>
<path d="M27.5399 11.0968C27.5074 11.2381 27.4292 11.3646 27.3175 11.4568C27.1695 11.5768 27.0511 11.4696 27.0543 11.2968C27.0543 11.1408 27.1391 10.8904 27.3055 10.8376C27.4719 10.7848 27.5807 10.9264 27.5399 11.0968Z" fill="#9F5B53"/>
<path d="M29.1398 10.2656C29.0615 10.2157 28.972 10.1861 28.8794 10.1794C28.7868 10.1727 28.694 10.1891 28.6094 10.2272C28.6094 10.2272 28.9422 9.77995 29.1398 10.2656Z" fill="#263238"/>
<path d="M30.0197 32.0801C30.0149 32.0801 30.1309 32.4937 30.1309 32.4937H31.3421L31.3197 32.1249L30.0197 32.0801Z" fill="#0085FF"/>
<path d="M26.6448 32.0801C26.64 32.0801 26.7008 32.4937 26.7008 32.4937H27.912L27.9448 32.1249L26.6448 32.0801Z" fill="#0085FF"/>
<path d="M27.0432 31.7616C27.0408 31.7616 27.0385 31.7607 27.0367 31.7591C27.0349 31.7574 27.0338 31.7552 27.0336 31.7528C26.8576 30.0632 26.444 25.9752 26.3936 24.5088C26.34 23.012 26.3888 19.6536 26.4048 18.66C26.4048 18.6544 26.4096 18.6512 26.4152 18.6504C26.4177 18.6506 26.42 18.6516 26.4218 18.6534C26.4236 18.6552 26.4246 18.6575 26.4248 18.66C26.4088 19.6536 26.36 23.012 26.4136 24.508C26.4656 25.9744 26.8792 30.0608 27.0536 31.7504C27.0536 31.7531 27.0527 31.7557 27.0509 31.7578C27.0492 31.7599 27.0467 31.7612 27.044 31.7616H27.0432Z" fill="#0085FF"/>
<path opacity="0.3" d="M27.0432 31.7616C27.0408 31.7616 27.0385 31.7607 27.0367 31.7591C27.0349 31.7574 27.0338 31.7552 27.0336 31.7528C26.8576 30.0632 26.444 25.9752 26.3936 24.5088C26.34 23.012 26.3888 19.6536 26.4048 18.66C26.4048 18.6544 26.4096 18.6512 26.4152 18.6504C26.4177 18.6506 26.42 18.6516 26.4218 18.6534C26.4236 18.6552 26.4246 18.6575 26.4248 18.66C26.4088 19.6536 26.36 23.012 26.4136 24.508C26.4656 25.9744 26.8792 30.0608 27.0536 31.7504C27.0536 31.7531 27.0527 31.7557 27.0509 31.7578C27.0492 31.7599 27.0467 31.7612 27.044 31.7616H27.0432Z" fill="black"/>
<path d="M26.7902 13.7183C26.8702 14.2783 25.771 15.6967 25.771 15.6967L24.6694 14.9383C24.6694 14.9383 24.975 14.1551 25.4894 13.6415C26.0766 13.0599 26.7054 13.1127 26.7902 13.7183Z" fill="#0085FF"/>
<path opacity="0.8" d="M26.7902 13.7183C26.8702 14.2783 25.771 15.6967 25.771 15.6967L24.6694 14.9383C24.6694 14.9383 24.975 14.1551 25.4894 13.6415C26.0766 13.0599 26.7054 13.1127 26.7902 13.7183Z" fill="white"/>
<path d="M26.1701 13.2425C26.1701 13.2425 25.5445 13.9489 26.1349 18.3225H29.2789C29.3005 17.8425 28.9973 15.4857 29.4621 13.2121C29.1147 13.1452 28.7633 13.1008 28.4101 13.0793C27.9652 13.0537 27.5191 13.0537 27.0741 13.0793C26.769 13.11 26.4667 13.1646 26.1701 13.2425Z" fill="#0085FF"/>
<path opacity="0.8" d="M26.1701 13.2425C26.1701 13.2425 25.5445 13.9489 26.1349 18.3225H29.2789C29.3005 17.8425 28.9973 15.4857 29.4621 13.2121C29.1147 13.1452 28.7633 13.1008 28.4101 13.0793C27.9652 13.0537 27.5191 13.0537 27.0741 13.0793C26.769 13.11 26.4667 13.1646 26.1701 13.2425Z" fill="white"/>
<path d="M16.9209 10.0316C17.1719 8.92557 16.4789 7.82541 15.3728 7.57433C14.2668 7.32325 13.1666 8.01632 12.9156 9.12235C12.6645 10.2284 13.3576 11.3285 14.4636 11.5796C15.5696 11.8307 16.6698 11.1376 16.9209 10.0316Z" fill="#0085FF"/>
<path opacity="0.2" d="M16.9209 10.0316C17.1719 8.92557 16.4789 7.82541 15.3728 7.57433C14.2668 7.32325 13.1666 8.01632 12.9156 9.12235C12.6645 10.2284 13.3576 11.3285 14.4636 11.5796C15.5696 11.8307 16.6698 11.1376 16.9209 10.0316Z" fill="white"/>
<path d="M14.7073 12.2401C14.1761 12.199 13.6695 11.9994 13.2531 11.667C12.8367 11.3347 12.5298 10.8849 12.3721 10.3761L12.4481 10.3521C12.6012 10.8457 12.899 11.2819 13.303 11.6043C13.7069 11.9267 14.1984 12.1203 14.7137 12.1601L14.7073 12.2401Z" fill="#0085FF"/>
<path opacity="0.2" d="M14.7073 12.2401C14.1761 12.199 13.6695 11.9994 13.2531 11.667C12.8367 11.3347 12.5298 10.8849 12.3721 10.3761L12.4481 10.3521C12.6012 10.8457 12.899 11.2819 13.303 11.6043C13.7069 11.9267 14.1984 12.1203 14.7137 12.1601L14.7073 12.2401Z" fill="white"/>
<path d="M12.4369 8.83757L12.3569 8.81517C12.4601 8.4706 12.6317 8.15041 12.8616 7.87382C13.0915 7.59722 13.375 7.36992 13.6949 7.20556C14.0148 7.04119 14.3646 6.94314 14.7234 6.9173C15.0821 6.89146 15.4424 6.93835 15.7825 7.05517L15.7569 7.13117C15.4267 7.01797 15.0771 6.97263 14.7289 6.99788C14.3807 7.02312 14.0413 7.11843 13.7309 7.27809C13.4204 7.43774 13.1455 7.65845 12.9224 7.92698C12.6994 8.19551 12.5329 8.50632 12.4329 8.84077L12.4369 8.83757Z" fill="#0085FF"/>
<path opacity="0.2" d="M12.4369 8.83757L12.3569 8.81517C12.4601 8.4706 12.6317 8.15041 12.8616 7.87382C13.0915 7.59722 13.375 7.36992 13.6949 7.20556C14.0148 7.04119 14.3646 6.94314 14.7234 6.9173C15.0821 6.89146 15.4424 6.93835 15.7825 7.05517L15.7569 7.13117C15.4267 7.01797 15.0771 6.97263 14.7289 6.99788C14.3807 7.02312 14.0413 7.11843 13.7309 7.27809C13.4204 7.43774 13.1455 7.65845 12.9224 7.92698C12.6994 8.19551 12.5329 8.50632 12.4329 8.84077L12.4369 8.83757Z" fill="white"/>
<path d="M17.3915 8.80325C17.2044 8.20512 16.8064 7.69535 16.2715 7.36885L16.3131 7.30005C16.864 7.63722 17.2739 8.1628 17.4667 8.77925L17.3915 8.80325Z" fill="#0085FF"/>
<path opacity="0.2" d="M17.3915 8.80325C17.2044 8.20512 16.8064 7.69535 16.2715 7.36885L16.3131 7.30005C16.864 7.63722 17.2739 8.1628 17.4667 8.77925L17.3915 8.80325Z" fill="white"/>
<path d="M16.9218 15.7003C17.1729 14.5943 16.4798 13.4941 15.3738 13.243C14.2678 12.992 13.1676 13.685 12.9165 14.7911C12.6655 15.8971 13.3585 16.9972 14.4646 17.2483C15.5706 17.4994 16.6707 16.8063 16.9218 15.7003Z" fill="#0085FF"/>
<path opacity="0.6" d="M16.9218 15.7003C17.1729 14.5943 16.4798 13.4941 15.3738 13.243C14.2678 12.992 13.1676 13.685 12.9165 14.7911C12.6655 15.8971 13.3585 16.9972 14.4646 17.2483C15.5706 17.4994 16.6707 16.8063 16.9218 15.7003Z" fill="white"/>
<path d="M16.9213 21.3688C17.1724 20.2627 16.4793 19.1626 15.3733 18.9115C14.2673 18.6604 13.1671 19.3535 12.916 20.4595C12.665 21.5655 13.358 22.6657 14.4641 22.9168C15.5701 23.1679 16.6703 22.4748 16.9213 21.3688Z" fill="#0085FF"/>
<path opacity="0.6" d="M16.9213 21.3688C17.1724 20.2627 16.4793 19.1626 15.3733 18.9115C14.2673 18.6604 13.1671 19.3535 12.916 20.4595C12.665 21.5655 13.358 22.6657 14.4641 22.9168C15.5701 23.1679 16.6703 22.4748 16.9213 21.3688Z" fill="white"/>
<path d="M16.9213 27.0384C17.1724 25.9324 16.4793 24.8322 15.3733 24.5812C14.2673 24.3301 13.1671 25.0232 12.916 26.1292C12.665 27.2352 13.358 28.3354 14.4641 28.5865C15.5701 28.8375 16.6703 28.1445 16.9213 27.0384Z" fill="#0085FF"/>
<path opacity="0.6" d="M16.9213 27.0384C17.1724 25.9324 16.4793 24.8322 15.3733 24.5812C14.2673 24.3301 13.1671 25.0232 12.916 26.1292C12.665 27.2352 13.358 28.3354 14.4641 28.5865C15.5701 28.8375 16.6703 28.1445 16.9213 27.0384Z" fill="white"/>
<path d="M11.2524 10.0309C11.5035 8.92484 10.8104 7.82468 9.70437 7.5736C8.59834 7.32252 7.49818 8.01559 7.2471 9.12162C6.99602 10.2277 7.6891 11.3278 8.79513 11.5789C9.90116 11.83 11.0013 11.1369 11.2524 10.0309Z" fill="#0085FF"/>
<path opacity="0.6" d="M11.2524 10.0309C11.5035 8.92484 10.8104 7.82468 9.70437 7.5736C8.59834 7.32252 7.49818 8.01559 7.2471 9.12162C6.99602 10.2277 7.6891 11.3278 8.79513 11.5789C9.90116 11.83 11.0013 11.1369 11.2524 10.0309Z" fill="white"/>
<path d="M11.2534 15.7003C11.5045 14.5943 10.8114 13.4941 9.70535 13.243C8.59932 12.992 7.49916 13.685 7.24808 14.7911C6.997 15.8971 7.69007 16.9972 8.7961 17.2483C9.90213 17.4994 11.0023 16.8063 11.2534 15.7003Z" fill="#0085FF"/>
<path opacity="0.6" d="M11.2534 15.7003C11.5045 14.5943 10.8114 13.4941 9.70535 13.243C8.59932 12.992 7.49916 13.685 7.24808 14.7911C6.997 15.8971 7.69007 16.9972 8.7961 17.2483C9.90213 17.4994 11.0023 16.8063 11.2534 15.7003Z" fill="white"/>
<path d="M11.2529 21.369C11.504 20.263 10.8109 19.1628 9.70486 18.9117C8.59883 18.6607 7.49867 19.3537 7.24759 20.4598C6.99651 21.5658 7.68958 22.6659 8.79561 22.917C9.90165 23.1681 11.0018 22.475 11.2529 21.369Z" fill="#0085FF"/>
<path opacity="0.6" d="M11.2529 21.369C11.504 20.263 10.8109 19.1628 9.70486 18.9117C8.59883 18.6607 7.49867 19.3537 7.24759 20.4598C6.99651 21.5658 7.68958 22.6659 8.79561 22.917C9.90165 23.1681 11.0018 22.475 11.2529 21.369Z" fill="white"/>
<path d="M11.2529 27.0377C11.504 25.9317 10.8109 24.8315 9.70486 24.5804C8.59883 24.3294 7.49867 25.0224 7.24759 26.1285C6.99651 27.2345 7.68958 28.3346 8.79562 28.5857C9.90165 28.8368 11.0018 28.1437 11.2529 27.0377Z" fill="#0085FF"/>
<path opacity="0.6" d="M11.2529 27.0377C11.504 25.9317 10.8109 24.8315 9.70486 24.5804C8.59883 24.3294 7.49867 25.0224 7.24759 26.1285C6.99651 27.2345 7.68958 28.3346 8.79562 28.5857C9.90165 28.8368 11.0018 28.1437 11.2529 27.0377Z" fill="white"/>
<path d="M22.276 15.8502L21.8448 15.4038L21.3848 15.9974C21.3848 15.9974 21.7352 16.335 22.152 16.2374L22.276 15.8502Z" fill="#9F5B53"/>
<path d="M21.252 15.1592L21.0552 15.7816L21.3848 15.9976L21.8448 15.404L21.252 15.1592Z" fill="#9F5B53"/>
<path d="M15.3799 15.1928C15.4156 15.0869 15.4738 14.9899 15.5505 14.9086C15.6272 14.8272 15.7206 14.7635 15.8242 14.7217C15.9279 14.6799 16.0394 14.661 16.1511 14.6664C16.2628 14.6718 16.3719 14.7013 16.4711 14.7528L15.9911 14.5032C15.8134 14.4134 15.6761 14.26 15.6064 14.0735C15.5367 13.887 15.5398 13.6811 15.6151 13.4968C15.6577 13.3997 15.7198 13.3123 15.7975 13.2401C15.8752 13.1678 15.9669 13.1123 16.0669 13.0769C16.167 13.0415 16.2732 13.027 16.379 13.0343C16.4849 13.0416 16.5881 13.0705 16.6823 13.1192L16.2023 12.8704C16.0244 12.7806 15.8869 12.6271 15.8172 12.4404C15.7475 12.2537 15.7508 12.0476 15.8263 11.8632C15.8688 11.7652 15.9311 11.677 16.0093 11.6042C16.0876 11.5315 16.18 11.4756 16.2808 11.4402C16.3816 11.4049 16.4886 11.3907 16.5952 11.3986C16.7017 11.4066 16.8055 11.4365 16.8999 11.4864L14.6207 10.2944C14.453 10.2106 14.3207 10.0698 14.2474 9.89727C14.1741 9.72472 14.1646 9.53171 14.2207 9.35283C14.2566 9.24694 14.3149 9.15004 14.3917 9.06879C14.4685 8.98753 14.562 8.92383 14.6657 8.88205C14.7694 8.84026 14.8809 8.82138 14.9926 8.82669C15.1042 8.83201 15.2134 8.86139 15.3127 8.91283L20.1127 11.4224L19.6199 9.40003C19.5714 9.19685 19.6017 8.98282 19.7048 8.80115C19.808 8.61949 19.9762 8.48372 20.1755 8.42127C20.3749 8.35882 20.5905 8.37433 20.7788 8.46467C20.9672 8.55502 21.1142 8.71347 21.1903 8.90803L22.7647 12.9976C22.8995 13.3472 23.1569 13.6358 23.4887 13.8096L23.7631 13.9528C23.8052 13.9748 23.8425 14.0048 23.8729 14.0411C23.9033 14.0775 23.9262 14.1196 23.9404 14.1648C23.9545 14.2101 23.9595 14.2577 23.9552 14.305C23.9509 14.3522 23.9372 14.3981 23.9151 14.44L21.9951 18.108C21.9507 18.1928 21.8744 18.2565 21.7831 18.2851C21.6918 18.3138 21.5928 18.305 21.5079 18.2608L20.8343 17.9088C20.5792 17.7779 20.2933 17.7187 20.0071 17.7376C19.3152 17.7763 18.6258 17.627 18.0119 17.3056L15.7719 16.1344C15.6057 16.0493 15.475 15.9079 15.4033 15.7355C15.3315 15.5631 15.3232 15.3708 15.3799 15.1928Z" fill="#0085FF"/>
<path d="M21.6791 18.4199C21.6017 18.42 21.5254 18.4013 21.4567 18.3655L20.7831 18.0135C20.5471 17.8927 20.283 17.8374 20.0183 17.8535C19.3049 17.8935 18.5939 17.7398 17.9607 17.4087L15.7207 16.2375C15.5288 16.1394 15.3779 15.9763 15.2949 15.7774C15.2118 15.5785 15.202 15.3566 15.2671 15.1511C15.3082 15.0285 15.3755 14.9164 15.4643 14.8224C15.5532 14.7285 15.6614 14.655 15.7815 14.6071C15.814 14.5937 15.8474 14.5824 15.8815 14.5735C15.6945 14.4614 15.5539 14.2858 15.4855 14.0788C15.4171 13.8718 15.4253 13.647 15.5087 13.4455C15.5571 13.3326 15.6285 13.2311 15.7185 13.1474C15.8085 13.0638 15.9149 12.9999 16.0311 12.9599C16.0527 12.9527 16.0743 12.9455 16.0959 12.9399C15.9087 12.8279 15.7681 12.6524 15.6997 12.4453C15.6312 12.2382 15.6395 12.0134 15.7231 11.8119C15.7715 11.6992 15.843 11.5978 15.933 11.5143C16.023 11.4308 16.1294 11.367 16.2455 11.3271C16.2655 11.3199 16.2863 11.3135 16.3063 11.3079L14.5655 10.3975C14.3736 10.2994 14.2227 10.1363 14.1397 9.93742C14.0566 9.73852 14.0468 9.51661 14.1119 9.31113C14.1533 9.18887 14.2207 9.07701 14.3093 8.9832C14.398 8.88939 14.5059 8.81585 14.6256 8.76761C14.7454 8.71937 14.8741 8.69757 15.003 8.7037C15.132 8.70983 15.2581 8.74375 15.3727 8.80313L19.9399 11.1935L19.5087 9.42793C19.4534 9.19523 19.4885 8.95022 19.6068 8.74239C19.7252 8.53456 19.9181 8.37942 20.1464 8.30831C20.3748 8.2372 20.6217 8.25543 20.8371 8.35931C21.0525 8.46318 21.2205 8.64497 21.3071 8.86793L22.8815 12.9575C23.0059 13.28 23.2433 13.5461 23.5495 13.7063L23.8231 13.8495C23.8791 13.8787 23.9288 13.9187 23.9693 13.9671C24.0099 14.0155 24.0405 14.0715 24.0594 14.1318C24.0782 14.192 24.085 14.2554 24.0794 14.3183C24.0737 14.3812 24.0556 14.4424 24.0263 14.4983L22.1063 18.1671C22.0649 18.2442 22.0032 18.3085 21.9279 18.353C21.8526 18.3976 21.7666 18.4207 21.6791 18.4199ZM20.1087 17.6127C20.3819 17.6112 20.6514 17.6757 20.8943 17.8007L21.5679 18.1527C21.5959 18.1676 21.6266 18.1768 21.6582 18.1797C21.6898 18.1826 21.7216 18.1793 21.7519 18.1698C21.7822 18.1604 21.8103 18.145 21.8346 18.1247C21.8589 18.1043 21.8789 18.0793 21.8935 18.0511L23.8135 14.3823C23.8282 14.3543 23.8372 14.3236 23.84 14.2921C23.8429 14.2606 23.8394 14.2288 23.8299 14.1986C23.8204 14.1684 23.805 14.1404 23.7846 14.1162C23.7642 14.092 23.7392 14.0721 23.7111 14.0575L23.4375 13.9143C23.0808 13.7273 22.8043 13.4167 22.6599 13.0407L21.0847 8.95113C21.0214 8.7827 20.8961 8.64488 20.7344 8.56596C20.5728 8.48705 20.387 8.47302 20.2153 8.52677C20.0436 8.58053 19.899 8.69797 19.8112 8.85499C19.7234 9.01202 19.699 9.1967 19.7431 9.37113L20.2375 11.3943C20.243 11.4166 20.2419 11.4401 20.2344 11.4618C20.2268 11.4835 20.2132 11.5026 20.1951 11.5167C20.177 11.5312 20.1551 11.54 20.1321 11.5421C20.1091 11.5443 20.0859 11.5396 20.0655 11.5287L15.2655 9.01913C15.1818 8.97564 15.0898 8.95076 14.9956 8.9462C14.9014 8.94164 14.8074 8.95752 14.7199 8.99273C14.6313 9.02724 14.5516 9.08104 14.4864 9.15023C14.4212 9.21942 14.3723 9.30226 14.3431 9.39273C14.2953 9.54445 14.303 9.70822 14.3649 9.85477C14.4267 10.0013 14.5387 10.1211 14.6807 10.1927L16.9607 11.3847C16.9889 11.3995 17.0101 11.4248 17.0196 11.4552C17.0292 11.4856 17.0262 11.5185 17.0115 11.5467C17.0042 11.5607 16.9942 11.5731 16.9821 11.5832C16.97 11.5933 16.9561 11.601 16.941 11.6057C16.9106 11.6152 16.8777 11.6123 16.8495 11.5975C16.7699 11.5562 16.6827 11.5317 16.5932 11.5255C16.5038 11.5193 16.414 11.5316 16.3295 11.5615C16.2446 11.5908 16.1668 11.6374 16.1009 11.6984C16.0351 11.7594 15.9827 11.8335 15.9471 11.9159C15.8834 12.0723 15.881 12.2469 15.9403 12.4049C15.9996 12.563 16.1163 12.6929 16.2671 12.7687L16.7471 13.0183C16.7729 13.0343 16.7917 13.0595 16.7997 13.0887C16.8077 13.118 16.8043 13.1492 16.7902 13.1761C16.7761 13.203 16.7524 13.2235 16.7237 13.2336C16.6951 13.2436 16.6637 13.2425 16.6359 13.2303C16.5564 13.1892 16.4693 13.1648 16.38 13.1586C16.2907 13.1524 16.2011 13.1645 16.1167 13.1943C16.0318 13.2237 15.9539 13.2705 15.8881 13.3317C15.8223 13.3928 15.7699 13.467 15.7343 13.5495C15.6708 13.7058 15.6685 13.8802 15.7278 14.038C15.7871 14.1959 15.9037 14.3257 16.0543 14.4015L16.5343 14.6511C16.5625 14.6659 16.5837 14.6912 16.5932 14.7216C16.6028 14.752 16.5998 14.7849 16.5851 14.8131C16.5703 14.8413 16.545 14.8626 16.5146 14.8721C16.4842 14.8816 16.4513 14.8787 16.4231 14.8639C16.3393 14.8208 16.2472 14.7961 16.1531 14.7917C16.0589 14.7873 15.9649 14.8032 15.8775 14.8383C15.7892 14.8732 15.7098 14.9272 15.6448 14.9963C15.5798 15.0655 15.5309 15.1481 15.5015 15.2383C15.4535 15.39 15.4612 15.5539 15.523 15.7005C15.5849 15.8471 15.6969 15.9668 15.8391 16.0383L18.0791 17.2095C18.6726 17.5163 19.3377 17.6581 20.0047 17.6199C20.0399 17.6199 20.0743 17.6143 20.1087 17.6143V17.6127Z" fill="#0085FF"/>
<path d="M17.0703 15.1854C17.0508 15.1856 17.0316 15.1809 17.0143 15.1718L16.4199 14.859C16.4059 14.8517 16.3935 14.8417 16.3834 14.8296C16.3733 14.8176 16.3657 14.8036 16.361 14.7885C16.3563 14.7735 16.3545 14.7577 16.3559 14.742C16.3573 14.7263 16.3618 14.711 16.3691 14.697C16.3764 14.683 16.3864 14.6707 16.3985 14.6605C16.4106 14.6504 16.4246 14.6428 16.4396 14.6381C16.4546 14.6334 16.4705 14.6316 16.4862 14.633C16.5019 14.6344 16.5171 14.6389 16.5311 14.6462L17.1287 14.959C17.1525 14.9714 17.1715 14.9915 17.1825 15.0159C17.1936 15.0403 17.1962 15.0678 17.1898 15.0938C17.1835 15.1199 17.1686 15.1431 17.1475 15.1597C17.1264 15.1763 17.1004 15.1854 17.0735 15.1854H17.0703Z" fill="#0085FF"/>
<path d="M17.2846 13.552C17.2651 13.5522 17.2459 13.5475 17.2286 13.5384L16.631 13.2256C16.6159 13.219 16.6024 13.2093 16.5911 13.1973C16.5799 13.1852 16.5713 13.1709 16.5659 13.1554C16.5604 13.1398 16.5582 13.1233 16.5594 13.1069C16.5606 13.0905 16.5652 13.0745 16.5728 13.0599C16.5805 13.0453 16.591 13.0324 16.6039 13.0221C16.6167 13.0118 16.6316 13.0042 16.6474 12.9999C16.6633 12.9955 16.68 12.9945 16.6963 12.9968C16.7126 12.9992 16.7282 13.0049 16.7422 13.0136L17.3398 13.3256C17.3636 13.338 17.3826 13.358 17.3936 13.3824C17.4047 13.4069 17.4073 13.4343 17.4009 13.4604C17.3946 13.4865 17.3797 13.5096 17.3586 13.5262C17.3375 13.5428 17.3115 13.5519 17.2846 13.552Z" fill="#0085FF"/>
<path d="M17.4985 11.9191C17.4793 11.9188 17.4604 11.9142 17.4433 11.9055L16.8457 11.5927C16.8317 11.5854 16.8193 11.5754 16.8092 11.5633C16.7991 11.5512 16.7915 11.5372 16.7868 11.5222C16.782 11.5071 16.7803 11.4913 16.7817 11.4756C16.7831 11.4599 16.7876 11.4446 16.7949 11.4307C16.8022 11.4167 16.8122 11.4043 16.8243 11.3942C16.8364 11.3841 16.8503 11.3764 16.8654 11.3717C16.8804 11.367 16.8962 11.3653 16.912 11.3667C16.9277 11.3681 16.9429 11.3726 16.9569 11.3799L17.5545 11.6927C17.5784 11.7051 17.5973 11.7252 17.6084 11.7497C17.6195 11.7742 17.622 11.8018 17.6155 11.8279C17.609 11.854 17.594 11.8772 17.5728 11.8937C17.5516 11.9102 17.5254 11.9192 17.4985 11.9191Z" fill="#0085FF"/>
<path opacity="0.3" d="M21.6791 18.4199C21.6017 18.42 21.5254 18.4013 21.4567 18.3655L20.7831 18.0135C20.5471 17.8927 20.283 17.8374 20.0183 17.8535C19.3049 17.8935 18.5939 17.7398 17.9607 17.4087L15.7207 16.2375C15.5288 16.1394 15.3779 15.9763 15.2949 15.7774C15.2118 15.5785 15.202 15.3566 15.2671 15.1511C15.3082 15.0285 15.3755 14.9164 15.4643 14.8224C15.5532 14.7285 15.6614 14.655 15.7815 14.6071C15.814 14.5937 15.8474 14.5824 15.8815 14.5735C15.6945 14.4614 15.5539 14.2858 15.4855 14.0788C15.4171 13.8718 15.4253 13.647 15.5087 13.4455C15.5571 13.3326 15.6285 13.2311 15.7185 13.1474C15.8085 13.0638 15.9149 12.9999 16.0311 12.9599C16.0527 12.9527 16.0743 12.9455 16.0959 12.9399C15.9087 12.8279 15.7681 12.6524 15.6997 12.4453C15.6312 12.2382 15.6395 12.0134 15.7231 11.8119C15.7715 11.6992 15.843 11.5978 15.933 11.5143C16.023 11.4308 16.1294 11.367 16.2455 11.3271C16.2655 11.3199 16.2863 11.3135 16.3063 11.3079L14.5655 10.3975C14.3736 10.2994 14.2227 10.1363 14.1397 9.93742C14.0566 9.73852 14.0468 9.51661 14.1119 9.31113C14.1533 9.18887 14.2207 9.07701 14.3093 8.9832C14.398 8.88939 14.5059 8.81585 14.6256 8.76761C14.7454 8.71937 14.8741 8.69757 15.003 8.7037C15.132 8.70983 15.2581 8.74375 15.3727 8.80313L19.9399 11.1935L19.5087 9.42793C19.4534 9.19523 19.4885 8.95022 19.6068 8.74239C19.7252 8.53456 19.9181 8.37942 20.1464 8.30831C20.3748 8.2372 20.6217 8.25543 20.8371 8.35931C21.0525 8.46318 21.2205 8.64497 21.3071 8.86793L22.8815 12.9575C23.0059 13.28 23.2433 13.5461 23.5495 13.7063L23.8231 13.8495C23.8791 13.8787 23.9288 13.9187 23.9693 13.9671C24.0099 14.0155 24.0405 14.0715 24.0594 14.1318C24.0782 14.192 24.085 14.2554 24.0794 14.3183C24.0737 14.3812 24.0556 14.4424 24.0263 14.4983L22.1063 18.1671C22.0649 18.2442 22.0032 18.3085 21.9279 18.353C21.8526 18.3976 21.7666 18.4207 21.6791 18.4199ZM20.1087 17.6127C20.3819 17.6112 20.6514 17.6757 20.8943 17.8007L21.5679 18.1527C21.5959 18.1676 21.6266 18.1768 21.6582 18.1797C21.6898 18.1826 21.7216 18.1793 21.7519 18.1698C21.7822 18.1604 21.8103 18.145 21.8346 18.1247C21.8589 18.1043 21.8789 18.0793 21.8935 18.0511L23.8135 14.3823C23.8282 14.3543 23.8372 14.3236 23.84 14.2921C23.8429 14.2606 23.8394 14.2288 23.8299 14.1986C23.8204 14.1684 23.805 14.1404 23.7846 14.1162C23.7642 14.092 23.7392 14.0721 23.7111 14.0575L23.4375 13.9143C23.0808 13.7273 22.8043 13.4167 22.6599 13.0407L21.0847 8.95113C21.0214 8.7827 20.8961 8.64488 20.7344 8.56596C20.5728 8.48705 20.387 8.47302 20.2153 8.52677C20.0436 8.58053 19.899 8.69797 19.8112 8.85499C19.7234 9.01202 19.699 9.1967 19.7431 9.37113L20.2375 11.3943C20.243 11.4166 20.2419 11.4401 20.2344 11.4618C20.2268 11.4835 20.2132 11.5026 20.1951 11.5167C20.177 11.5312 20.1551 11.54 20.1321 11.5421C20.1091 11.5443 20.0859 11.5396 20.0655 11.5287L15.2655 9.01913C15.1818 8.97564 15.0898 8.95076 14.9956 8.9462C14.9014 8.94164 14.8074 8.95752 14.7199 8.99273C14.6313 9.02724 14.5516 9.08104 14.4864 9.15023C14.4212 9.21942 14.3723 9.30226 14.3431 9.39273C14.2953 9.54445 14.303 9.70822 14.3649 9.85477C14.4267 10.0013 14.5387 10.1211 14.6807 10.1927L16.9607 11.3847C16.9889 11.3995 17.0101 11.4248 17.0196 11.4552C17.0292 11.4856 17.0262 11.5185 17.0115 11.5467C17.0042 11.5607 16.9942 11.5731 16.9821 11.5832C16.97 11.5933 16.9561 11.601 16.941 11.6057C16.9106 11.6152 16.8777 11.6123 16.8495 11.5975C16.7699 11.5562 16.6827 11.5317 16.5932 11.5255C16.5038 11.5193 16.414 11.5316 16.3295 11.5615C16.2446 11.5908 16.1668 11.6374 16.1009 11.6984C16.0351 11.7594 15.9827 11.8335 15.9471 11.9159C15.8834 12.0723 15.881 12.2469 15.9403 12.4049C15.9996 12.563 16.1163 12.6929 16.2671 12.7687L16.7471 13.0183C16.7729 13.0343 16.7917 13.0595 16.7997 13.0887C16.8077 13.118 16.8043 13.1492 16.7902 13.1761C16.7761 13.203 16.7524 13.2235 16.7237 13.2336C16.6951 13.2436 16.6637 13.2425 16.6359 13.2303C16.5564 13.1892 16.4693 13.1648 16.38 13.1586C16.2907 13.1524 16.2011 13.1645 16.1167 13.1943C16.0318 13.2237 15.9539 13.2705 15.8881 13.3317C15.8223 13.3928 15.7699 13.467 15.7343 13.5495C15.6708 13.7058 15.6685 13.8802 15.7278 14.038C15.7871 14.1959 15.9037 14.3257 16.0543 14.4015L16.5343 14.6511C16.5625 14.6659 16.5837 14.6912 16.5932 14.7216C16.6028 14.752 16.5998 14.7849 16.5851 14.8131C16.5703 14.8413 16.545 14.8626 16.5146 14.8721C16.4842 14.8816 16.4513 14.8787 16.4231 14.8639C16.3393 14.8208 16.2472 14.7961 16.1531 14.7917C16.0589 14.7873 15.9649 14.8032 15.8775 14.8383C15.7892 14.8732 15.7098 14.9272 15.6448 14.9963C15.5798 15.0655 15.5309 15.1481 15.5015 15.2383C15.4535 15.39 15.4612 15.5539 15.523 15.7005C15.5849 15.8471 15.6969 15.9668 15.8391 16.0383L18.0791 17.2095C18.6726 17.5163 19.3377 17.6581 20.0047 17.6199C20.0399 17.6199 20.0743 17.6143 20.1087 17.6143V17.6127Z" fill="black"/>
</g>
<defs>
<clipPath id="clip0_4130_9885">
<path d="M0.5 4.5C0.5 2.29086 2.29086 0.5 4.5 0.5H36.5C38.7091 0.5 40.5 2.29086 40.5 4.5V36.5C40.5 38.7091 38.7091 40.5 36.5 40.5H4.5C2.29086 40.5 0.5 38.7091 0.5 36.5V4.5Z" fill="white"/>
</clipPath>
</defs>
</svg>
