<svg width="58" height="63" viewBox="0 0 58 63" fill="none" xmlns="http://www.w3.org/2000/svg">
<ellipse cx="28.7424" cy="27.5648" rx="6.00945" ry="5.87881" fill="#6499E9"/>
<path d="M36.185 33.1628C32.035 34.9889 30.4116 36.3213 28.7476 39.2054V49.9956C30.1038 44.9154 31.9068 42.5617 36.7571 39.2054C42.485 36.4821 44.7266 34.3931 43.6225 27.6958C41.1817 30.2396 39.6086 31.4791 36.185 33.1628Z" fill="#6499E9"/>
<path d="M21.3035 33.4857C25.4572 35.3235 27.082 36.6645 28.7476 39.5672V50.427C27.3901 45.3141 25.5856 42.9452 20.7309 39.5672C14.998 36.8264 12.7544 34.7239 13.8595 27.9834C16.3024 30.5436 17.8769 31.7911 21.3035 33.4857Z" fill="#6499E9"/>
<path d="M17.6369 41.9519C25.8342 48.5687 27.3775 53.6592 28.6107 62.4624C25.7339 56.4001 23.0218 54.1607 16.4607 52.0111C11.0524 51.2689 8.07484 50.7382 4.44177 46.3936C0.594939 41.2302 0.093295 37.761 0 30.978C0.16842 28.8083 0.766617 29.2861 2.09024 30.978L3.39664 36.3343C4.03306 38.2746 4.70608 39.25 6.14009 40.9067C7.87323 42.5424 9.13596 42.8374 11.4969 43.1276C8.90805 40.7734 7.26956 39.5406 5.22613 36.3343C4.86798 35.0422 5.32097 34.9065 6.53253 35.0279C10.7093 37.9857 13.1603 39.4744 17.6369 41.9519Z" fill="#6499E9"/>
<path d="M40.2838 41.9456C32.0493 48.5591 30.4989 53.647 29.2601 62.4457C32.15 56.3865 34.8745 54.1482 41.4655 51.9997C46.8983 51.258 49.8894 50.7275 53.539 46.385C57.4033 41.2243 57.9073 37.7568 58.001 30.9773C57.8318 28.8087 57.2309 29.2862 55.9012 30.9773L54.5889 36.3309C53.9496 38.2701 53.2735 39.245 51.833 40.9009C50.0919 42.5358 48.8235 42.8307 46.4518 43.1207C49.0524 40.7677 50.6984 39.5355 52.7511 36.3309C53.1109 35.0394 52.6558 34.9038 51.4387 35.0252C47.2429 37.9814 44.7808 39.4694 40.2838 41.9456Z" fill="#6499E9"/>
<path fill-rule="evenodd" clip-rule="evenodd" d="M53.7249 31.2411C54.128 29.4278 54.3407 27.5417 54.3407 25.6055C54.3407 11.464 42.9937 0 28.9965 0C14.9993 0 3.65234 11.464 3.65234 25.6055C3.65234 27.5432 3.86539 29.4307 4.26911 31.2453C4.20693 30.5061 4.17519 29.758 4.17519 29.0022C4.17519 14.8607 15.2882 3.39672 28.9968 3.39672C42.7054 3.39672 53.8184 14.8607 53.8184 29.0022C53.8184 29.7566 53.7868 30.5033 53.7249 31.2411Z" fill="#6499E9"/>
</svg>
