<svg width="228" height="54" viewBox="0 0 228 54" fill="none" xmlns="http://www.w3.org/2000/svg">
<ellipse cx="25.0501" cy="23.8304" rx="5.23759" ry="5.08234" fill="#0085FF"/>
<path d="M31.5369 28.6697C27.9199 30.2484 26.505 31.4002 25.0547 33.8936V43.2219C26.2367 38.83 27.8081 36.7952 32.0355 33.8936C37.0277 31.5393 38.9814 29.7333 38.019 23.9434C35.8918 26.1425 34.5207 27.2141 31.5369 28.6697Z" fill="#0085FF"/>
<path d="M18.5668 28.9492C22.1869 30.5381 23.6031 31.6974 25.0547 34.2068V43.5953C23.8716 39.1751 22.2988 37.1272 18.0677 34.2068C13.0711 31.8373 11.1157 30.0197 12.0789 24.1924C14.208 26.4057 15.5803 27.4842 18.5668 28.9492Z" fill="#0085FF"/>
<path d="M15.3716 36.2682C22.516 41.9886 23.8611 46.3894 24.9359 53.9999C22.4287 48.7589 20.0649 46.8229 14.3464 44.9646C9.6328 44.323 7.0377 43.8641 3.87126 40.1081C0.518525 35.6443 0.0813122 32.6451 0 26.7811C0.146788 24.9054 0.668153 25.3184 1.82177 26.7811L2.96038 31.4117C3.51505 33.0891 4.10163 33.9323 5.35145 35.3646C6.86199 36.7787 7.96253 37.0338 10.0202 37.2846C7.7639 35.2494 6.33585 34.1836 4.55489 31.4117C4.24274 30.2946 4.63754 30.1773 5.69349 30.2823C9.33382 32.8394 11.47 34.1264 15.3716 36.2682Z" fill="#0085FF"/>
<path d="M35.1092 36.2627C27.9324 41.9802 26.5811 46.3788 25.5014 53.9855C28.0201 48.7472 30.3946 46.8122 36.1391 44.9548C40.8742 44.3135 43.4811 43.8549 46.6619 40.1007C50.0299 35.6392 50.4691 32.6415 50.5508 26.7805C50.4033 24.9057 49.8796 25.3185 48.7207 26.7805L47.5769 31.4087C47.0197 33.0853 46.4305 33.9281 45.175 35.3596C43.6576 36.773 42.552 37.028 40.485 37.2787C42.7516 35.2444 44.1861 34.1792 45.9752 31.4087C46.2887 30.2922 45.8922 30.175 44.8314 30.2799C41.1745 32.8357 39.0286 34.122 35.1092 36.2627Z" fill="#0085FF"/>
<path fill-rule="evenodd" clip-rule="evenodd" d="M46.8269 26.9989C47.1769 25.4342 47.3615 23.8069 47.3615 22.1364C47.3615 9.9108 37.472 0 25.2726 0C13.0732 0 3.18359 9.9108 3.18359 22.1364C3.18359 23.815 3.37004 25.45 3.7233 27.0217C3.66857 26.3796 3.64062 25.7296 3.64062 25.0729C3.64062 12.8473 13.3263 2.93654 25.2742 2.93654C37.222 2.93654 46.9077 12.8473 46.9077 25.0729C46.9077 25.7218 46.8804 26.3642 46.8269 26.9989Z" fill="#0085FF"/>
<rect x="61.0078" y="14.5137" width="84.9725" height="24.9725" rx="4.35779" fill="#0085FF"/>
<path d="M68.5382 25.7138H74.4125V27.9101H68.5382V25.7138ZM68.7473 30.7339H75.3886V33H65.9409V20.7982H75.162V23.0642H68.7473V30.7339ZM89.4538 23.4826C90.1975 23.4826 90.8541 23.6336 91.4235 23.9358C92.0046 24.2263 92.4578 24.6795 92.7832 25.2954C93.1202 25.8997 93.2887 26.6783 93.2887 27.6312V33H90.5694V28.0495C90.5694 27.2942 90.4125 26.7364 90.0988 26.3762C89.785 26.0159 89.3434 25.8358 88.774 25.8358C88.3789 25.8358 88.0245 25.9288 87.7107 26.1147C87.3969 26.289 87.1529 26.5563 86.9786 26.9165C86.8043 27.2768 86.7171 27.7358 86.7171 28.2936V33H83.9979V28.0495C83.9979 27.2942 83.841 26.7364 83.5272 26.3762C83.2251 26.0159 82.7893 25.8358 82.2199 25.8358C81.8248 25.8358 81.4703 25.9288 81.1566 26.1147C80.8428 26.289 80.5988 26.5563 80.4245 26.9165C80.2502 27.2768 80.163 27.7358 80.163 28.2936V33H77.4437V23.622H80.041V26.1844L79.5529 25.4349C79.8783 24.7957 80.3373 24.3135 80.93 23.9881C81.5343 23.6511 82.2199 23.4826 82.9869 23.4826C83.8468 23.4826 84.5963 23.7034 85.2355 24.145C85.8862 24.5749 86.3162 25.2373 86.5254 26.1321L85.5667 25.8706C85.8804 25.1385 86.3801 24.5575 87.0657 24.1275C87.763 23.6976 88.559 23.4826 89.4538 23.4826ZM101.269 33.1394C100.479 33.1394 99.7875 32.9651 99.1949 32.6165C98.6022 32.2679 98.1374 31.7391 97.8004 31.0303C97.475 30.3098 97.3123 29.4034 97.3123 28.311C97.3123 27.207 97.4692 26.3006 97.7829 25.5917C98.0967 24.8829 98.5499 24.3541 99.1426 24.0055C99.7352 23.6569 100.444 23.4826 101.269 23.4826C102.152 23.4826 102.943 23.6859 103.64 24.0927C104.349 24.4878 104.906 25.0456 105.313 25.7661C105.732 26.4865 105.941 27.3349 105.941 28.311C105.941 29.2988 105.732 30.1529 105.313 30.8734C104.906 31.5939 104.349 32.1517 103.64 32.5468C102.943 32.9419 102.152 33.1394 101.269 33.1394ZM95.726 36.3816V23.622H98.3233V25.5395L98.271 28.3284L98.4453 31.1V36.3816H95.726ZM100.799 30.9083C101.252 30.9083 101.653 30.8037 102.001 30.5945C102.362 30.3853 102.646 30.089 102.855 29.7055C103.076 29.3104 103.187 28.8456 103.187 28.311C103.187 27.7648 103.076 27.3 102.855 26.9165C102.646 26.533 102.362 26.2367 102.001 26.0275C101.653 25.8184 101.252 25.7138 100.799 25.7138C100.345 25.7138 99.9386 25.8184 99.5783 26.0275C99.2181 26.2367 98.9334 26.533 98.7242 26.9165C98.515 27.3 98.4104 27.7648 98.4104 28.311C98.4104 28.8456 98.515 29.3104 98.7242 29.7055C98.9334 30.089 99.2181 30.3853 99.5783 30.5945C99.9386 30.8037 100.345 30.9083 100.799 30.9083ZM113.36 33V31.1697L113.186 30.7688V27.4917C113.186 26.9107 113.006 26.4575 112.645 26.1321C112.297 25.8067 111.756 25.644 111.024 25.644C110.525 25.644 110.031 25.7254 109.543 25.8881C109.066 26.0391 108.66 26.2483 108.323 26.5156L107.346 24.6156C107.858 24.2554 108.474 23.9765 109.194 23.7789C109.915 23.5814 110.647 23.4826 111.39 23.4826C112.82 23.4826 113.93 23.8196 114.72 24.4936C115.51 25.1676 115.905 26.2193 115.905 27.6486V33H113.36ZM110.501 33.1394C109.769 33.1394 109.142 33.0174 108.619 32.7734C108.096 32.5177 107.695 32.1749 107.416 31.745C107.137 31.315 106.998 30.8327 106.998 30.2982C106.998 29.7404 107.131 29.2523 107.399 28.8339C107.678 28.4156 108.113 28.0902 108.706 27.8578C109.299 27.6138 110.071 27.4917 111.024 27.4917H113.517V29.078H111.321C110.682 29.078 110.24 29.1826 109.996 29.3917C109.764 29.6009 109.647 29.8624 109.647 30.1761C109.647 30.5248 109.781 30.8037 110.048 31.0128C110.327 31.2104 110.705 31.3092 111.181 31.3092C111.634 31.3092 112.041 31.2046 112.401 30.9954C112.762 30.7746 113.023 30.455 113.186 30.0367L113.604 31.2917C113.407 31.896 113.046 32.355 112.523 32.6688C112.001 32.9826 111.326 33.1394 110.501 33.1394ZM122.201 33.1394C121.097 33.1394 120.237 32.8606 119.621 32.3028C119.005 31.7333 118.697 30.8908 118.697 29.7752V21.5477H121.417V29.7404C121.417 30.1355 121.521 30.4434 121.73 30.6642C121.94 30.8734 122.224 30.978 122.584 30.978C123.014 30.978 123.381 30.8618 123.683 30.6294L124.415 32.5468C124.136 32.7443 123.799 32.8954 123.404 33C123.02 33.093 122.619 33.1394 122.201 33.1394ZM117.251 25.9229V23.8312H123.752V25.9229H117.251ZM131.641 23.4826C132.385 23.4826 133.047 23.6336 133.628 23.9358C134.221 24.2263 134.686 24.6795 135.023 25.2954C135.36 25.8997 135.528 26.6783 135.528 27.6312V33H132.809V28.0495C132.809 27.2942 132.641 26.7364 132.304 26.3762C131.978 26.0159 131.513 25.8358 130.909 25.8358C130.479 25.8358 130.09 25.9288 129.741 26.1147C129.404 26.289 129.137 26.5621 128.939 26.9339C128.753 27.3058 128.66 27.7823 128.66 28.3633V33H125.941V20.0661H128.66V26.2193L128.05 25.4349C128.387 24.8073 128.87 24.3251 129.497 23.9881C130.125 23.6511 130.839 23.4826 131.641 23.4826ZM137.993 33V23.622H140.713V33H137.993ZM139.353 22.3147C138.853 22.3147 138.446 22.1694 138.133 21.8789C137.819 21.5884 137.662 21.2281 137.662 20.7982C137.662 20.3682 137.819 20.008 138.133 19.7174C138.446 19.4269 138.853 19.2817 139.353 19.2817C139.853 19.2817 140.259 19.4211 140.573 19.7C140.887 19.9673 141.044 20.3159 141.044 20.7459C141.044 21.1991 140.887 21.5768 140.573 21.8789C140.271 22.1694 139.864 22.3147 139.353 22.3147Z" fill="white"/>
<path d="M155.01 33.2092C154.069 33.2092 153.191 33.0581 152.378 32.756C151.576 32.4422 150.879 32.0006 150.286 31.4312C149.693 30.8618 149.229 30.1936 148.892 29.4266C148.566 28.6596 148.403 27.8171 148.403 26.8991C148.403 25.981 148.566 25.1385 148.892 24.3716C149.229 23.6046 149.693 22.9364 150.286 22.367C150.89 21.7976 151.593 21.3618 152.395 21.0596C153.197 20.7459 154.074 20.589 155.027 20.589C156.085 20.589 157.038 20.7749 157.886 21.1468C158.746 21.507 159.466 22.0416 160.047 22.7505L158.235 24.4239C157.816 23.9474 157.351 23.593 156.84 23.3606C156.329 23.1165 155.771 22.9945 155.167 22.9945C154.597 22.9945 154.074 23.0875 153.598 23.2734C153.121 23.4593 152.709 23.7266 152.36 24.0752C152.012 24.4239 151.739 24.8364 151.541 25.3128C151.355 25.7893 151.262 26.318 151.262 26.8991C151.262 27.4801 151.355 28.0089 151.541 28.4853C151.739 28.9618 152.012 29.3743 152.36 29.7229C152.709 30.0716 153.121 30.3388 153.598 30.5248C154.074 30.7107 154.597 30.8037 155.167 30.8037C155.771 30.8037 156.329 30.6875 156.84 30.455C157.351 30.211 157.816 29.845 158.235 29.3569L160.047 31.0303C159.466 31.7391 158.746 32.2795 157.886 32.6514C157.038 33.0232 156.079 33.2092 155.01 33.2092ZM167.464 33V31.1697L167.29 30.7688V27.4917C167.29 26.9107 167.109 26.4575 166.749 26.1321C166.401 25.8067 165.86 25.644 165.128 25.644C164.628 25.644 164.135 25.7254 163.646 25.8881C163.17 26.0391 162.763 26.2483 162.426 26.5156L161.45 24.6156C161.961 24.2554 162.577 23.9765 163.298 23.7789C164.018 23.5814 164.75 23.4826 165.494 23.4826C166.924 23.4826 168.033 23.8196 168.824 24.4936C169.614 25.1676 170.009 26.2193 170.009 27.6486V33H167.464ZM164.605 33.1394C163.873 33.1394 163.246 33.0174 162.723 32.7734C162.2 32.5177 161.799 32.1749 161.52 31.745C161.241 31.315 161.102 30.8327 161.102 30.2982C161.102 29.7404 161.235 29.2523 161.502 28.8339C161.781 28.4156 162.217 28.0902 162.81 27.8578C163.402 27.6138 164.175 27.4917 165.128 27.4917H167.621V29.078H165.424C164.785 29.078 164.344 29.1826 164.1 29.3917C163.867 29.6009 163.751 29.8624 163.751 30.1761C163.751 30.5248 163.885 30.8037 164.152 31.0128C164.431 31.2104 164.809 31.3092 165.285 31.3092C165.738 31.3092 166.145 31.2046 166.505 30.9954C166.865 30.7746 167.127 30.455 167.29 30.0367L167.708 31.2917C167.51 31.896 167.15 32.355 166.627 32.6688C166.104 32.9826 165.43 33.1394 164.605 33.1394ZM172.47 33V23.622H175.067V26.2716L174.701 25.5046C174.98 24.8422 175.427 24.3425 176.043 24.0055C176.659 23.6569 177.409 23.4826 178.292 23.4826V25.9927C178.176 25.981 178.071 25.9752 177.978 25.9752C177.885 25.9636 177.786 25.9578 177.682 25.9578C176.938 25.9578 176.334 26.1728 175.869 26.6028C175.416 27.0211 175.189 27.6777 175.189 28.5725V33H172.47ZM184.495 33.1394C183.426 33.1394 182.484 32.9303 181.671 32.5119C180.869 32.0936 180.247 31.5242 179.806 30.8037C179.364 30.0716 179.143 29.2407 179.143 28.311C179.143 27.3697 179.358 26.5388 179.788 25.8184C180.23 25.0862 180.828 24.5168 181.584 24.1101C182.339 23.6918 183.193 23.4826 184.146 23.4826C185.064 23.4826 185.889 23.6801 186.621 24.0752C187.365 24.4587 187.952 25.0165 188.382 25.7486C188.812 26.4691 189.027 27.3349 189.027 28.3459C189.027 28.4505 189.021 28.5725 189.01 28.7119C188.998 28.8398 188.986 28.9618 188.975 29.078H181.357V27.4917H187.545L186.499 27.9624C186.499 27.4743 186.401 27.0502 186.203 26.6899C186.006 26.3297 185.732 26.0508 185.384 25.8532C185.035 25.644 184.628 25.5395 184.164 25.5395C183.699 25.5395 183.286 25.644 182.926 25.8532C182.577 26.0508 182.304 26.3355 182.107 26.7073C181.909 27.0676 181.81 27.4976 181.81 27.9973V28.4156C181.81 28.9269 181.921 29.3801 182.142 29.7752C182.374 30.1587 182.694 30.455 183.1 30.6642C183.519 30.8618 184.007 30.9606 184.565 30.9606C185.064 30.9606 185.5 30.885 185.872 30.7339C186.255 30.5829 186.604 30.3563 186.918 30.0541L188.365 31.6229C187.935 32.111 187.394 32.4887 186.743 32.756C186.093 33.0116 185.343 33.1394 184.495 33.1394Z" fill="#0085FF"/>
</svg>
