<svg width="16" height="17" viewBox="0 0 16 17" fill="none" xmlns="http://www.w3.org/2000/svg">
<mask id="mask0_2170_20119" style="mask-type:alpha" maskUnits="userSpaceOnUse" x="2" y="1" width="12" height="15">
<path fill-rule="evenodd" clip-rule="evenodd" d="M7.33484 1.83332C7.33484 1.46666 7.63484 1.16666 8.0015 1.16666C8.36817 1.16666 8.66817 1.46666 8.66817 1.83332V7.16666C8.66817 7.53332 8.36817 7.83332 8.0015 7.83332C7.63484 7.83332 7.33484 7.53332 7.33484 7.16666V1.83332ZM4.66817 15.8333H6.0015V14.5H4.66817V15.8333ZM7.33484 14.5V15.8333H8.66817V14.5H7.33484ZM10.6282 3.20666L10.6148 3.21999C10.3415 3.49332 10.3748 3.93999 10.6682 4.19332C11.6748 5.08666 12.2215 6.47999 11.9215 7.99332C11.6148 9.51332 10.3948 10.7533 8.8815 11.0733C6.28817 11.6267 4.0015 9.65999 4.0015 7.16666C4.0015 5.97999 4.5215 4.91999 5.3415 4.18666C5.62817 3.92666 5.65484 3.49332 5.38817 3.21999L5.37484 3.20666C5.12817 2.95999 4.73484 2.94666 4.46817 3.17999C3.12817 4.35999 2.38817 6.19999 2.7615 8.19332C3.15484 10.2933 4.83484 11.9933 6.93484 12.4C10.3482 13.06 13.3348 10.4667 13.3348 7.16666C13.3348 5.57999 12.6348 4.15332 11.5282 3.17332C11.2682 2.94666 10.8748 2.95999 10.6282 3.20666ZM11.3348 14.5V15.8333H10.0015V14.5H11.3348Z" fill="black"/>
</mask>
<g mask="url(#mask0_2170_20119)">
<rect y="0.5" width="16" height="16" fill="#323232"/>
</g>
</svg>
