<svg width="20" height="20" viewBox="0 0 20 20" fill="none" xmlns="http://www.w3.org/2000/svg">
<path d="M7.85 11.75L7.95 12.55C7.96667 12.6833 8.02083 12.7917 8.1125 12.875C8.20417 12.9583 8.31667 13 8.45 13H9.55C9.68333 13 9.79583 12.9583 9.8875 12.875C9.97917 12.7917 10.0333 12.6833 10.05 12.55L10.15 11.75C10.2833 11.7 10.4042 11.6417 10.5125 11.575C10.6208 11.5083 10.7167 11.4333 10.8 11.35L11.55 11.675C11.6667 11.725 11.7833 11.7333 11.9 11.7C12.0167 11.6667 12.1083 11.5917 12.175 11.475L12.725 10.525C12.7917 10.4083 12.8125 10.2917 12.7875 10.175C12.7625 10.0583 12.7 9.95833 12.6 9.875L11.95 9.4C11.9833 9.26667 12 9.13333 12 9C12 8.86667 11.9833 8.73333 11.95 8.6L12.6 8.125C12.7 8.04167 12.7625 7.94167 12.7875 7.825C12.8125 7.70833 12.7917 7.59167 12.725 7.475L12.175 6.525C12.1083 6.40833 12.0167 6.33333 11.9 6.3C11.7833 6.26667 11.6667 6.275 11.55 6.325L10.8 6.65C10.7167 6.56667 10.6208 6.49167 10.5125 6.425C10.4042 6.35833 10.2833 6.3 10.15 6.25L10.05 5.45C10.0333 5.31667 9.97917 5.20833 9.8875 5.125C9.79583 5.04167 9.68333 5 9.55 5H8.45C8.31667 5 8.20417 5.04167 8.1125 5.125C8.02083 5.20833 7.96667 5.31667 7.95 5.45L7.85 6.25C7.71667 6.3 7.59583 6.35833 7.4875 6.425C7.37917 6.49167 7.28333 6.56667 7.2 6.65L6.45 6.325C6.33333 6.275 6.21667 6.26667 6.1 6.3C5.98333 6.33333 5.89167 6.40833 5.825 6.525L5.275 7.475C5.20833 7.59167 5.1875 7.70833 5.2125 7.825C5.2375 7.94167 5.3 8.04167 5.4 8.125L6.05 8.6C6.01667 8.73333 6 8.86667 6 9C6 9.13333 6.01667 9.26667 6.05 9.4L5.4 9.875C5.3 9.95833 5.2375 10.0583 5.2125 10.175C5.1875 10.2917 5.20833 10.4083 5.275 10.525L5.825 11.475C5.89167 11.5917 5.98333 11.6667 6.1 11.7C6.21667 11.7333 6.33333 11.725 6.45 11.675L7.2 11.35C7.28333 11.4333 7.37917 11.5083 7.4875 11.575C7.59583 11.6417 7.71667 11.7 7.85 11.75ZM9 10.5C8.58333 10.5 8.22917 10.3542 7.9375 10.0625C7.64583 9.77083 7.5 9.41667 7.5 9C7.5 8.58333 7.64583 8.22917 7.9375 7.9375C8.22917 7.64583 8.58333 7.5 9 7.5C9.41667 7.5 9.77083 7.64583 10.0625 7.9375C10.3542 8.22917 10.5 8.58333 10.5 9C10.5 9.41667 10.3542 9.77083 10.0625 10.0625C9.77083 10.3542 9.41667 10.5 9 10.5ZM3 15.7C2.05 14.8333 1.3125 13.8208 0.7875 12.6625C0.2625 11.5042 0 10.2833 0 9C0 6.5 0.875 4.375 2.625 2.625C4.375 0.875 6.5 0 9 0C11.0833 0 12.9292 0.6125 14.5375 1.8375C16.1458 3.0625 17.1917 4.65833 17.675 6.625L18.975 11.75C19.0583 12.0667 19 12.3542 18.8 12.6125C18.6 12.8708 18.3333 13 18 13H16V16C16 16.55 15.8042 17.0208 15.4125 17.4125C15.0208 17.8042 14.55 18 14 18H12V19C12 19.2833 11.9042 19.5208 11.7125 19.7125C11.5208 19.9042 11.2833 20 11 20C10.7167 20 10.4792 19.9042 10.2875 19.7125C10.0958 19.5208 10 19.2833 10 19V17C10 16.7167 10.0958 16.4792 10.2875 16.2875C10.4792 16.0958 10.7167 16 11 16H14V12C14 11.7167 14.0958 11.4792 14.2875 11.2875C14.4792 11.0958 14.7167 11 15 11H16.7L15.75 7.125C15.3667 5.60833 14.55 4.375 13.3 3.425C12.05 2.475 10.6167 2 9 2C7.06667 2 5.41667 2.675 4.05 4.025C2.68333 5.375 2 7.01667 2 8.95C2 9.95 2.20417 10.9 2.6125 11.8C3.02083 12.7 3.6 13.5 4.35 14.2L5 14.8V19C5 19.2833 4.90417 19.5208 4.7125 19.7125C4.52083 19.9042 4.28333 20 4 20C3.71667 20 3.47917 19.9042 3.2875 19.7125C3.09583 19.5208 3 19.2833 3 19V15.7Z" fill="#636363"/>
</svg>
