<svg width="32" height="32" viewBox="0 0 32 32" fill="none" xmlns="http://www.w3.org/2000/svg">
<rect width="32" height="32" rx="8" fill="#FFF6D0"/>
<mask id="mask0_1631_18328" style="mask-type:alpha" maskUnits="userSpaceOnUse" x="4" y="4" width="24" height="24">
<rect x="4" y="4" width="24" height="24" fill="#DB930E"/>
</mask>
<g mask="url(#mask0_1631_18328)">
<path d="M12.25 22.4H18.75V20C18.75 19.12 18.4318 18.3667 17.7953 17.74C17.1589 17.1133 16.3938 16.8 15.5 16.8C14.6062 16.8 13.8411 17.1133 13.2047 17.74C12.5682 18.3667 12.25 19.12 12.25 20V22.4ZM9 24V22.4H10.625V20C10.625 19.1867 10.818 18.4233 11.2039 17.71C11.5898 16.9967 12.1281 16.4267 12.8188 16C12.1281 15.5733 11.5898 15.0033 11.2039 14.29C10.818 13.5767 10.625 12.8133 10.625 12V9.6H9V8H22V9.6H20.375V12C20.375 12.8133 20.182 13.5767 19.7961 14.29C19.4102 15.0033 18.8719 15.5733 18.1813 16C18.8719 16.4267 19.4102 16.9967 19.7961 17.71C20.182 18.4233 20.375 19.1867 20.375 20V22.4H22V24H9Z" fill="#DB930E"/>
</g>
</svg>
