<svg width="32" height="32" viewBox="0 0 32 32" fill="none" xmlns="http://www.w3.org/2000/svg">
<rect width="32" height="32" rx="8" fill="#FFDFD7"/>
<mask id="mask0_1631_18336" style="mask-type:alpha" maskUnits="userSpaceOnUse" x="6" y="6" width="20" height="20">
<path fill-rule="evenodd" clip-rule="evenodd" d="M16 6C10.48 6 6 10.48 6 16C6 21.52 10.48 26 16 26C21.52 26 26 21.52 26 16C26 10.48 21.52 6 16 6ZM16 17C15.45 17 15 16.55 15 16V12C15 11.45 15.45 11 16 11C16.55 11 17 11.45 17 12V16C17 16.55 16.55 17 16 17ZM15 19V21H17V19H15Z" fill="black"/>
</mask>
<g mask="url(#mask0_1631_18336)">
<rect x="4" y="4" width="24" height="24" fill="#D54E2D"/>
</g>
</svg>
