<svg width="32" height="32" viewBox="0 0 32 32" fill="none" xmlns="http://www.w3.org/2000/svg">
<rect width="32" height="32" rx="8" fill="#E3F6E9"/>
<mask id="mask0_1631_18322" style="mask-type:alpha" maskUnits="userSpaceOnUse" x="6" y="6" width="20" height="20">
<path fill-rule="evenodd" clip-rule="evenodd" d="M6 16C6 10.48 10.48 6 16 6C21.52 6 26 10.48 26 16C26 21.52 21.52 26 16 26C10.48 26 6 21.52 6 16ZM9.7 16.7L13.29 20.29C13.68 20.68 14.32 20.68 14.7 20.29L22.29 12.7C22.68 12.31 22.68 11.68 22.29 11.29C21.9 10.9 21.27 10.9 20.88 11.29L14 18.17L11.11 15.29C10.72 14.9 10.09 14.9 9.7 15.29C9.51275 15.4768 9.40751 15.7305 9.40751 15.995C9.40751 16.2595 9.51275 16.5132 9.7 16.7Z" fill="black"/>
</mask>
<g mask="url(#mask0_1631_18322)">
<rect x="4" y="4" width="24" height="24" fill="#229945"/>
</g>
</svg>
